<svg width="33" height="33" viewBox="0 0 33 33" fill="none" xmlns="http://www.w3.org/2000/svg">
<g clip-path="url(#clip0_359_3018)">
<rect x="3" y="4" width="26" height="29" fill="white"/>
<path d="M31.7472 -0.0742188H1.25167C0.51829 -0.0742188 -0.0742188 0.51829 -0.0742188 1.25167V31.7472C-0.0742188 32.4806 0.51829 33.0731 1.25167 33.0731H31.7472C32.4806 33.0731 33.0731 32.4806 33.0731 31.7472V1.25167C33.0731 0.51829 32.4806 -0.0742188 31.7472 -0.0742188ZM25.4202 11.9293C25.4326 12.124 25.4326 12.327 25.4326 12.5259C25.4326 18.6084 20.8003 25.615 12.3353 25.615C9.72496 25.615 7.3052 24.8567 5.26664 23.5515C5.63955 23.593 5.99589 23.6095 6.37708 23.6095C8.53166 23.6095 10.5122 22.8803 12.0908 21.6456C10.0689 21.6041 8.37006 20.2782 7.78998 18.4551C8.49851 18.5587 9.13659 18.5587 9.86583 18.3723C8.8247 18.1607 7.88891 17.5953 7.21743 16.772C6.54595 15.9487 6.18021 14.9183 6.18234 13.8559V13.7979C6.79142 14.1418 7.50823 14.3532 8.25819 14.3822C7.62774 13.962 7.1107 13.3928 6.75293 12.7249C6.39516 12.0571 6.20771 11.3113 6.2072 10.5536C6.2072 9.69595 6.43094 8.91285 6.83286 8.23333C7.98846 9.65591 9.43049 10.8194 11.0652 11.6482C12.6999 12.477 14.4907 12.9525 16.3213 13.0438C15.6708 9.91556 18.0076 7.38393 20.8169 7.38393C22.1428 7.38393 23.3361 7.93915 24.1772 8.83412C25.2172 8.63938 26.2116 8.2499 27.0983 7.72783C26.7544 8.79269 26.0334 9.69181 25.0763 10.2595C26.0044 10.16 26.8994 9.90313 27.7281 9.54265C27.1024 10.4625 26.3193 11.2787 25.4202 11.9293Z" fill="#77C3EE"/>
</g>
<defs>
<clipPath id="clip0_359_3018">
<rect width="33" height="33" fill="white"/>
</clipPath>
</defs>
</svg>
