<svg width="344" height="281" viewBox="0 0 344 281" fill="none" xmlns="http://www.w3.org/2000/svg">
<g opacity="0.5">
<mask id="path-1-outside-1_359_2869" maskUnits="userSpaceOnUse" x="-6" y="-1" width="351" height="283" fill="black">
<rect fill="white" x="-6" y="-1" width="351" height="283"/>
<path d="M47 280.4V251.6H71C83 251.6 93.1333 250 101.4 246.8C109.667 243.333 116.333 238.933 121.4 233.6C126.467 228.267 130.067 222.533 132.2 216.4C134.333 210 135.4 203.867 135.4 198C135.4 185.733 131.667 175.333 124.2 166.8C116.733 158.267 104.333 154 87 154H47V125.2H87C99 125.2 108.333 123.333 115 119.6C121.933 115.6 126.867 110.267 129.8 103.6C133 96.9333 134.6 89.6 134.6 81.6C134.6 73.8667 132.6 65.8666 128.6 57.6C124.867 49.3333 118.867 42.5333 110.6 37.2C102.6 31.6 91.9333 28.8 78.6 28.8H47V-1.90735e-05H82.2C97.1333 -1.90735e-05 109.933 2.39998 120.6 7.19998C131.533 12 140.333 18.4 147 26.4C153.667 34.1333 158.6 42.6667 161.8 52C165 61.3333 166.6 70.6667 166.6 80C166.6 93.0667 163.933 104.8 158.6 115.2C153.267 125.6 146.733 133.733 139 139.6C144.333 143.6 149.133 148.4 153.4 154C157.667 159.6 161 166.133 163.4 173.6C166.067 180.8 167.4 189.467 167.4 199.6C167.4 214.267 163.933 227.733 157 240C150.333 252.267 140.733 262.133 128.2 269.6C115.667 276.8 100.733 280.4 83.4 280.4H47ZM-4.6 280V-1.90735e-05H27.4V280H-4.6ZM198.181 280V-1.90735e-05H343.781V31.6H230.181V124.8H306.181V156.4H230.181V248.4H343.781V280H198.181Z"/>
</mask>
<path d="M47 280.4H46V281.4H47V280.4ZM47 251.6V250.6H46V251.6H47ZM101.4 246.8L101.761 247.733L101.774 247.728L101.787 247.722L101.4 246.8ZM132.2 216.4L133.145 216.729L133.149 216.716L132.2 216.4ZM47 154H46V155H47V154ZM47 125.2V124.2H46V125.2H47ZM115 119.6L115.489 120.473L115.5 120.466L115 119.6ZM129.8 103.6L128.898 103.167L128.891 103.182L128.885 103.197L129.8 103.6ZM128.6 57.6L127.689 58.0116L127.694 58.0236L127.7 58.0355L128.6 57.6ZM110.6 37.2L110.027 38.0192L110.042 38.03L110.058 38.0403L110.6 37.2ZM47 28.8H46V29.8H47V28.8ZM47 -1.90735e-05V-1.00002H46V-1.90735e-05H47ZM120.6 7.19998L120.19 8.11194L120.198 8.11563L120.6 7.19998ZM147 26.4L146.232 27.0402L146.237 27.0466L146.243 27.0529L147 26.4ZM161.8 52L162.746 51.6757L162.746 51.6757L161.8 52ZM158.6 115.2L159.49 115.656L159.49 115.656L158.6 115.2ZM139 139.6L138.396 138.803L137.339 139.605L138.4 140.4L139 139.6ZM153.4 154L154.195 153.394L154.195 153.394L153.4 154ZM163.4 173.6L162.448 173.906L162.455 173.927L162.462 173.947L163.4 173.6ZM157 240L156.129 239.508L156.125 239.515L156.121 239.522L157 240ZM128.2 269.6L128.698 270.467L128.705 270.463L128.712 270.459L128.2 269.6ZM-4.6 280H-5.6V281H-4.6V280ZM-4.6 -1.90735e-05V-1.00002H-5.6V-1.90735e-05H-4.6ZM27.4 -1.90735e-05H28.4V-1.00002H27.4V-1.90735e-05ZM27.4 280V281H28.4V280H27.4ZM48 280.4V251.6H46V280.4H48ZM47 252.6H71V250.6H47V252.6ZM71 252.6C83.0825 252.6 93.3464 250.99 101.761 247.733L101.039 245.867C92.9203 249.01 82.9175 250.6 71 250.6V252.6ZM101.787 247.722C110.154 244.213 116.945 239.742 122.125 234.289L120.675 232.911C115.722 238.125 109.18 242.453 101.013 245.878L101.787 247.722ZM122.125 234.289C127.277 228.866 130.959 223.013 133.145 216.729L131.256 216.071C129.175 222.054 125.657 227.667 120.675 232.911L122.125 234.289ZM133.149 216.716C135.311 210.229 136.4 203.989 136.4 198H134.4C134.4 203.744 133.356 209.771 131.251 216.084L133.149 216.716ZM136.4 198C136.4 185.513 132.592 174.873 124.953 166.141L123.447 167.458C130.741 175.794 134.4 185.954 134.4 198H136.4ZM124.953 166.141C117.214 157.298 104.469 153 87 153V155C104.198 155 116.252 159.235 123.447 167.458L124.953 166.141ZM87 153H47V155H87V153ZM48 154V125.2H46V154H48ZM47 126.2H87V124.2H47V126.2ZM87 126.2C99.0826 126.2 108.611 124.324 115.489 120.472L114.511 118.727C108.056 122.343 98.9174 124.2 87 124.2V126.2ZM115.5 120.466C122.598 116.371 127.688 110.884 130.715 104.003L128.885 103.197C126.046 109.65 121.269 114.829 114.5 118.734L115.5 120.466ZM130.702 104.033C133.972 97.2202 135.6 89.7373 135.6 81.6H133.6C133.6 89.4627 132.028 96.6465 128.898 103.167L130.702 104.033ZM135.6 81.6C135.6 73.6901 133.554 65.5417 129.5 57.1644L127.7 58.0355C131.646 66.1916 133.6 74.0432 133.6 81.6H135.6ZM129.511 57.1884C125.692 48.7314 119.556 41.7882 111.142 36.3597L110.058 38.0403C118.177 43.2784 124.041 49.9352 127.689 58.0116L129.511 57.1884ZM111.173 36.3807C102.954 30.6271 92.0653 27.8 78.6 27.8V29.8C91.8014 29.8 102.246 32.5729 110.027 38.0192L111.173 36.3807ZM78.6 27.8H47V29.8H78.6V27.8ZM48 28.8V-1.90735e-05H46V28.8H48ZM47 0.999981H82.2V-1.00002H47V0.999981ZM82.2 0.999981C97.0296 0.999981 109.682 3.38367 120.19 8.11191L121.01 6.28806C110.184 1.4163 97.2371 -1.00002 82.2 -1.00002V0.999981ZM120.198 8.11563C131.01 12.8626 139.678 19.1754 146.232 27.0402L147.768 25.7598C140.989 17.6245 132.056 11.1374 121.002 6.28434L120.198 8.11563ZM146.243 27.0529C152.829 34.6932 157.697 43.1157 160.854 52.3243L162.746 51.6757C159.503 42.2176 154.504 33.5735 147.757 25.7471L146.243 27.0529ZM160.854 52.3243C164.02 61.5593 165.6 70.7832 165.6 80H167.6C167.6 70.5501 165.98 61.1074 162.746 51.6757L160.854 52.3243ZM165.6 80C165.6 92.9269 162.963 104.501 157.71 114.744L159.49 115.656C164.904 105.099 167.6 93.2064 167.6 80H165.6ZM157.71 114.744C152.432 125.037 145.988 133.044 138.396 138.803L139.604 140.397C147.479 134.423 154.102 126.163 159.49 115.656L157.71 114.744ZM138.4 140.4C143.656 144.342 148.391 149.075 152.605 154.606L154.195 153.394C149.876 147.725 145.011 142.858 139.6 138.8L138.4 140.4ZM152.605 154.606C156.795 160.106 160.079 166.535 162.448 173.906L164.352 173.294C161.921 165.731 158.538 159.094 154.195 153.394L152.605 154.606ZM162.462 173.947C165.077 181.007 166.4 189.549 166.4 199.6H168.4C168.4 189.384 167.056 180.593 164.338 173.253L162.462 173.947ZM166.4 199.6C166.4 214.102 162.974 227.398 156.129 239.508L157.871 240.492C164.892 228.069 168.4 214.432 168.4 199.6H166.4ZM156.121 239.522C149.544 251.624 140.074 261.362 127.688 268.741L128.712 270.459C141.392 262.905 151.122 252.909 157.879 240.478L156.121 239.522ZM127.702 268.733C115.348 275.83 100.593 279.4 83.4 279.4V281.4C100.873 281.4 115.986 277.77 128.698 270.467L127.702 268.733ZM83.4 279.4H47V281.4H83.4V279.4ZM-3.6 280V-1.90735e-05H-5.6V280H-3.6ZM-4.6 0.999981H27.4V-1.00002H-4.6V0.999981ZM26.4 -1.90735e-05V280H28.4V-1.90735e-05H26.4ZM27.4 279H-4.6V281H27.4V279ZM198.181 280H197.181V281H198.181V280ZM198.181 -1.90735e-05V-1.00002H197.181V-1.90735e-05H198.181ZM343.781 -1.90735e-05H344.781V-1.00002H343.781V-1.90735e-05ZM343.781 31.6V32.6H344.781V31.6H343.781ZM230.181 31.6V30.6H229.181V31.6H230.181ZM230.181 124.8H229.181V125.8H230.181V124.8ZM306.181 124.8H307.181V123.8H306.181V124.8ZM306.181 156.4V157.4H307.181V156.4H306.181ZM230.181 156.4V155.4H229.181V156.4H230.181ZM230.181 248.4H229.181V249.4H230.181V248.4ZM343.781 248.4H344.781V247.4H343.781V248.4ZM343.781 280V281H344.781V280H343.781ZM199.181 280V-1.90735e-05H197.181V280H199.181ZM198.181 0.999981H343.781V-1.00002H198.181V0.999981ZM342.781 -1.90735e-05V31.6H344.781V-1.90735e-05H342.781ZM343.781 30.6H230.181V32.6H343.781V30.6ZM229.181 31.6V124.8H231.181V31.6H229.181ZM230.181 125.8H306.181V123.8H230.181V125.8ZM305.181 124.8V156.4H307.181V124.8H305.181ZM306.181 155.4H230.181V157.4H306.181V155.4ZM229.181 156.4V248.4H231.181V156.4H229.181ZM230.181 249.4H343.781V247.4H230.181V249.4ZM342.781 248.4V280H344.781V248.4H342.781ZM343.781 279H198.181V281H343.781V279Z" fill="#FFB905" mask="url(#path-1-outside-1_359_2869)"/>
</g>
</svg>
