<svg width="33" height="33" viewBox="0 0 33 33" fill="none" xmlns="http://www.w3.org/2000/svg">
<g clip-path="url(#clip0_359_3010)">
<rect x="3" y="4" width="26" height="29" fill="white"/>
<path fill-rule="evenodd" clip-rule="evenodd" d="M22.6462 33V20.2208H26.9363L27.5781 15.2411H22.6446V12.0615C22.6446 10.6194 23.0456 9.636 25.1147 9.636H27.7514V5.181C26.4744 5.04511 25.191 4.97901 23.9069 4.983C20.1053 4.983 17.5032 7.30455 17.5032 11.5665V15.2411H13.2V20.2208H17.5016V33H1.8216C0.8151 33 0 32.1849 0 31.1784V1.8216C0 0.8151 0.8151 0 1.8216 0H31.1784C32.1849 0 33 0.8151 33 1.8216V31.1784C33 32.1849 32.1849 33 31.1784 33H22.6462Z" fill="#0057FF"/>
</g>
<defs>
<clipPath id="clip0_359_3010">
<rect width="33" height="33" fill="white"/>
</clipPath>
</defs>
</svg>
