<svg width="353" height="91" viewBox="0 0 353 91" fill="none" xmlns="http://www.w3.org/2000/svg">
<g opacity="0.5">
<mask id="path-1-outside-1_359_3022" maskUnits="userSpaceOnUse" x="-1" y="-1" width="382" height="93" fill="black">
<rect fill="white" x="-1" y="-1" width="382" height="93"/>
<path d="M0.248 89.872V0.399994H46.84V10.512H10.488V40.336H34.808V50.448H10.488V89.872H0.248ZM56.626 90V0.399994H66.866V90H56.626ZM97.082 90V10.384H74.554V0.399994H129.978V10.384H107.322V90H97.082ZM189.594 90L137.626 6.92799V0.399994H146.458L194.586 77.328V90H189.594ZM137.626 90V19.088H138.65L147.866 33.936V90H137.626ZM193.562 65.04L184.346 49.936V0.399994H194.586V65.04H193.562ZM205.248 90V0.399994H251.84V10.512H215.488V40.336H239.808V50.448H215.488V79.888H251.84V90H205.248ZM290.283 90.384V80.784C291.648 80.784 293.227 80.4 295.019 79.632C296.896 78.7787 298.688 77.6267 300.395 76.176C302.102 74.64 303.51 72.848 304.619 70.8C305.814 68.752 306.411 66.448 306.411 63.888C306.411 60.9013 305.6 58.4267 303.979 56.464C302.358 54.5013 300.267 52.9227 297.707 51.728C295.232 50.5333 292.63 49.5947 289.899 48.912C287.168 48.2293 284.608 47.6747 282.219 47.248C279.915 46.736 278.166 46.2667 276.971 45.84C274.07 44.816 271.424 43.4507 269.035 41.744C266.646 39.952 264.726 37.648 263.275 34.832C261.91 32.016 261.227 28.6027 261.227 24.592C261.227 20.1547 262.08 16.4 263.787 13.328C265.494 10.256 267.584 7.78133 270.059 5.904C272.534 4.02666 275.051 2.66133 277.611 1.808C280.171 0.869329 282.304 0.399994 284.011 0.399994V10.128C283.158 10.2133 282.006 10.5547 280.555 11.152C279.104 11.664 277.654 12.5173 276.203 13.712C274.838 14.9067 273.643 16.4427 272.619 18.32C271.68 20.112 271.211 22.288 271.211 24.848C271.211 27.3227 271.851 29.3707 273.131 30.992C274.496 32.6133 276.246 33.936 278.379 34.96C280.512 35.984 282.859 36.88 285.419 37.648C288.064 38.416 290.667 39.0987 293.227 39.696C295.872 40.2933 298.219 40.976 300.267 41.744C303.168 42.8533 305.856 44.304 308.331 46.096C310.806 47.8027 312.811 50.064 314.347 52.88C315.883 55.696 316.651 59.28 316.651 63.632C316.651 68.24 315.456 72.592 313.067 76.688C310.678 80.6987 307.478 83.984 303.467 86.544C299.456 89.104 295.062 90.384 290.283 90.384ZM284.011 90.384C280.427 90.384 277.184 89.6587 274.283 88.208C271.382 86.7573 268.864 84.9227 266.731 82.704C264.683 80.4853 263.062 78.224 261.867 75.92C260.758 73.616 260.203 71.568 260.203 69.776L269.547 66.448C270.059 69.52 271.126 72.08 272.747 74.128C274.368 76.176 276.203 77.7547 278.251 78.864C280.299 79.888 282.219 80.528 284.011 80.784V90.384ZM303.467 22.288C302.955 19.5573 301.931 17.3387 300.395 15.632C298.859 13.84 297.152 12.5173 295.275 11.664C293.483 10.7253 291.819 10.2133 290.283 10.128V0.399994C293.782 0.399994 296.896 1.08266 299.627 2.448C302.358 3.81333 304.704 5.56266 306.667 7.696C308.63 9.744 310.123 11.8347 311.147 13.968C312.256 16.016 312.896 17.7653 313.067 19.216L303.467 22.288ZM353.408 90.384V80.784C354.773 80.784 356.352 80.4 358.144 79.632C360.021 78.7787 361.813 77.6267 363.52 76.176C365.227 74.64 366.635 72.848 367.744 70.8C368.939 68.752 369.536 66.448 369.536 63.888C369.536 60.9013 368.725 58.4267 367.104 56.464C365.483 54.5013 363.392 52.9227 360.832 51.728C358.357 50.5333 355.755 49.5947 353.024 48.912C350.293 48.2293 347.733 47.6747 345.344 47.248C343.04 46.736 341.291 46.2667 340.096 45.84C337.195 44.816 334.549 43.4507 332.16 41.744C329.771 39.952 327.851 37.648 326.4 34.832C325.035 32.016 324.352 28.6027 324.352 24.592C324.352 20.1547 325.205 16.4 326.912 13.328C328.619 10.256 330.709 7.78133 333.184 5.904C335.659 4.02666 338.176 2.66133 340.736 1.808C343.296 0.869329 345.429 0.399994 347.136 0.399994V10.128C346.283 10.2133 345.131 10.5547 343.68 11.152C342.229 11.664 340.779 12.5173 339.328 13.712C337.963 14.9067 336.768 16.4427 335.744 18.32C334.805 20.112 334.336 22.288 334.336 24.848C334.336 27.3227 334.976 29.3707 336.256 30.992C337.621 32.6133 339.371 33.936 341.504 34.96C343.637 35.984 345.984 36.88 348.544 37.648C351.189 38.416 353.792 39.0987 356.352 39.696C358.997 40.2933 361.344 40.976 363.392 41.744C366.293 42.8533 368.981 44.304 371.456 46.096C373.931 47.8027 375.936 50.064 377.472 52.88C379.008 55.696 379.776 59.28 379.776 63.632C379.776 68.24 378.581 72.592 376.192 76.688C373.803 80.6987 370.603 83.984 366.592 86.544C362.581 89.104 358.187 90.384 353.408 90.384ZM347.136 90.384C343.552 90.384 340.309 89.6587 337.408 88.208C334.507 86.7573 331.989 84.9227 329.856 82.704C327.808 80.4853 326.187 78.224 324.992 75.92C323.883 73.616 323.328 71.568 323.328 69.776L332.672 66.448C333.184 69.52 334.251 72.08 335.872 74.128C337.493 76.176 339.328 77.7547 341.376 78.864C343.424 79.888 345.344 80.528 347.136 80.784V90.384ZM366.592 22.288C366.08 19.5573 365.056 17.3387 363.52 15.632C361.984 13.84 360.277 12.5173 358.4 11.664C356.608 10.7253 354.944 10.2133 353.408 10.128V0.399994C356.907 0.399994 360.021 1.08266 362.752 2.448C365.483 3.81333 367.829 5.56266 369.792 7.696C371.755 9.744 373.248 11.8347 374.272 13.968C375.381 16.016 376.021 17.7653 376.192 19.216L366.592 22.288Z"/>
</mask>
<path d="M0.248 89.872H-0.752V90.872H0.248V89.872ZM0.248 0.399994V-0.600006H-0.752V0.399994H0.248ZM46.84 0.399994H47.84V-0.600006H46.84V0.399994ZM46.84 10.512V11.512H47.84V10.512H46.84ZM10.488 10.512V9.51199H9.488V10.512H10.488ZM10.488 40.336H9.488V41.336H10.488V40.336ZM34.808 40.336H35.808V39.336H34.808V40.336ZM34.808 50.448V51.448H35.808V50.448H34.808ZM10.488 50.448V49.448H9.488V50.448H10.488ZM10.488 89.872V90.872H11.488V89.872H10.488ZM1.248 89.872V0.399994H-0.752V89.872H1.248ZM0.248 1.39999H46.84V-0.600006H0.248V1.39999ZM45.84 0.399994V10.512H47.84V0.399994H45.84ZM46.84 9.51199H10.488V11.512H46.84V9.51199ZM9.488 10.512V40.336H11.488V10.512H9.488ZM10.488 41.336H34.808V39.336H10.488V41.336ZM33.808 40.336V50.448H35.808V40.336H33.808ZM34.808 49.448H10.488V51.448H34.808V49.448ZM9.488 50.448V89.872H11.488V50.448H9.488ZM10.488 88.872H0.248V90.872H10.488V88.872ZM56.626 90H55.626V91H56.626V90ZM56.626 0.399994V-0.600006H55.626V0.399994H56.626ZM66.866 0.399994H67.866V-0.600006H66.866V0.399994ZM66.866 90V91H67.866V90H66.866ZM57.626 90V0.399994H55.626V90H57.626ZM56.626 1.39999H66.866V-0.600006H56.626V1.39999ZM65.866 0.399994V90H67.866V0.399994H65.866ZM66.866 89H56.626V91H66.866V89ZM97.082 90H96.082V91H97.082V90ZM97.082 10.384H98.082V9.384H97.082V10.384ZM74.554 10.384H73.554V11.384H74.554V10.384ZM74.554 0.399994V-0.600006H73.554V0.399994H74.554ZM129.978 0.399994H130.978V-0.600006H129.978V0.399994ZM129.978 10.384V11.384H130.978V10.384H129.978ZM107.322 10.384V9.384H106.322V10.384H107.322ZM107.322 90V91H108.322V90H107.322ZM98.082 90V10.384H96.082V90H98.082ZM97.082 9.384H74.554V11.384H97.082V9.384ZM75.554 10.384V0.399994H73.554V10.384H75.554ZM74.554 1.39999H129.978V-0.600006H74.554V1.39999ZM128.978 0.399994V10.384H130.978V0.399994H128.978ZM129.978 9.384H107.322V11.384H129.978V9.384ZM106.322 10.384V90H108.322V10.384H106.322ZM107.322 89H97.082V91H107.322V89ZM189.594 90L188.746 90.5303L189.04 91H189.594V90ZM137.626 6.92799H136.626V7.21502L136.778 7.45834L137.626 6.92799ZM137.626 0.399994V-0.600006H136.626V0.399994H137.626ZM146.458 0.399994L147.306 -0.130384L147.012 -0.600006H146.458V0.399994ZM194.586 77.328H195.586V77.041L195.434 76.7976L194.586 77.328ZM194.586 90V91H195.586V90H194.586ZM137.626 90H136.626V91H137.626V90ZM137.626 19.088V18.088H136.626V19.088H137.626ZM138.65 19.088L139.5 18.5606L139.206 18.088H138.65V19.088ZM147.866 33.936H148.866V33.6509L148.716 33.4086L147.866 33.936ZM147.866 90V91H148.866V90H147.866ZM193.562 65.04L192.708 65.5609L193.001 66.04H193.562V65.04ZM184.346 49.936H183.346V50.217L183.492 50.4569L184.346 49.936ZM184.346 0.399994V-0.600006H183.346V0.399994H184.346ZM194.586 0.399994H195.586V-0.600006H194.586V0.399994ZM194.586 65.04V66.04H195.586V65.04H194.586ZM190.442 89.4697L138.474 6.39764L136.778 7.45834L188.746 90.5303L190.442 89.4697ZM138.626 6.92799V0.399994H136.626V6.92799H138.626ZM137.626 1.39999H146.458V-0.600006H137.626V1.39999ZM145.61 0.930372L193.738 77.8584L195.434 76.7976L147.306 -0.130384L145.61 0.930372ZM193.586 77.328V90H195.586V77.328H193.586ZM194.586 89H189.594V91H194.586V89ZM138.626 90V19.088H136.626V90H138.626ZM137.626 20.088H138.65V18.088H137.626V20.088ZM137.8 19.6154L147.016 34.4634L148.716 33.4086L139.5 18.5606L137.8 19.6154ZM146.866 33.936V90H148.866V33.936H146.866ZM147.866 89H137.626V91H147.866V89ZM194.416 64.5191L185.2 49.4151L183.492 50.4569L192.708 65.5609L194.416 64.5191ZM185.346 49.936V0.399994H183.346V49.936H185.346ZM184.346 1.39999H194.586V-0.600006H184.346V1.39999ZM193.586 0.399994V65.04H195.586V0.399994H193.586ZM194.586 64.04H193.562V66.04H194.586V64.04ZM205.248 90H204.248V91H205.248V90ZM205.248 0.399994V-0.600006H204.248V0.399994H205.248ZM251.84 0.399994H252.84V-0.600006H251.84V0.399994ZM251.84 10.512V11.512H252.84V10.512H251.84ZM215.488 10.512V9.51199H214.488V10.512H215.488ZM215.488 40.336H214.488V41.336H215.488V40.336ZM239.808 40.336H240.808V39.336H239.808V40.336ZM239.808 50.448V51.448H240.808V50.448H239.808ZM215.488 50.448V49.448H214.488V50.448H215.488ZM215.488 79.888H214.488V80.888H215.488V79.888ZM251.84 79.888H252.84V78.888H251.84V79.888ZM251.84 90V91H252.84V90H251.84ZM206.248 90V0.399994H204.248V90H206.248ZM205.248 1.39999H251.84V-0.600006H205.248V1.39999ZM250.84 0.399994V10.512H252.84V0.399994H250.84ZM251.84 9.51199H215.488V11.512H251.84V9.51199ZM214.488 10.512V40.336H216.488V10.512H214.488ZM215.488 41.336H239.808V39.336H215.488V41.336ZM238.808 40.336V50.448H240.808V40.336H238.808ZM239.808 49.448H215.488V51.448H239.808V49.448ZM214.488 50.448V79.888H216.488V50.448H214.488ZM215.488 80.888H251.84V78.888H215.488V80.888ZM250.84 79.888V90H252.84V79.888H250.84ZM251.84 89H205.248V91H251.84V89ZM290.283 90.384H289.283V91.384H290.283V90.384ZM290.283 80.784V79.784H289.283V80.784H290.283ZM295.019 79.632L295.413 80.5511L295.423 80.5469L295.433 80.5424L295.019 79.632ZM300.395 76.176L301.043 76.9379L301.053 76.9288L301.064 76.9193L300.395 76.176ZM304.619 70.8L303.755 70.2961L303.747 70.3098L303.74 70.3237L304.619 70.8ZM303.979 56.464L304.75 55.8271L303.979 56.464ZM297.707 51.728L297.272 52.6286L297.284 52.6342L297.707 51.728ZM289.899 48.912L289.656 49.8821L289.899 48.912ZM282.219 47.248L282.002 48.2242L282.023 48.2287L282.043 48.2324L282.219 47.248ZM276.971 45.84L277.307 44.8982L277.304 44.897L276.971 45.84ZM269.035 41.744L268.435 42.544L268.444 42.551L268.454 42.5577L269.035 41.744ZM263.275 34.832L262.375 35.2683L262.38 35.2792L262.386 35.29L263.275 34.832ZM270.059 5.904L270.663 6.70069L270.059 5.904ZM277.611 1.808L277.927 2.75668L277.941 2.75199L277.955 2.74688L277.611 1.808ZM284.011 0.399994H285.011V-0.600006H284.011V0.399994ZM284.011 10.128L284.111 11.123L285.011 11.033V10.128H284.011ZM280.555 11.152L280.888 12.095L280.912 12.0864L280.936 12.0767L280.555 11.152ZM276.203 13.712L275.567 12.9401L275.556 12.9496L275.544 12.9594L276.203 13.712ZM272.619 18.32L271.741 17.8411L271.737 17.8485L271.733 17.856L272.619 18.32ZM273.131 30.992L272.346 31.6116L272.356 31.624L272.366 31.6361L273.131 30.992ZM278.379 34.96L277.946 35.8615L278.379 34.96ZM285.419 37.648L285.132 38.6059L285.14 38.6083L285.419 37.648ZM293.227 39.696L293 40.6699L293.007 40.6714L293.227 39.696ZM300.267 41.744L300.624 40.8099L300.618 40.8077L300.267 41.744ZM308.331 46.096L307.744 46.9059L307.754 46.9127L307.763 46.9192L308.331 46.096ZM314.347 52.88L315.225 52.4011L314.347 52.88ZM313.067 76.688L313.926 77.1998L313.931 77.1919L313.067 76.688ZM303.467 86.544L304.005 87.3869L303.467 86.544ZM284.011 90.384V91.384H285.011V90.384H284.011ZM274.283 88.208L274.73 87.3136L274.283 88.208ZM266.731 82.704L265.996 83.3823L266.003 83.3898L266.01 83.3971L266.731 82.704ZM261.867 75.92L260.966 76.3538L260.972 76.3672L260.979 76.3803L261.867 75.92ZM260.203 69.776L259.867 68.834L259.203 69.0706V69.776H260.203ZM269.547 66.448L270.533 66.2836L270.337 65.1051L269.211 65.506L269.547 66.448ZM272.747 74.128L273.531 73.5073L272.747 74.128ZM278.251 78.864L277.775 79.7433L277.789 79.7511L277.804 79.7584L278.251 78.864ZM284.011 80.784H285.011V79.9167L284.152 79.7941L284.011 80.784ZM303.467 22.288L302.484 22.4723L302.693 23.5857L303.772 23.2404L303.467 22.288ZM300.395 15.632L299.636 16.2828L299.644 16.292L299.652 16.301L300.395 15.632ZM295.275 11.664L294.811 12.5498L294.836 12.5628L294.861 12.5744L295.275 11.664ZM290.283 10.128H289.283V11.074L290.228 11.1265L290.283 10.128ZM290.283 0.399994V-0.600006H289.283V0.399994H290.283ZM299.627 2.448L299.18 3.34243L299.627 2.448ZM306.667 7.696L305.931 8.37305L305.938 8.38055L305.945 8.38791L306.667 7.696ZM311.147 13.968L310.245 14.4007L310.256 14.4228L310.268 14.4443L311.147 13.968ZM313.067 19.216L313.372 20.1684L314.156 19.9173L314.06 19.0992L313.067 19.216ZM291.283 90.384V80.784H289.283V90.384H291.283ZM290.283 81.784C291.829 81.784 293.546 81.3514 295.413 80.5511L294.625 78.7129C292.908 79.4486 291.468 79.784 290.283 79.784V81.784ZM295.433 80.5424C297.402 79.6475 299.271 78.4436 301.043 76.9379L299.747 75.4141C298.105 76.8098 296.391 77.9098 294.605 78.7216L295.433 80.5424ZM301.064 76.9193C302.857 75.3058 304.335 73.4232 305.498 71.2763L303.74 70.3237C302.684 72.2728 301.347 73.9742 299.726 75.4327L301.064 76.9193ZM305.483 71.3039C306.774 69.0908 307.411 66.6105 307.411 63.888H305.411C305.411 66.2855 304.854 68.4132 303.755 70.2961L305.483 71.3039ZM307.411 63.888C307.411 60.7111 306.544 57.9991 304.75 55.8271L303.208 57.1009C304.656 58.8543 305.411 61.0916 305.411 63.888H307.411ZM304.75 55.8271C303.024 53.7379 300.81 52.0723 298.13 50.8218L297.284 52.6342C299.724 53.773 301.691 55.2648 303.208 57.1009L304.75 55.8271ZM298.142 50.8274C295.604 49.6024 292.937 48.6407 290.142 47.9419L289.656 49.8821C292.322 50.5486 294.861 51.4643 297.272 52.6285L298.142 50.8274ZM290.142 47.9419C287.392 47.2545 284.81 46.6948 282.395 46.2636L282.043 48.2324C284.407 48.6545 286.944 49.2041 289.656 49.8821L290.142 47.9419ZM282.436 46.2718C280.144 45.7626 278.443 45.3038 277.307 44.8983L276.635 46.7817C277.888 47.2295 279.686 47.7094 282.002 48.2242L282.436 46.2718ZM277.304 44.897C274.487 43.9027 271.926 42.5798 269.616 40.9303L268.454 42.5577C270.923 44.3215 273.653 45.7293 276.638 46.783L277.304 44.897ZM269.635 40.944C267.374 39.2482 265.55 37.064 264.164 34.374L262.386 35.29C263.902 38.232 265.917 40.6558 268.435 42.544L269.635 40.944ZM264.175 34.3957C262.891 31.7484 262.227 28.4927 262.227 24.592H260.227C260.227 28.7126 260.928 32.2836 262.375 35.2683L264.175 34.3957ZM262.227 24.592C262.227 20.2808 263.056 16.703 264.661 13.8136L262.913 12.8424C261.105 16.097 260.227 20.0285 260.227 24.592H262.227ZM264.661 13.8136C266.309 10.847 268.313 8.48383 270.663 6.70069L269.455 5.10731C266.856 7.07883 264.678 9.665 262.913 12.8424L264.661 13.8136ZM270.663 6.70069C273.064 4.87963 275.485 3.57066 277.927 2.75668L277.295 0.859316C274.617 1.752 272.003 3.1737 269.455 5.10731L270.663 6.70069ZM277.955 2.74688C280.463 1.82742 282.471 1.39999 284.011 1.39999V-0.600006C282.138 -0.600006 279.879 -0.0887642 277.267 0.869123L277.955 2.74688ZM283.011 0.399994V10.128H285.011V0.399994H283.011ZM283.911 9.13296C282.912 9.23287 281.653 9.61823 280.174 10.2273L280.936 12.0767C282.358 11.4911 283.403 11.1938 284.111 11.123L283.911 9.13296ZM280.222 10.209C278.64 10.7674 277.089 11.687 275.567 12.9401L276.839 14.4839C278.219 13.3476 279.569 12.5606 280.888 12.095L280.222 10.209ZM275.544 12.9594C274.076 14.2442 272.812 15.8784 271.741 17.8411L273.497 18.7989C274.474 17.0069 275.599 15.5691 276.862 14.4646L275.544 12.9594ZM271.733 17.856C270.702 19.8242 270.211 22.1683 270.211 24.848H272.211C272.211 22.4077 272.658 20.3998 273.505 18.784L271.733 17.856ZM270.211 24.848C270.211 27.5014 270.901 29.7808 272.346 31.6116L273.916 30.3724C272.801 28.9606 272.211 27.1439 272.211 24.848H270.211ZM272.366 31.6361C273.833 33.3778 275.7 34.7834 277.946 35.8615L278.812 34.0585C276.791 33.0886 275.16 31.8488 273.896 30.3479L272.366 31.6361ZM277.946 35.8615C280.132 36.9107 282.528 37.8248 285.132 38.6058L285.706 36.6902C283.19 35.9352 280.893 35.0573 278.812 34.0585L277.946 35.8615ZM285.14 38.6083C287.802 39.3811 290.422 40.0683 293 40.6698L293.454 38.7222C290.912 38.1291 288.327 37.4509 285.698 36.6877L285.14 38.6083ZM293.007 40.6714C295.618 41.261 297.919 41.9316 299.916 42.6803L300.618 40.8077C298.519 40.0204 296.127 39.3257 293.447 38.7206L293.007 40.6714ZM299.91 42.6781C302.731 43.7567 305.342 45.166 307.744 46.9059L308.918 45.2861C306.371 43.442 303.606 41.9499 300.624 40.8099L299.91 42.6781ZM307.763 46.9192C310.1 48.531 312.003 50.6709 313.469 53.3588L315.225 52.4011C313.619 49.4571 311.511 47.0743 308.899 45.2728L307.763 46.9192ZM313.469 53.3588C314.901 55.9849 315.651 59.3902 315.651 63.632H317.651C317.651 59.1698 316.865 55.4071 315.225 52.4011L313.469 53.3588ZM315.651 63.632C315.651 68.0576 314.506 72.2364 312.203 76.1841L313.931 77.1919C316.407 72.9476 317.651 68.4224 317.651 63.632H315.651ZM312.208 76.1762C309.9 80.0503 306.811 83.2233 302.929 85.7011L304.005 87.3869C308.144 84.7447 311.455 81.347 313.926 77.1998L312.208 76.1762ZM302.929 85.7011C299.08 88.158 294.872 89.384 290.283 89.384V91.384C295.251 91.384 299.833 90.05 304.005 87.3869L302.929 85.7011ZM284.011 89.384C280.566 89.384 277.479 88.6878 274.73 87.3136L273.836 89.1024C276.89 90.6295 280.288 91.384 284.011 91.384V89.384ZM274.73 87.3136C271.925 85.9111 269.502 84.143 267.452 82.0109L266.01 83.3971C268.227 85.7023 270.838 87.6035 273.836 89.1024L274.73 87.3136ZM267.466 82.0257C265.469 79.8622 263.902 77.6729 262.755 75.4597L260.979 76.3803C262.221 78.7751 263.897 81.1085 265.996 83.3823L267.466 82.0257ZM262.768 75.4862C261.698 73.2637 261.203 71.3678 261.203 69.776H259.203C259.203 71.7682 259.817 73.9683 260.966 76.3538L262.768 75.4862ZM260.539 70.718L269.883 67.39L269.211 65.506L259.867 68.834L260.539 70.718ZM268.561 66.6124C269.095 69.8191 270.218 72.5448 271.963 74.7487L273.531 73.5073C272.033 71.6152 271.023 69.2209 270.533 66.2836L268.561 66.6124ZM271.963 74.7487C273.658 76.8899 275.594 78.5621 277.775 79.7433L278.727 77.9847C276.812 76.9473 275.079 75.4621 273.531 73.5073L271.963 74.7487ZM277.804 79.7584C279.924 80.8184 281.947 81.4993 283.87 81.7739L284.152 79.7941C282.491 79.5567 280.674 78.9576 278.698 77.9696L277.804 79.7584ZM283.011 80.784V90.384H285.011V80.784H283.011ZM304.45 22.1037C303.911 19.2306 302.821 16.8323 301.138 14.963L299.652 16.301C301.041 17.845 301.999 19.8841 302.484 22.4723L304.45 22.1037ZM301.154 14.9812C299.537 13.0945 297.717 11.6754 295.689 10.7536L294.861 12.5744C296.588 13.3592 298.181 14.5855 299.636 16.2828L301.154 14.9812ZM295.739 10.7782C293.858 9.79314 292.055 9.22488 290.338 9.12954L290.228 11.1265C291.583 11.2018 293.108 11.6575 294.811 12.5498L295.739 10.7782ZM291.283 10.128V0.399994H289.283V10.128H291.283ZM290.283 1.39999C293.649 1.39999 296.607 2.05602 299.18 3.34243L300.074 1.55357C297.186 0.109304 293.914 -0.600006 290.283 -0.600006V1.39999ZM299.18 3.34243C301.808 4.65636 304.055 6.33379 305.931 8.37305L307.403 7.01894C305.354 4.79153 302.908 2.9703 300.074 1.55357L299.18 3.34243ZM305.945 8.38791C307.849 10.3742 309.275 12.3795 310.245 14.4007L312.049 13.5353C310.971 11.2898 309.411 9.11375 307.389 7.00409L305.945 8.38791ZM310.268 14.4443C311.348 16.4392 311.924 18.0606 312.074 19.3328L314.06 19.0992C313.868 17.4701 313.164 15.5927 312.026 13.4917L310.268 14.4443ZM312.762 18.2636L303.162 21.3356L303.772 23.2404L313.372 20.1684L312.762 18.2636ZM353.408 90.384H352.408V91.384H353.408V90.384ZM353.408 80.784V79.784H352.408V80.784H353.408ZM358.144 79.632L358.538 80.5511L358.548 80.5469L358.558 80.5424L358.144 79.632ZM363.52 76.176L364.168 76.9379L364.178 76.9288L364.189 76.9193L363.52 76.176ZM367.744 70.8L366.88 70.2961L366.872 70.3098L366.865 70.3237L367.744 70.8ZM367.104 56.464L367.875 55.8271L367.104 56.464ZM360.832 51.728L360.397 52.6286L360.409 52.6342L360.832 51.728ZM353.024 48.912L352.781 49.8821L353.024 48.912ZM345.344 47.248L345.127 48.2242L345.148 48.2287L345.168 48.2324L345.344 47.248ZM340.096 45.84L340.432 44.8982L340.429 44.897L340.096 45.84ZM332.16 41.744L331.56 42.544L331.569 42.551L331.579 42.5577L332.16 41.744ZM326.4 34.832L325.5 35.2683L325.505 35.2792L325.511 35.29L326.4 34.832ZM333.184 5.904L333.788 6.70069L333.184 5.904ZM340.736 1.808L341.052 2.75668L341.066 2.75199L341.08 2.74688L340.736 1.808ZM347.136 0.399994H348.136V-0.600006H347.136V0.399994ZM347.136 10.128L347.236 11.123L348.136 11.033V10.128H347.136ZM343.68 11.152L344.013 12.095L344.037 12.0864L344.061 12.0767L343.68 11.152ZM339.328 13.712L338.692 12.9401L338.681 12.9496L338.669 12.9594L339.328 13.712ZM335.744 18.32L334.866 17.8411L334.862 17.8485L334.858 17.856L335.744 18.32ZM336.256 30.992L335.471 31.6116L335.481 31.624L335.491 31.6361L336.256 30.992ZM341.504 34.96L341.071 35.8615L341.504 34.96ZM348.544 37.648L348.257 38.6059L348.265 38.6083L348.544 37.648ZM356.352 39.696L356.125 40.6699L356.132 40.6714L356.352 39.696ZM363.392 41.744L363.749 40.8099L363.743 40.8077L363.392 41.744ZM371.456 46.096L370.869 46.9059L370.879 46.9127L370.888 46.9192L371.456 46.096ZM377.472 52.88L378.35 52.4011L377.472 52.88ZM376.192 76.688L377.051 77.1998L377.056 77.1919L376.192 76.688ZM366.592 86.544L367.13 87.3869L366.592 86.544ZM347.136 90.384V91.384H348.136V90.384H347.136ZM337.408 88.208L337.855 87.3136L337.408 88.208ZM329.856 82.704L329.121 83.3823L329.128 83.3898L329.135 83.3971L329.856 82.704ZM324.992 75.92L324.091 76.3538L324.097 76.3672L324.104 76.3803L324.992 75.92ZM323.328 69.776L322.992 68.834L322.328 69.0706V69.776H323.328ZM332.672 66.448L333.658 66.2836L333.462 65.1051L332.336 65.506L332.672 66.448ZM335.872 74.128L336.656 73.5073L335.872 74.128ZM341.376 78.864L340.9 79.7433L340.914 79.7511L340.929 79.7584L341.376 78.864ZM347.136 80.784H348.136V79.9167L347.277 79.7941L347.136 80.784ZM366.592 22.288L365.609 22.4723L365.818 23.5857L366.897 23.2404L366.592 22.288ZM363.52 15.632L362.761 16.2828L362.769 16.292L362.777 16.301L363.52 15.632ZM358.4 11.664L357.936 12.5498L357.961 12.5628L357.986 12.5744L358.4 11.664ZM353.408 10.128H352.408V11.074L353.353 11.1265L353.408 10.128ZM353.408 0.399994V-0.600006H352.408V0.399994H353.408ZM362.752 2.448L362.305 3.34243L362.752 2.448ZM369.792 7.696L369.056 8.37305L369.063 8.38055L369.07 8.38791L369.792 7.696ZM374.272 13.968L373.37 14.4007L373.381 14.4228L373.393 14.4443L374.272 13.968ZM376.192 19.216L376.497 20.1684L377.281 19.9173L377.185 19.0992L376.192 19.216ZM354.408 90.384V80.784H352.408V90.384H354.408ZM353.408 81.784C354.954 81.784 356.671 81.3514 358.538 80.5511L357.75 78.7129C356.033 79.4486 354.593 79.784 353.408 79.784V81.784ZM358.558 80.5424C360.527 79.6475 362.396 78.4436 364.168 76.9379L362.872 75.4141C361.23 76.8098 359.516 77.9098 357.73 78.7216L358.558 80.5424ZM364.189 76.9193C365.982 75.3058 367.46 73.4232 368.623 71.2763L366.865 70.3237C365.809 72.2728 364.472 73.9742 362.851 75.4327L364.189 76.9193ZM368.608 71.3039C369.899 69.0908 370.536 66.6105 370.536 63.888H368.536C368.536 66.2855 367.979 68.4132 366.88 70.2961L368.608 71.3039ZM370.536 63.888C370.536 60.7111 369.669 57.9991 367.875 55.8271L366.333 57.1009C367.781 58.8543 368.536 61.0916 368.536 63.888H370.536ZM367.875 55.8271C366.149 53.7379 363.935 52.0723 361.255 50.8218L360.409 52.6342C362.849 53.773 364.816 55.2648 366.333 57.1009L367.875 55.8271ZM361.267 50.8274C358.729 49.6024 356.062 48.6407 353.267 47.9419L352.781 49.8821C355.447 50.5486 357.986 51.4643 360.397 52.6285L361.267 50.8274ZM353.267 47.9419C350.517 47.2545 347.935 46.6948 345.52 46.2636L345.168 48.2324C347.532 48.6545 350.069 49.2041 352.781 49.8821L353.267 47.9419ZM345.561 46.2718C343.269 45.7626 341.568 45.3038 340.432 44.8983L339.76 46.7817C341.013 47.2295 342.811 47.7094 345.127 48.2242L345.561 46.2718ZM340.429 44.897C337.612 43.9027 335.051 42.5798 332.741 40.9303L331.579 42.5577C334.048 44.3215 336.778 45.7293 339.763 46.783L340.429 44.897ZM332.76 40.944C330.499 39.2482 328.675 37.064 327.289 34.374L325.511 35.29C327.027 38.232 329.042 40.6558 331.56 42.544L332.76 40.944ZM327.3 34.3957C326.016 31.7484 325.352 28.4927 325.352 24.592H323.352C323.352 28.7126 324.053 32.2836 325.5 35.2683L327.3 34.3957ZM325.352 24.592C325.352 20.2808 326.181 16.703 327.786 13.8136L326.038 12.8424C324.23 16.097 323.352 20.0285 323.352 24.592H325.352ZM327.786 13.8136C329.434 10.847 331.438 8.48383 333.788 6.70069L332.58 5.10731C329.981 7.07883 327.803 9.665 326.038 12.8424L327.786 13.8136ZM333.788 6.70069C336.189 4.87963 338.61 3.57066 341.052 2.75668L340.42 0.859316C337.742 1.752 335.128 3.1737 332.58 5.10731L333.788 6.70069ZM341.08 2.74688C343.588 1.82742 345.596 1.39999 347.136 1.39999V-0.600006C345.263 -0.600006 343.004 -0.0887642 340.392 0.869123L341.08 2.74688ZM346.136 0.399994V10.128H348.136V0.399994H346.136ZM347.036 9.13296C346.037 9.23287 344.778 9.61823 343.299 10.2273L344.061 12.0767C345.483 11.4911 346.528 11.1938 347.236 11.123L347.036 9.13296ZM343.347 10.209C341.765 10.7674 340.214 11.687 338.692 12.9401L339.964 14.4839C341.344 13.3476 342.694 12.5606 344.013 12.095L343.347 10.209ZM338.669 12.9594C337.201 14.2442 335.937 15.8784 334.866 17.8411L336.622 18.7989C337.599 17.0069 338.724 15.5691 339.987 14.4646L338.669 12.9594ZM334.858 17.856C333.827 19.8242 333.336 22.1683 333.336 24.848H335.336C335.336 22.4077 335.783 20.3998 336.63 18.784L334.858 17.856ZM333.336 24.848C333.336 27.5014 334.026 29.7808 335.471 31.6116L337.041 30.3724C335.926 28.9606 335.336 27.1439 335.336 24.848H333.336ZM335.491 31.6361C336.958 33.3778 338.825 34.7834 341.071 35.8615L341.937 34.0585C339.916 33.0886 338.285 31.8488 337.021 30.3479L335.491 31.6361ZM341.071 35.8615C343.257 36.9107 345.653 37.8248 348.257 38.6058L348.831 36.6902C346.315 35.9352 344.018 35.0573 341.937 34.0585L341.071 35.8615ZM348.265 38.6083C350.927 39.3811 353.547 40.0683 356.125 40.6698L356.579 38.7222C354.037 38.1291 351.452 37.4509 348.823 36.6877L348.265 38.6083ZM356.132 40.6714C358.743 41.261 361.044 41.9316 363.041 42.6803L363.743 40.8077C361.644 40.0204 359.252 39.3257 356.572 38.7206L356.132 40.6714ZM363.035 42.6781C365.856 43.7567 368.467 45.166 370.869 46.9059L372.043 45.2861C369.496 43.442 366.731 41.9499 363.749 40.8099L363.035 42.6781ZM370.888 46.9192C373.225 48.531 375.128 50.6709 376.594 53.3588L378.35 52.4011C376.744 49.4571 374.636 47.0743 372.024 45.2728L370.888 46.9192ZM376.594 53.3588C378.026 55.9849 378.776 59.3902 378.776 63.632H380.776C380.776 59.1698 379.99 55.4071 378.35 52.4011L376.594 53.3588ZM378.776 63.632C378.776 68.0576 377.631 72.2364 375.328 76.1841L377.056 77.1919C379.532 72.9476 380.776 68.4224 380.776 63.632H378.776ZM375.333 76.1762C373.025 80.0503 369.936 83.2233 366.054 85.7011L367.13 87.3869C371.269 84.7447 374.58 81.347 377.051 77.1998L375.333 76.1762ZM366.054 85.7011C362.205 88.158 357.997 89.384 353.408 89.384V91.384C358.376 91.384 362.958 90.05 367.13 87.3869L366.054 85.7011ZM347.136 89.384C343.691 89.384 340.604 88.6878 337.855 87.3136L336.961 89.1024C340.015 90.6295 343.413 91.384 347.136 91.384V89.384ZM337.855 87.3136C335.05 85.9111 332.627 84.143 330.577 82.0109L329.135 83.3971C331.352 85.7023 333.963 87.6035 336.961 89.1024L337.855 87.3136ZM330.591 82.0257C328.594 79.8622 327.027 77.6729 325.88 75.4597L324.104 76.3803C325.346 78.7751 327.022 81.1085 329.121 83.3823L330.591 82.0257ZM325.893 75.4862C324.823 73.2637 324.328 71.3678 324.328 69.776H322.328C322.328 71.7682 322.942 73.9683 324.091 76.3538L325.893 75.4862ZM323.664 70.718L333.008 67.39L332.336 65.506L322.992 68.834L323.664 70.718ZM331.686 66.6124C332.22 69.8191 333.343 72.5448 335.088 74.7487L336.656 73.5073C335.158 71.6152 334.148 69.2209 333.658 66.2836L331.686 66.6124ZM335.088 74.7487C336.783 76.8899 338.719 78.5621 340.9 79.7433L341.852 77.9847C339.937 76.9473 338.204 75.4621 336.656 73.5073L335.088 74.7487ZM340.929 79.7584C343.049 80.8184 345.072 81.4993 346.995 81.7739L347.277 79.7941C345.616 79.5567 343.799 78.9576 341.823 77.9696L340.929 79.7584ZM346.136 80.784V90.384H348.136V80.784H346.136ZM367.575 22.1037C367.036 19.2306 365.946 16.8323 364.263 14.963L362.777 16.301C364.166 17.845 365.124 19.8841 365.609 22.4723L367.575 22.1037ZM364.279 14.9812C362.662 13.0945 360.842 11.6754 358.814 10.7536L357.986 12.5744C359.713 13.3592 361.306 14.5855 362.761 16.2828L364.279 14.9812ZM358.864 10.7782C356.983 9.79314 355.18 9.22488 353.463 9.12954L353.353 11.1265C354.708 11.2018 356.233 11.6575 357.936 12.5498L358.864 10.7782ZM354.408 10.128V0.399994H352.408V10.128H354.408ZM353.408 1.39999C356.774 1.39999 359.732 2.05602 362.305 3.34243L363.199 1.55357C360.311 0.109304 357.039 -0.600006 353.408 -0.600006V1.39999ZM362.305 3.34243C364.933 4.65636 367.18 6.33379 369.056 8.37305L370.528 7.01894C368.479 4.79153 366.033 2.9703 363.199 1.55357L362.305 3.34243ZM369.07 8.38791C370.974 10.3742 372.4 12.3795 373.37 14.4007L375.174 13.5353C374.096 11.2898 372.536 9.11375 370.514 7.00409L369.07 8.38791ZM373.393 14.4443C374.473 16.4392 375.049 18.0606 375.199 19.3328L377.185 19.0992C376.993 17.4701 376.289 15.5927 375.151 13.4917L373.393 14.4443ZM375.887 18.2636L366.287 21.3356L366.897 23.2404L376.497 20.1684L375.887 18.2636Z" fill="#FFB905" mask="url(#path-1-outside-1_359_3022)"/>
</g>
</svg>
