<svg width="60" height="60" viewBox="0 0 60 60" fill="none" xmlns="http://www.w3.org/2000/svg">
<circle cx="29.8737" cy="29.8737" r="29.3734" transform="rotate(-180 29.8737 29.8737)" fill="#FFB905" stroke="black"/>
<path d="M26.1435 19.9993L26.144 19.9999L34.7931 29.4259C34.7932 29.4259 34.7932 29.426 34.7933 29.4261C34.8527 29.491 34.8859 29.5513 34.904 29.6073L34.9048 29.6095C34.9299 29.6858 34.9443 29.7729 34.9443 29.8739C34.9443 29.9749 34.9299 30.062 34.9047 30.1383L34.904 30.1406C34.8859 30.1966 34.8526 30.2569 34.7931 30.322L26.1435 39.7766C26 39.9334 25.8351 40.0068 25.6141 40.0068C25.404 40.0068 25.2272 39.9323 25.059 39.7485C24.8851 39.5584 24.8051 39.351 24.8051 39.1041C24.8051 38.8572 24.8851 38.6497 25.059 38.4596L32.6049 30.2114L32.9137 29.8739L32.6049 29.5364L25.059 21.2882C24.9108 21.1262 24.8308 20.9273 24.8308 20.6584C24.8308 20.3982 24.9132 20.1868 25.0847 19.9993C25.2583 19.8095 25.4286 19.741 25.6141 19.741C25.7995 19.741 25.9699 19.8095 26.1435 19.9993ZM35.3797 29.4531L35.3796 29.4531L35.3797 29.4531Z" fill="black" stroke="black"/>
</svg>
