<svg width="60" height="60" viewBox="0 0 60 60" fill="none" xmlns="http://www.w3.org/2000/svg">
<circle cx="29.8734" cy="29.8734" r="29.3734" fill="#FFB905" stroke="black"/>
<path d="M33.6036 39.7477L33.6031 39.7472L24.954 30.3212C24.9539 30.3211 24.9539 30.3211 24.9538 30.321C24.8944 30.256 24.8612 30.1958 24.8431 30.1398L24.8423 30.1376C24.8172 30.0612 24.8027 29.9742 24.8027 29.8731C24.8027 29.7721 24.8172 29.685 24.8423 29.6087L24.8431 29.6065C24.8612 29.5505 24.8945 29.4901 24.954 29.4251L33.6036 19.9705C33.7471 19.8137 33.912 19.7402 34.133 19.7402C34.343 19.7402 34.5199 19.8148 34.6881 19.9986C34.8619 20.1886 34.942 20.3961 34.942 20.643C34.942 20.8899 34.8619 21.0974 34.6881 21.2874L27.1421 29.5356L26.8334 29.8731L27.1421 30.2106L34.6881 38.4589C34.8363 38.6209 34.9163 38.8198 34.9163 39.0887C34.9163 39.3489 34.8339 39.5603 34.6624 39.7477C34.4888 39.9375 34.3184 40.0061 34.133 40.0061C33.9475 40.0061 33.7772 39.9375 33.6036 39.7477ZM24.3674 30.294L24.3675 30.2939L24.3674 30.294Z" fill="black" stroke="black"/>
</svg>
