<svg width="33" height="33" viewBox="0 0 33 33" fill="none" xmlns="http://www.w3.org/2000/svg">
<g clip-path="url(#clip0_359_3015)">
<rect x="3" y="2" width="26" height="29" fill="white"/>
<path d="M29.9062 0H3.09375C1.39219 0 0 1.39219 0 3.09375V29.9062C0 31.6078 1.39219 33 3.09375 33H29.9062C31.6078 33 33 31.6078 33 29.9062V3.09375C33 1.39219 31.6078 0 29.9062 0ZM26.7279 23.1L23.7105 23.1454C23.7105 23.1454 23.0588 23.2753 22.209 22.6875C21.0808 21.9141 20.0166 19.8969 19.1854 20.1609C18.348 20.4249 18.3727 22.2358 18.3727 22.2358C18.3727 22.2358 18.3789 22.6236 18.1851 22.8277C17.9788 23.0526 17.5663 23.0979 17.5663 23.0979H16.2195C16.2195 23.0979 13.2412 23.2794 10.6177 20.5446C7.755 17.5663 5.2305 11.6572 5.2305 11.6572C5.2305 11.6572 5.082 11.2695 5.24288 11.0839C5.42231 10.8714 5.907 10.8591 5.907 10.8591L9.13687 10.8405C9.13687 10.8405 9.44006 10.8921 9.65869 11.0529C9.84019 11.1829 9.93506 11.4324 9.93506 11.4324C9.93506 11.4324 10.4569 12.7545 11.1478 13.9466C12.4946 16.2731 13.1257 16.7826 13.5836 16.5371C14.2478 16.1762 14.0477 13.2433 14.0477 13.2433C14.0477 13.2433 14.0601 12.1791 13.7136 11.7088C13.4434 11.3417 12.9339 11.2324 12.7153 11.2056C12.5338 11.1788 12.8308 10.7601 13.2186 10.5682C13.7981 10.2836 14.8232 10.2651 16.0359 10.2774C16.9764 10.2836 17.2549 10.3476 17.622 10.4321C18.7378 10.7023 18.3562 11.7397 18.3562 14.2292C18.3562 15.0294 18.2139 16.1494 18.7873 16.5165C19.0328 16.6774 19.6371 16.5413 21.153 13.9714C21.8687 12.7524 22.4091 11.3231 22.4091 11.3231C22.4091 11.3231 22.5246 11.0653 22.7061 10.956C22.8937 10.8467 23.1454 10.8797 23.1454 10.8797L26.5423 10.8611C26.5423 10.8611 27.5612 10.7394 27.7283 11.2035C27.9015 11.6861 27.3488 12.8143 25.9628 14.6644C23.6878 17.7004 23.43 17.4157 25.3254 19.1689C27.1301 20.8457 27.5034 21.6624 27.5694 21.7656C28.3037 23.0031 26.7321 23.1 26.7321 23.1H26.7279Z" fill="#4D60C2"/>
</g>
<defs>
<clipPath id="clip0_359_3015">
<rect width="33" height="33" fill="white"/>
</clipPath>
</defs>
</svg>
