<svg width="99" height="79" viewBox="0 0 99 79" fill="none" xmlns="http://www.w3.org/2000/svg">
<path d="M0.476 25.964V0.799998H13.58V4.616H4.364V11.564H10.196V15.416H4.364V25.964H0.476ZM16.6597 26V6.308H20.3677V26H16.6597ZM18.4597 4.652C17.9077 4.652 17.4157 4.448 16.9837 4.04C16.5757 3.632 16.3717 3.152 16.3717 2.6C16.3717 2.048 16.5757 1.568 16.9837 1.16C17.4157 0.751999 17.9077 0.547999 18.4597 0.547999C19.0357 0.547999 19.5277 0.751999 19.9357 1.16C20.3437 1.568 20.5477 2.048 20.5477 2.6C20.5477 3.152 20.3437 3.632 19.9357 4.04C19.5277 4.448 19.0357 4.652 18.4597 4.652ZM31.1663 26C29.6063 26 28.3943 25.736 27.5303 25.208C26.6903 24.656 26.1023 23.9 25.7663 22.94C25.4303 21.98 25.2623 20.852 25.2623 19.556V9.836H22.8143V6.272H25.2623V0.403999H28.9703V6.272H31.3103V9.872H28.9703V19.88C28.9703 20.504 29.1143 21.056 29.4023 21.536C29.7143 21.992 30.3383 22.22 31.2743 22.22H31.9583L32.8223 26H31.1663ZM34.3993 12.392C34.3993 11.552 34.5433 10.76 34.8313 10.016C35.1193 9.248 35.5393 8.576 36.0913 8C36.6433 7.4 37.3033 6.932 38.0713 6.596C38.8633 6.26 39.7393 6.092 40.6993 6.092V9.692C40.2193 9.692 39.7753 9.824 39.3673 10.088C38.9833 10.328 38.6713 10.664 38.4313 11.096C38.1913 11.528 38.0713 12.02 38.0713 12.572V26H34.3993V12.392ZM45.0553 12.572C45.0553 12.116 44.9593 11.672 44.7673 11.24C44.5753 10.784 44.2753 10.412 43.8673 10.124C43.4593 9.836 42.9793 9.692 42.4273 9.692V6.092C43.3873 6.092 44.2513 6.26 45.0193 6.596C45.8113 6.932 46.4833 7.4 47.0353 8C47.5873 8.6 48.0073 9.284 48.2953 10.052C48.5833 10.796 48.7273 11.576 48.7273 12.392V26H45.0553V12.572ZM57.7492 26C56.7172 26 55.8052 25.808 55.0132 25.424C54.2452 25.04 53.5972 24.56 53.0692 23.984C52.5652 23.408 52.1812 22.82 51.9172 22.22C51.6532 21.596 51.5212 21.056 51.5212 20.6V11.456C51.5212 11 51.6532 10.472 51.9172 9.872C52.1812 9.272 52.5772 8.684 53.1052 8.108C53.6332 7.532 54.2812 7.064 55.0492 6.704C55.8172 6.32 56.7052 6.128 57.7132 6.128V9.62C57.2092 9.62 56.7772 9.74 56.4172 9.98C56.0572 10.22 55.7692 10.508 55.5532 10.844C55.3372 11.18 55.2292 11.492 55.2292 11.78V13.976H62.2852V11.816C62.2852 11.312 62.1412 10.904 61.8532 10.592C61.5892 10.256 61.2412 10.004 60.8092 9.836C60.4012 9.668 59.9812 9.584 59.5492 9.584V6.128C60.5092 6.128 61.4572 6.356 62.3932 6.812C63.3532 7.268 64.1452 7.892 64.7692 8.684C65.4172 9.476 65.7412 10.388 65.7412 11.42V17.54H55.2292V20.6C55.2292 20.84 55.3252 21.116 55.5172 21.428C55.7092 21.74 55.9972 22.016 56.3812 22.256C56.7652 22.472 57.2212 22.58 57.7492 22.58V26ZM59.5492 26V22.58C60.1732 22.58 60.7012 22.46 61.1332 22.22C61.5652 21.98 61.9132 21.68 62.1772 21.32C62.4412 20.96 62.6212 20.6 62.7172 20.24L65.7772 21.392C65.6092 22.16 65.2372 22.904 64.6612 23.624C64.1092 24.32 63.4012 24.896 62.5372 25.352C61.6732 25.784 60.6772 26 59.5492 26ZM75.736 26.18V22.688C76.144 22.688 76.576 22.604 77.032 22.436C77.512 22.244 77.92 21.968 78.256 21.608C78.592 21.224 78.76 20.744 78.76 20.168C78.76 19.64 78.52 19.208 78.04 18.872C77.56 18.536 76.948 18.26 76.204 18.044C75.484 17.828 74.704 17.624 73.864 17.432C73.024 17.216 72.244 16.988 71.524 16.748C71.044 16.556 70.54 16.268 70.012 15.884C69.484 15.5 69.028 14.984 68.644 14.336C68.26 13.688 68.068 12.872 68.068 11.888C68.068 10.76 68.272 9.824 68.68 9.08C69.112 8.312 69.64 7.7 70.264 7.244C70.912 6.788 71.572 6.464 72.244 6.272C72.94 6.08 73.552 5.984 74.08 5.984V9.44C73.528 9.44 73.06 9.548 72.676 9.764C72.292 9.98 72.004 10.256 71.812 10.592C71.62 10.928 71.524 11.276 71.524 11.636C71.524 12.164 71.764 12.608 72.244 12.968C72.748 13.328 73.492 13.664 74.476 13.976C75.484 14.264 76.768 14.6 78.328 14.984C78.736 15.056 79.168 15.212 79.624 15.452C80.08 15.692 80.512 16.004 80.92 16.388C81.328 16.772 81.664 17.264 81.928 17.864C82.192 18.44 82.324 19.136 82.324 19.952C82.324 21.248 82.024 22.364 81.424 23.3C80.848 24.236 80.056 24.956 79.048 25.46C78.04 25.94 76.936 26.18 75.736 26.18ZM74.152 26.18C72.736 26.18 71.56 25.904 70.624 25.352C69.712 24.8 69.028 24.104 68.572 23.264C68.116 22.424 67.888 21.596 67.888 20.78L71.344 20.132C71.344 20.636 71.488 21.08 71.776 21.464C72.088 21.824 72.46 22.112 72.892 22.328C73.324 22.544 73.744 22.664 74.152 22.688V26.18ZM78.544 12.068C78.544 11.372 78.352 10.844 77.968 10.484C77.608 10.1 77.188 9.836 76.708 9.692C76.252 9.524 75.904 9.44 75.664 9.44L75.7 5.984C76.948 5.984 78.04 6.272 78.976 6.848C79.912 7.4 80.644 8.096 81.172 8.936C81.7 9.776 81.964 10.628 81.964 11.492L78.544 12.068ZM91.6266 26.18V22.688C92.0346 22.688 92.4666 22.604 92.9226 22.436C93.4026 22.244 93.8106 21.968 94.1466 21.608C94.4826 21.224 94.6506 20.744 94.6506 20.168C94.6506 19.64 94.4106 19.208 93.9306 18.872C93.4506 18.536 92.8386 18.26 92.0946 18.044C91.3746 17.828 90.5946 17.624 89.7546 17.432C88.9146 17.216 88.1346 16.988 87.4146 16.748C86.9346 16.556 86.4306 16.268 85.9026 15.884C85.3746 15.5 84.9186 14.984 84.5346 14.336C84.1506 13.688 83.9586 12.872 83.9586 11.888C83.9586 10.76 84.1626 9.824 84.5706 9.08C85.0026 8.312 85.5306 7.7 86.1546 7.244C86.8026 6.788 87.4626 6.464 88.1346 6.272C88.8306 6.08 89.4426 5.984 89.9706 5.984V9.44C89.4186 9.44 88.9506 9.548 88.5666 9.764C88.1826 9.98 87.8946 10.256 87.7026 10.592C87.5106 10.928 87.4146 11.276 87.4146 11.636C87.4146 12.164 87.6546 12.608 88.1346 12.968C88.6386 13.328 89.3826 13.664 90.3666 13.976C91.3746 14.264 92.6586 14.6 94.2186 14.984C94.6266 15.056 95.0586 15.212 95.5146 15.452C95.9706 15.692 96.4026 16.004 96.8106 16.388C97.2186 16.772 97.5546 17.264 97.8186 17.864C98.0826 18.44 98.2146 19.136 98.2146 19.952C98.2146 21.248 97.9146 22.364 97.3146 23.3C96.7386 24.236 95.9466 24.956 94.9386 25.46C93.9306 25.94 92.8266 26.18 91.6266 26.18ZM90.0426 26.18C88.6266 26.18 87.4506 25.904 86.5146 25.352C85.6026 24.8 84.9186 24.104 84.4626 23.264C84.0066 22.424 83.7786 21.596 83.7786 20.78L87.2346 20.132C87.2346 20.636 87.3786 21.08 87.6666 21.464C87.9786 21.824 88.3506 22.112 88.7826 22.328C89.2146 22.544 89.6346 22.664 90.0426 22.688V26.18ZM94.4346 12.068C94.4346 11.372 94.2426 10.844 93.8586 10.484C93.4986 10.1 93.0786 9.836 92.5986 9.692C92.1426 9.524 91.7946 9.44 91.5546 9.44L91.5906 5.984C92.8386 5.984 93.9306 6.272 94.8666 6.848C95.8026 7.4 96.5346 8.096 97.0626 8.936C97.5906 9.776 97.8546 10.628 97.8546 11.492L94.4346 12.068ZM13.04 68.162V62.762C13.544 62.762 14.084 62.618 14.66 62.33C15.272 62.042 15.848 61.664 16.388 61.196C16.928 60.692 17.378 60.116 17.738 59.468C18.098 58.784 18.278 58.028 18.278 57.2C18.278 56.084 17.954 55.148 17.306 54.392C16.694 53.6 15.902 52.952 14.93 52.448C13.994 51.944 13.004 51.53 11.96 51.206C10.952 50.882 10.016 50.612 9.152 50.396C8.324 50.18 7.712 50.018 7.316 49.91C6.2 49.514 5.12 48.92 4.076 48.128C3.068 47.336 2.24 46.31 1.592 45.05C0.98 43.754 0.674 42.242 0.674 40.514C0.674 38.606 1.034 37.004 1.754 35.708C2.474 34.412 3.356 33.368 4.4 32.576C5.444 31.748 6.506 31.154 7.586 30.794C8.666 30.398 9.548 30.2 10.232 30.2V35.654C9.908 35.726 9.512 35.87 9.044 36.086C8.576 36.302 8.126 36.626 7.694 37.058C7.298 37.454 6.956 37.94 6.668 38.516C6.38 39.056 6.236 39.704 6.236 40.46C6.236 41.324 6.47 42.062 6.938 42.674C7.406 43.25 8.018 43.736 8.774 44.132C9.566 44.528 10.43 44.888 11.366 45.212C12.338 45.536 13.328 45.86 14.336 46.184C15.344 46.472 16.28 46.832 17.144 47.264C18.332 47.768 19.448 48.434 20.492 49.262C21.536 50.054 22.382 51.062 23.03 52.286C23.714 53.474 24.056 54.968 24.056 56.768C24.056 58.784 23.552 60.656 22.544 62.384C21.536 64.112 20.186 65.516 18.494 66.596C16.838 67.64 15.02 68.162 13.04 68.162ZM10.232 68.162C8.72 68.162 7.352 67.856 6.128 67.244C4.94 66.632 3.896 65.858 2.996 64.922C2.132 63.986 1.448 63.032 0.944 62.06C0.476 61.088 0.242 60.224 0.242 59.468L5.534 57.632C5.642 58.64 5.948 59.522 6.452 60.278C6.992 60.998 7.604 61.556 8.288 61.952C8.972 62.348 9.62 62.618 10.232 62.762V68.162ZM17.198 39.92C17.054 38.984 16.73 38.228 16.226 37.652C15.758 37.04 15.236 36.572 14.66 36.248C14.084 35.924 13.544 35.726 13.04 35.654V30.2C14.48 30.2 15.776 30.488 16.928 31.064C18.08 31.64 19.07 32.36 19.898 33.224C20.726 34.088 21.356 34.97 21.788 35.87C22.256 36.77 22.508 37.526 22.544 38.138L17.198 39.92ZM38.7592 68C36.4192 68 34.6012 67.604 33.3052 66.812C32.0452 65.984 31.1632 64.85 30.6592 63.41C30.1552 61.97 29.9032 60.278 29.9032 58.334V43.754H26.2312V38.408H29.9032V29.606H35.4652V38.408H38.9752V43.808H35.4652V58.82C35.4652 59.756 35.6812 60.584 36.1132 61.304C36.5812 61.988 37.5172 62.33 38.9212 62.33H39.9472L41.2432 68H38.7592ZM44.2566 78.476L49.6026 61.412L41.8806 38.192H47.7666L55.5966 61.466L49.9266 78.476H44.2566ZM56.5686 56.822L54.0846 48.722L57.9726 38.192H63.8586L57.1086 56.822H56.5686ZM66.2895 68V29.66H72.2295V68H66.2895ZM85.9636 68C84.4156 68 83.0476 67.712 81.8596 67.136C80.7076 66.56 79.7356 65.84 78.9436 64.976C78.1876 64.112 77.6116 63.23 77.2156 62.33C76.8196 61.394 76.6216 60.584 76.6216 59.9V46.184C76.6216 45.5 76.8196 44.708 77.2156 43.808C77.6116 42.908 78.2056 42.026 78.9976 41.162C79.7896 40.298 80.7616 39.596 81.9136 39.056C83.0656 38.48 84.3976 38.192 85.9096 38.192V43.43C85.1536 43.43 84.5056 43.61 83.9656 43.97C83.4256 44.33 82.9936 44.762 82.6696 45.266C82.3456 45.77 82.1836 46.238 82.1836 46.67V49.964H92.7676V46.724C92.7676 45.968 92.5516 45.356 92.1196 44.888C91.7236 44.384 91.2016 44.006 90.5536 43.754C89.9416 43.502 89.3116 43.376 88.6636 43.376V38.192C90.1036 38.192 91.5256 38.534 92.9296 39.218C94.3696 39.902 95.5576 40.838 96.4936 42.026C97.4656 43.214 97.9516 44.582 97.9516 46.13V55.31H82.1836V59.9C82.1836 60.26 82.3276 60.674 82.6156 61.142C82.9036 61.61 83.3356 62.024 83.9116 62.384C84.4876 62.708 85.1716 62.87 85.9636 62.87V68ZM88.6636 68V62.87C89.5996 62.87 90.3916 62.69 91.0396 62.33C91.6876 61.97 92.2096 61.52 92.6056 60.98C93.0016 60.44 93.2716 59.9 93.4156 59.36L98.0056 61.088C97.7536 62.24 97.1956 63.356 96.3316 64.436C95.5036 65.48 94.4416 66.344 93.1456 67.028C91.8496 67.676 90.3556 68 88.6636 68Z" fill="#FFB905"/>
</svg>
