<svg width="403" height="284" viewBox="0 0 403 284" fill="none" xmlns="http://www.w3.org/2000/svg">
<g opacity="0.5">
<mask id="path-1-outside-1_359_3063" maskUnits="userSpaceOnUse" x="-90" y="-1" width="494" height="286" fill="black">
<rect fill="white" x="-90" y="-1" width="494" height="286"/>
<path d="M13 284V252C17.8 252 23 250.933 28.6 248.8C34.2 246.4 39.4 243.067 44.2 238.8C49.2667 234.533 53.4 229.333 56.6 223.2C59.8 216.8 61.4 209.6 61.4 201.6V82C61.4 76.4 60.2 70.8 57.8 65.2C55.6667 59.3333 52.4667 53.8667 48.2 48.8C44.2 43.7333 39.2667 39.7333 33.4 36.8C27.5333 33.6 20.7333 32 13 32V-1.71661e-05C25.5333 -1.71661e-05 36.7333 2.39998 46.6 7.19999C56.4667 12 64.8667 18.2667 71.8 26C78.7333 33.7333 84.0667 42 87.8 50.8C91.5333 59.3333 93.4 67.6 93.4 75.6V202.4C93.4 215.733 90.8667 227.467 85.8 237.6C80.7333 247.733 74.2 256.267 66.2 263.2C58.2 270.133 49.5333 275.333 40.2 278.8C30.8667 282.267 21.8 284 13 284ZM-9 284C-17 284 -25.6667 282.267 -35 278.8C-44.0667 275.333 -52.7333 270.133 -61 263.2C-69.2667 256.267 -76.0667 247.733 -81.4 237.6C-86.4667 227.467 -89 215.733 -89 202.4V75.6C-89 67.6 -87.1333 59.2 -83.4 50.4C-79.6667 41.6 -74.3333 33.4666 -67.4 26C-60.4667 18.2667 -52.0667 12 -42.2 7.19999C-32.0667 2.39998 -20.8667 -1.71661e-05 -8.6 -1.71661e-05V32C-16.0667 32 -22.8667 33.6 -29 36.8C-34.8667 39.7333 -39.9333 43.8666 -44.2 49.2C-48.2 54.2667 -51.4 59.7333 -53.8 65.6C-55.9333 71.2 -57 76.6667 -57 82V201.6C-57 209.6 -55.4 216.667 -52.2 222.8C-48.7333 228.933 -44.6 234.267 -39.8 238.8C-34.7333 243.067 -29.5333 246.4 -24.2 248.8C-18.6 250.933 -13.5333 252 -9 252V284ZM211.053 284V253.2C218.786 253.2 225.453 251.6 231.053 248.4C236.653 244.933 240.92 240.8 243.853 236C247.053 230.933 248.653 226 248.653 221.2V67.6H280.253V224.8C280.253 229.867 278.786 235.733 275.853 242.4C273.186 249.067 268.92 255.6 263.053 262C257.186 268.4 249.853 273.733 241.053 278C232.52 282 222.52 284 211.053 284ZM193.453 284C181.986 284 171.853 282 163.053 278C154.52 274 147.32 268.933 141.453 262.8C135.853 256.4 131.586 249.867 128.653 243.2C125.986 236.267 124.653 230.133 124.653 224.8V67.6H155.853V221.2C155.853 225.733 157.453 230.533 160.653 235.6C163.853 240.667 168.253 244.933 173.853 248.4C179.453 251.6 185.986 253.2 193.453 253.2V284ZM312.191 282V66.8H343.391V97.6C345.791 93.0667 349.391 88.5333 354.191 84C359.257 79.2 365.124 75.0667 371.791 71.6C378.724 68.1333 386.191 66.4 394.191 66.4C395.791 66.4 397.257 66.4 398.591 66.4C399.924 66.4 401.257 66.4 402.591 66.4L395.391 96.8C386.591 96.8 378.191 100 370.191 106.4C362.457 112.533 356.057 120.4 350.991 130C345.924 139.333 343.391 149.067 343.391 159.2V282H312.191Z"/>
</mask>
<path d="M13 284H12V285H13V284ZM13 252V251H12V252H13ZM28.6 248.8L28.956 249.734L28.9751 249.727L28.9939 249.719L28.6 248.8ZM44.2 238.8L43.5559 238.035L43.5456 238.044L43.5356 238.053L44.2 238.8ZM56.6 223.2L57.4866 223.663L57.4906 223.655L57.4944 223.647L56.6 223.2ZM57.8 65.2L56.8602 65.5417L56.8698 65.5681L56.8809 65.5939L57.8 65.2ZM48.2 48.8L47.4151 49.4196L47.4249 49.4321L47.4351 49.4441L48.2 48.8ZM33.4 36.8L32.9212 37.6779L32.9368 37.6864L32.9528 37.6944L33.4 36.8ZM13 32H12V33H13V32ZM13 -1.52588e-05V-1.00002H12V-1.52588e-05H13ZM71.8 26L72.5446 25.3324L71.8 26ZM87.8 50.8L86.8794 51.1906L86.8839 51.2008L87.8 50.8ZM85.8 237.6L84.9056 237.153L85.8 237.6ZM66.2 263.2L66.8549 263.956L66.2 263.2ZM40.2 278.8L39.8518 277.863L40.2 278.8ZM-9 284V285H-8V284H-9ZM-35 278.8L-35.3571 279.734L-35.3482 279.737L-35 278.8ZM-61 263.2L-60.3574 262.434L-61 263.2ZM-81.4 237.6L-82.2944 238.047L-82.2898 238.057L-82.2849 238.066L-81.4 237.6ZM-83.4 50.4L-84.3206 50.0094L-83.4 50.4ZM-67.4 26L-66.6672 26.6804L-66.6613 26.674L-66.6554 26.6675L-67.4 26ZM-42.2 7.19998L-42.6281 6.2962L-42.6375 6.30075L-42.2 7.19998ZM-8.6 -1.52588e-05H-7.6V-1.00002H-8.6V-1.52588e-05ZM-8.6 32V33H-7.6V32H-8.6ZM-29 36.8L-28.5528 37.6944L-28.5451 37.6906L-28.5374 37.6866L-29 36.8ZM-44.2 49.2L-44.9809 48.5753L-44.9849 48.5804L-44.2 49.2ZM-53.8 65.6L-54.7255 65.2214L-54.7302 65.2326L-54.7345 65.244L-53.8 65.6ZM-52.2 222.8L-53.0866 223.263L-53.0788 223.277L-53.0706 223.292L-52.2 222.8ZM-39.8 238.8L-40.4866 239.527L-40.4659 239.547L-40.4441 239.565L-39.8 238.8ZM-24.2 248.8L-24.6104 249.712L-24.5835 249.724L-24.556 249.734L-24.2 248.8ZM-9 252H-8V251H-9V252ZM14 284V252H12V284H14ZM13 253C17.9477 253 23.2695 251.901 28.956 249.734L28.244 247.866C22.7305 249.966 17.6523 251 13 251V253ZM28.9939 249.719C34.698 247.275 39.9884 243.882 44.8644 239.547L43.5356 238.053C38.8116 242.252 33.7021 245.525 28.2061 247.881L28.9939 249.719ZM44.8441 239.565C50.015 235.211 54.229 229.906 57.4866 223.663L55.7134 222.737C52.571 228.76 48.5184 233.856 43.5559 238.035L44.8441 239.565ZM57.4944 223.647C60.7717 217.093 62.4 209.737 62.4 201.6H60.4C60.4 209.463 58.8283 216.507 55.7056 222.753L57.4944 223.647ZM62.4 201.6V82H60.4V201.6H62.4ZM62.4 82C62.4 76.253 61.1678 70.5195 58.7191 64.8061L56.8809 65.5939C59.2322 71.0805 60.4 76.5469 60.4 82H62.4ZM58.7398 64.8582C56.564 58.8747 53.3025 53.3068 48.9649 48.1559L47.4351 49.4441C51.6308 54.4266 54.7694 59.7919 56.8602 65.5417L58.7398 64.8582ZM48.9849 48.1804C44.8924 42.9965 39.8431 38.9035 33.8472 35.9056L32.9528 37.6944C38.6903 40.5631 43.5076 44.4701 47.4151 49.4196L48.9849 48.1804ZM33.8789 35.9221C27.8437 32.6302 20.8742 31 13 31V33C20.5925 33 27.223 34.5698 32.9212 37.6779L33.8789 35.9221ZM14 32V-1.52588e-05H12V32H14ZM13 0.999985C25.4034 0.999985 36.4504 3.37438 46.1625 8.09922L47.0375 6.30075C37.0163 1.42559 25.6633 -1.00002 13 -1.00002V0.999985ZM46.1625 8.09922C55.9195 12.8458 64.2133 19.0359 71.0555 26.6675L72.5446 25.3324C65.52 17.4974 57.0139 11.1541 47.0375 6.30075L46.1625 8.09922ZM71.0554 26.6675C77.9216 34.3259 83.1927 42.5004 86.8794 51.1906L88.7206 50.4094C84.9407 41.4996 79.5451 33.1407 72.5446 25.3324L71.0554 26.6675ZM86.8839 51.2008C90.5709 59.6283 92.4 67.7588 92.4 75.6H94.4C94.4 67.4412 92.4958 59.0383 88.7162 50.3992L86.8839 51.2008ZM92.4 75.6V202.4H94.4V75.6H92.4ZM92.4 202.4C92.4 215.605 89.8916 227.181 84.9056 237.153L86.6944 238.047C91.8418 227.752 94.4 215.861 94.4 202.4H92.4ZM84.9056 237.153C79.8935 247.177 73.4389 255.603 65.5451 262.444L66.8549 263.956C74.9611 256.93 81.5732 248.29 86.6944 238.047L84.9056 237.153ZM65.5451 262.444C57.6298 269.304 49.0659 274.44 39.8518 277.863L40.5482 279.737C50.0008 276.226 58.7702 270.962 66.8549 263.956L65.5451 262.444ZM39.8518 277.863C30.6154 281.293 21.6666 283 13 283V285C21.9334 285 31.1179 283.24 40.5482 279.737L39.8518 277.863ZM-9 283C-16.8561 283 -25.4037 281.298 -34.6518 277.863L-35.3482 279.737C-25.9296 283.236 -17.1439 285 -9 285V283ZM-34.6429 277.866C-43.5948 274.443 -52.1665 269.304 -60.3574 262.434L-61.6426 263.966C-53.3002 270.963 -44.5385 276.224 -35.3571 279.734L-34.6429 277.866ZM-60.3574 262.434C-68.5185 255.589 -75.2385 247.16 -80.5151 237.134L-82.2849 238.066C-76.8949 248.307 -70.0148 256.944 -61.6426 263.966L-60.3574 262.434ZM-80.5056 237.153C-85.4915 227.181 -88 215.605 -88 202.4H-90C-90 215.861 -87.4418 227.752 -82.2944 238.047L-80.5056 237.153ZM-88 202.4V75.6H-90V202.4H-88ZM-88 75.6C-88 67.7577 -86.1704 59.4906 -82.4794 50.7905L-84.3206 50.0094C-88.0963 58.9094 -90 67.4423 -90 75.6H-88ZM-82.4794 50.7905C-78.7943 42.1042 -73.5268 34.0677 -66.6672 26.6804L-68.1328 25.3195C-75.1398 32.8656 -80.539 41.0958 -84.3206 50.0094L-82.4794 50.7905ZM-66.6554 26.6675C-59.8133 19.0359 -51.5195 12.8458 -41.7625 8.09922L-42.6375 6.30075C-52.6139 11.1541 -61.12 17.4974 -68.1446 25.3324L-66.6554 26.6675ZM-41.7719 8.10372C-31.7846 3.37288 -20.7327 0.999985 -8.6 0.999985V-1.00002C-21.0006 -1.00002 -32.3488 1.42709 -42.6281 6.29625L-41.7719 8.10372ZM-9.6 -1.52588e-05V32H-7.6V-1.52588e-05H-9.6ZM-8.6 31C-16.2146 31 -23.1753 32.6331 -29.4626 35.9134L-28.5374 37.6866C-22.5581 34.5669 -15.9187 33 -8.6 33V31ZM-29.4472 35.9056C-35.4487 38.9063 -40.6276 43.1337 -44.9809 48.5753L-43.4191 49.8247C-39.239 44.5995 -34.2847 40.5603 -28.5528 37.6944L-29.4472 35.9056ZM-44.9849 48.5804C-49.0417 53.719 -52.2895 59.2666 -54.7255 65.2214L-52.8745 65.9786C-50.5105 60.2001 -47.3583 54.8143 -43.4151 49.8196L-44.9849 48.5804ZM-54.7345 65.244C-56.9058 70.9437 -58 76.5309 -58 82H-56C-56 76.8024 -54.9609 71.4563 -52.8655 65.956L-54.7345 65.244ZM-58 82V201.6H-56V82H-58ZM-58 201.6C-58 209.736 -56.372 216.966 -53.0866 223.263L-51.3134 222.337C-54.428 216.368 -56 209.464 -56 201.6H-58ZM-53.0706 223.292C-49.558 229.507 -45.3641 234.921 -40.4866 239.527L-39.1134 238.073C-43.8359 233.613 -47.9087 228.36 -51.3294 222.308L-53.0706 223.292ZM-40.4441 239.565C-35.3159 243.883 -30.0384 247.269 -24.6104 249.712L-23.7896 247.888C-29.0283 245.531 -34.1507 242.25 -39.1559 238.035L-40.4441 239.565ZM-24.556 249.734C-18.8769 251.898 -13.6872 253 -9 253V251C-13.3795 251 -18.3231 249.969 -23.844 247.866L-24.556 249.734ZM-10 252V284H-8V252H-10ZM211.053 284H210.053V285H211.053V284ZM211.053 253.2V252.2H210.053V253.2H211.053ZM231.053 248.4L231.549 249.268L231.565 249.26L231.579 249.25L231.053 248.4ZM243.853 236L243.008 235.466L243.004 235.472L243 235.479L243.853 236ZM248.653 67.6V66.6H247.653V67.6H248.653ZM280.253 67.6H281.253V66.6H280.253V67.6ZM275.853 242.4L274.938 241.997L274.931 242.013L274.925 242.029L275.853 242.4ZM263.053 262L262.316 261.324L263.053 262ZM241.053 278L241.478 278.906L241.489 278.9L241.053 278ZM193.453 284V285H194.453V284H193.453ZM163.053 278L162.629 278.906L162.639 278.91L163.053 278ZM141.453 262.8L140.701 263.458L140.715 263.475L140.73 263.491L141.453 262.8ZM128.653 243.2L127.72 243.559L127.728 243.581L127.738 243.603L128.653 243.2ZM124.653 67.6V66.6H123.653V67.6H124.653ZM155.853 67.6H156.853V66.6H155.853V67.6ZM160.653 235.6L161.499 235.066L160.653 235.6ZM173.853 248.4L173.327 249.25L173.342 249.26L173.357 249.268L173.853 248.4ZM193.453 253.2H194.453V252.2H193.453V253.2ZM212.053 284V253.2H210.053V284H212.053ZM211.053 254.2C218.926 254.2 225.771 252.57 231.549 249.268L230.557 247.532C225.136 250.63 218.647 252.2 211.053 252.2V254.2ZM231.579 249.25C237.29 245.715 241.678 241.476 244.706 236.521L243 235.479C240.161 240.124 236.016 244.151 230.527 247.55L231.579 249.25ZM244.699 236.534C247.975 231.347 249.653 226.231 249.653 221.2H247.653C247.653 225.769 246.132 230.52 243.008 235.466L244.699 236.534ZM249.653 221.2V67.6H247.653V221.2H249.653ZM248.653 68.6H280.253V66.6H248.653V68.6ZM279.253 67.6V224.8H281.253V67.6H279.253ZM279.253 224.8C279.253 229.681 277.838 235.406 274.938 241.997L276.768 242.803C279.735 236.06 281.253 230.052 281.253 224.8H279.253ZM274.925 242.029C272.311 248.562 268.118 254.995 262.316 261.324L263.79 262.676C269.722 256.205 274.062 249.571 276.782 242.771L274.925 242.029ZM262.316 261.324C256.545 267.62 249.318 272.882 240.617 277.1L241.489 278.9C250.389 274.585 257.828 269.18 263.79 262.676L262.316 261.324ZM240.629 277.095C232.254 281.02 222.404 283 211.053 283V285C222.635 285 232.786 282.98 241.478 278.905L240.629 277.095ZM193.453 283C182.103 283 172.115 281.021 163.467 277.09L162.639 278.91C171.591 282.979 181.87 285 193.453 285V283ZM163.478 277.095C155.044 273.141 147.948 268.144 142.176 262.109L140.73 263.491C146.691 269.723 153.996 274.859 162.629 278.905L163.478 277.095ZM142.206 262.142C136.662 255.805 132.455 249.357 129.568 242.797L127.738 243.603C130.718 250.376 135.045 256.995 140.701 263.458L142.206 262.142ZM129.586 242.841C126.948 235.98 125.653 229.973 125.653 224.8H123.653C123.653 230.294 125.025 236.553 127.72 243.559L129.586 242.841ZM125.653 224.8V67.6H123.653V224.8H125.653ZM124.653 68.6H155.853V66.6H124.653V68.6ZM154.853 67.6V221.2H156.853V67.6H154.853ZM154.853 221.2C154.853 225.974 156.538 230.958 159.808 236.134L161.499 235.066C158.368 230.109 156.853 225.493 156.853 221.2H154.853ZM159.808 236.134C163.096 241.341 167.611 245.712 173.327 249.25L174.379 247.55C168.896 244.155 164.61 239.992 161.499 235.066L159.808 236.134ZM173.357 249.268C179.13 252.567 185.84 254.2 193.453 254.2V252.2C186.133 252.2 179.776 250.633 174.349 247.532L173.357 249.268ZM192.453 253.2V284H194.453V253.2H192.453ZM312.191 282H311.191V283H312.191V282ZM312.191 66.8V65.8H311.191V66.8H312.191ZM343.391 66.8H344.391V65.8H343.391V66.8ZM343.391 97.6H342.391L344.274 98.0679L343.391 97.6ZM354.191 84L354.877 84.727L354.878 84.7259L354.191 84ZM371.791 71.6L371.343 70.7056L371.336 70.7091L371.329 70.7128L371.791 71.6ZM402.591 66.4L403.564 66.6304L403.855 65.4H402.591V66.4ZM395.391 96.8V97.8H396.181L396.364 97.0305L395.391 96.8ZM370.191 106.4L370.812 107.184L370.815 107.181L370.191 106.4ZM350.991 130L351.87 130.477L351.875 130.467L350.991 130ZM343.391 282V283H344.391V282H343.391ZM313.191 282V66.8H311.191V282H313.191ZM312.191 67.8H343.391V65.8H312.191V67.8ZM342.391 66.8V97.6H344.391V66.8H342.391ZM344.274 98.0679C346.611 93.6543 350.135 89.2057 354.877 84.727L353.504 83.273C348.646 87.8609 344.97 92.479 342.507 97.1321L344.274 98.0679ZM354.878 84.7259C359.872 79.9947 365.662 75.9142 372.252 72.4872L371.329 70.7128C364.586 74.2191 358.642 78.4053 353.503 83.274L354.878 84.7259ZM372.238 72.4944C379.028 69.0994 386.341 67.4 394.191 67.4V65.4C386.041 65.4 378.42 67.1672 371.343 70.7056L372.238 72.4944ZM394.191 67.4C394.194 67.4 394.197 67.4 394.2 67.4C394.203 67.4 394.206 67.4 394.209 67.4C394.212 67.4 394.216 67.4 394.219 67.4C394.222 67.4 394.225 67.4 394.228 67.4C394.231 67.4 394.234 67.4 394.237 67.4C394.241 67.4 394.244 67.4 394.247 67.4C394.25 67.4 394.253 67.4 394.256 67.4C394.259 67.4 394.262 67.4 394.266 67.4C394.269 67.4 394.272 67.4 394.275 67.4C394.278 67.4 394.281 67.4 394.284 67.4C394.287 67.4 394.29 67.4 394.294 67.4C394.297 67.4 394.3 67.4 394.303 67.4C394.306 67.4 394.309 67.4 394.312 67.4C394.315 67.4 394.318 67.4 394.322 67.4C394.325 67.4 394.328 67.4 394.331 67.4C394.334 67.4 394.337 67.4 394.34 67.4C394.343 67.4 394.346 67.4 394.35 67.4C394.353 67.4 394.356 67.4 394.359 67.4C394.362 67.4 394.365 67.4 394.368 67.4C394.371 67.4 394.374 67.4 394.378 67.4C394.381 67.4 394.384 67.4 394.387 67.4C394.39 67.4 394.393 67.4 394.396 67.4C394.399 67.4 394.402 67.4 394.405 67.4C394.409 67.4 394.412 67.4 394.415 67.4C394.418 67.4 394.421 67.4 394.424 67.4C394.427 67.4 394.43 67.4 394.433 67.4C394.436 67.4 394.44 67.4 394.443 67.4C394.446 67.4 394.449 67.4 394.452 67.4C394.455 67.4 394.458 67.4 394.461 67.4C394.464 67.4 394.467 67.4 394.471 67.4C394.474 67.4 394.477 67.4 394.48 67.4C394.483 67.4 394.486 67.4 394.489 67.4C394.492 67.4 394.495 67.4 394.498 67.4C394.501 67.4 394.505 67.4 394.508 67.4C394.511 67.4 394.514 67.4 394.517 67.4C394.52 67.4 394.523 67.4 394.526 67.4C394.529 67.4 394.532 67.4 394.535 67.4C394.539 67.4 394.542 67.4 394.545 67.4C394.548 67.4 394.551 67.4 394.554 67.4C394.557 67.4 394.56 67.4 394.563 67.4C394.566 67.4 394.569 67.4 394.572 67.4C394.576 67.4 394.579 67.4 394.582 67.4C394.585 67.4 394.588 67.4 394.591 67.4C394.594 67.4 394.597 67.4 394.6 67.4C394.603 67.4 394.606 67.4 394.609 67.4C394.612 67.4 394.616 67.4 394.619 67.4C394.622 67.4 394.625 67.4 394.628 67.4C394.631 67.4 394.634 67.4 394.637 67.4C394.64 67.4 394.643 67.4 394.646 67.4C394.649 67.4 394.652 67.4 394.656 67.4C394.659 67.4 394.662 67.4 394.665 67.4C394.668 67.4 394.671 67.4 394.674 67.4C394.677 67.4 394.68 67.4 394.683 67.4C394.686 67.4 394.689 67.4 394.692 67.4C394.695 67.4 394.699 67.4 394.702 67.4C394.705 67.4 394.708 67.4 394.711 67.4C394.714 67.4 394.717 67.4 394.72 67.4C394.723 67.4 394.726 67.4 394.729 67.4C394.732 67.4 394.735 67.4 394.738 67.4C394.742 67.4 394.745 67.4 394.748 67.4C394.751 67.4 394.754 67.4 394.757 67.4C394.76 67.4 394.763 67.4 394.766 67.4C394.769 67.4 394.772 67.4 394.775 67.4C394.778 67.4 394.781 67.4 394.784 67.4C394.787 67.4 394.79 67.4 394.794 67.4C394.797 67.4 394.8 67.4 394.803 67.4C394.806 67.4 394.809 67.4 394.812 67.4C394.815 67.4 394.818 67.4 394.821 67.4C394.824 67.4 394.827 67.4 394.83 67.4C394.833 67.4 394.836 67.4 394.839 67.4C394.842 67.4 394.846 67.4 394.849 67.4C394.852 67.4 394.855 67.4 394.858 67.4C394.861 67.4 394.864 67.4 394.867 67.4C394.87 67.4 394.873 67.4 394.876 67.4C394.879 67.4 394.882 67.4 394.885 67.4C394.888 67.4 394.891 67.4 394.894 67.4C394.897 67.4 394.9 67.4 394.903 67.4C394.906 67.4 394.91 67.4 394.913 67.4C394.916 67.4 394.919 67.4 394.922 67.4C394.925 67.4 394.928 67.4 394.931 67.4C394.934 67.4 394.937 67.4 394.94 67.4C394.943 67.4 394.946 67.4 394.949 67.4C394.952 67.4 394.955 67.4 394.958 67.4C394.961 67.4 394.964 67.4 394.967 67.4C394.97 67.4 394.973 67.4 394.976 67.4C394.98 67.4 394.983 67.4 394.986 67.4C394.989 67.4 394.992 67.4 394.995 67.4C394.998 67.4 395.001 67.4 395.004 67.4C395.007 67.4 395.01 67.4 395.013 67.4C395.016 67.4 395.019 67.4 395.022 67.4C395.025 67.4 395.028 67.4 395.031 67.4C395.034 67.4 395.037 67.4 395.04 67.4C395.043 67.4 395.046 67.4 395.049 67.4C395.052 67.4 395.055 67.4 395.058 67.4C395.061 67.4 395.064 67.4 395.067 67.4C395.071 67.4 395.074 67.4 395.077 67.4C395.08 67.4 395.083 67.4 395.086 67.4C395.089 67.4 395.092 67.4 395.095 67.4C395.098 67.4 395.101 67.4 395.104 67.4C395.107 67.4 395.11 67.4 395.113 67.4C395.116 67.4 395.119 67.4 395.122 67.4C395.125 67.4 395.128 67.4 395.131 67.4C395.134 67.4 395.137 67.4 395.14 67.4C395.143 67.4 395.146 67.4 395.149 67.4C395.152 67.4 395.155 67.4 395.158 67.4C395.161 67.4 395.164 67.4 395.167 67.4C395.17 67.4 395.173 67.4 395.176 67.4C395.179 67.4 395.182 67.4 395.185 67.4C395.188 67.4 395.191 67.4 395.194 67.4C395.197 67.4 395.2 67.4 395.203 67.4C395.206 67.4 395.209 67.4 395.212 67.4C395.215 67.4 395.218 67.4 395.221 67.4C395.224 67.4 395.228 67.4 395.231 67.4C395.234 67.4 395.237 67.4 395.24 67.4C395.243 67.4 395.246 67.4 395.249 67.4C395.252 67.4 395.255 67.4 395.258 67.4C395.261 67.4 395.264 67.4 395.267 67.4C395.27 67.4 395.273 67.4 395.276 67.4C395.279 67.4 395.282 67.4 395.285 67.4C395.288 67.4 395.291 67.4 395.294 67.4C395.297 67.4 395.3 67.4 395.303 67.4C395.306 67.4 395.309 67.4 395.312 67.4C395.315 67.4 395.318 67.4 395.321 67.4C395.324 67.4 395.327 67.4 395.33 67.4C395.333 67.4 395.336 67.4 395.339 67.4C395.342 67.4 395.345 67.4 395.348 67.4C395.351 67.4 395.354 67.4 395.357 67.4C395.36 67.4 395.363 67.4 395.366 67.4C395.369 67.4 395.372 67.4 395.375 67.4C395.378 67.4 395.381 67.4 395.384 67.4C395.387 67.4 395.39 67.4 395.393 67.4C395.396 67.4 395.399 67.4 395.402 67.4C395.405 67.4 395.408 67.4 395.411 67.4C395.414 67.4 395.417 67.4 395.419 67.4C395.422 67.4 395.425 67.4 395.428 67.4C395.431 67.4 395.434 67.4 395.437 67.4C395.44 67.4 395.443 67.4 395.446 67.4C395.449 67.4 395.452 67.4 395.455 67.4C395.458 67.4 395.461 67.4 395.464 67.4C395.467 67.4 395.47 67.4 395.473 67.4C395.476 67.4 395.479 67.4 395.482 67.4C395.485 67.4 395.488 67.4 395.491 67.4C395.494 67.4 395.497 67.4 395.5 67.4C395.503 67.4 395.506 67.4 395.509 67.4C395.512 67.4 395.515 67.4 395.518 67.4C395.521 67.4 395.524 67.4 395.527 67.4C395.53 67.4 395.533 67.4 395.536 67.4C395.539 67.4 395.542 67.4 395.545 67.4C395.548 67.4 395.551 67.4 395.554 67.4C395.557 67.4 395.56 67.4 395.563 67.4C395.566 67.4 395.568 67.4 395.571 67.4C395.574 67.4 395.577 67.4 395.58 67.4C395.583 67.4 395.586 67.4 395.589 67.4C395.592 67.4 395.595 67.4 395.598 67.4C395.601 67.4 395.604 67.4 395.607 67.4C395.61 67.4 395.613 67.4 395.616 67.4C395.619 67.4 395.622 67.4 395.625 67.4C395.628 67.4 395.631 67.4 395.634 67.4C395.637 67.4 395.64 67.4 395.643 67.4C395.646 67.4 395.649 67.4 395.652 67.4C395.655 67.4 395.658 67.4 395.66 67.4C395.663 67.4 395.666 67.4 395.669 67.4C395.672 67.4 395.675 67.4 395.678 67.4C395.681 67.4 395.684 67.4 395.687 67.4C395.69 67.4 395.693 67.4 395.696 67.4C395.699 67.4 395.702 67.4 395.705 67.4C395.708 67.4 395.711 67.4 395.714 67.4C395.717 67.4 395.72 67.4 395.723 67.4C395.726 67.4 395.728 67.4 395.731 67.4C395.734 67.4 395.737 67.4 395.74 67.4C395.743 67.4 395.746 67.4 395.749 67.4C395.752 67.4 395.755 67.4 395.758 67.4C395.761 67.4 395.764 67.4 395.767 67.4C395.77 67.4 395.773 67.4 395.776 67.4C395.779 67.4 395.782 67.4 395.785 67.4C395.787 67.4 395.79 67.4 395.793 67.4C395.796 67.4 395.799 67.4 395.802 67.4C395.805 67.4 395.808 67.4 395.811 67.4C395.814 67.4 395.817 67.4 395.82 67.4C395.823 67.4 395.826 67.4 395.829 67.4C395.832 67.4 395.835 67.4 395.838 67.4C395.84 67.4 395.843 67.4 395.846 67.4C395.849 67.4 395.852 67.4 395.855 67.4C395.858 67.4 395.861 67.4 395.864 67.4C395.867 67.4 395.87 67.4 395.873 67.4C395.876 67.4 395.879 67.4 395.882 67.4C395.885 67.4 395.887 67.4 395.89 67.4C395.893 67.4 395.896 67.4 395.899 67.4C395.902 67.4 395.905 67.4 395.908 67.4C395.911 67.4 395.914 67.4 395.917 67.4C395.92 67.4 395.923 67.4 395.926 67.4C395.929 67.4 395.931 67.4 395.934 67.4C395.937 67.4 395.94 67.4 395.943 67.4C395.946 67.4 395.949 67.4 395.952 67.4C395.955 67.4 395.958 67.4 395.961 67.4C395.964 67.4 395.967 67.4 395.97 67.4C395.972 67.4 395.975 67.4 395.978 67.4C395.981 67.4 395.984 67.4 395.987 67.4C395.99 67.4 395.993 67.4 395.996 67.4C395.999 67.4 396.002 67.4 396.005 67.4C396.008 67.4 396.01 67.4 396.013 67.4C396.016 67.4 396.019 67.4 396.022 67.4C396.025 67.4 396.028 67.4 396.031 67.4C396.034 67.4 396.037 67.4 396.04 67.4C396.043 67.4 396.045 67.4 396.048 67.4C396.051 67.4 396.054 67.4 396.057 67.4C396.06 67.4 396.063 67.4 396.066 67.4C396.069 67.4 396.072 67.4 396.075 67.4C396.078 67.4 396.08 67.4 396.083 67.4C396.086 67.4 396.089 67.4 396.092 67.4C396.095 67.4 396.098 67.4 396.101 67.4C396.104 67.4 396.107 67.4 396.11 67.4C396.112 67.4 396.115 67.4 396.118 67.4C396.121 67.4 396.124 67.4 396.127 67.4C396.13 67.4 396.133 67.4 396.136 67.4C396.139 67.4 396.142 67.4 396.144 67.4C396.147 67.4 396.15 67.4 396.153 67.4C396.156 67.4 396.159 67.4 396.162 67.4C396.165 67.4 396.168 67.4 396.171 67.4C396.173 67.4 396.176 67.4 396.179 67.4C396.182 67.4 396.185 67.4 396.188 67.4C396.191 67.4 396.194 67.4 396.197 67.4C396.2 67.4 396.202 67.4 396.205 67.4C396.208 67.4 396.211 67.4 396.214 67.4C396.217 67.4 396.22 67.4 396.223 67.4C396.226 67.4 396.229 67.4 396.231 67.4C396.234 67.4 396.237 67.4 396.24 67.4C396.243 67.4 396.246 67.4 396.249 67.4C396.252 67.4 396.255 67.4 396.257 67.4C396.26 67.4 396.263 67.4 396.266 67.4C396.269 67.4 396.272 67.4 396.275 67.4C396.278 67.4 396.281 67.4 396.284 67.4C396.286 67.4 396.289 67.4 396.292 67.4C396.295 67.4 396.298 67.4 396.301 67.4C396.304 67.4 396.307 67.4 396.309 67.4C396.312 67.4 396.315 67.4 396.318 67.4C396.321 67.4 396.324 67.4 396.327 67.4C396.33 67.4 396.333 67.4 396.335 67.4C396.338 67.4 396.341 67.4 396.344 67.4C396.347 67.4 396.35 67.4 396.353 67.4C396.356 67.4 396.358 67.4 396.361 67.4C396.364 67.4 396.367 67.4 396.37 67.4C396.373 67.4 396.376 67.4 396.379 67.4C396.382 67.4 396.384 67.4 396.387 67.4C396.39 67.4 396.393 67.4 396.396 67.4C396.399 67.4 396.402 67.4 396.405 67.4C396.407 67.4 396.41 67.4 396.413 67.4C396.416 67.4 396.419 67.4 396.422 67.4C396.425 67.4 396.428 67.4 396.43 67.4C396.433 67.4 396.436 67.4 396.439 67.4C396.442 67.4 396.445 67.4 396.448 67.4C396.451 67.4 396.453 67.4 396.456 67.4C396.459 67.4 396.462 67.4 396.465 67.4C396.468 67.4 396.471 67.4 396.473 67.4C396.476 67.4 396.479 67.4 396.482 67.4C396.485 67.4 396.488 67.4 396.491 67.4C396.493 67.4 396.496 67.4 396.499 67.4C396.502 67.4 396.505 67.4 396.508 67.4C396.511 67.4 396.514 67.4 396.516 67.4C396.519 67.4 396.522 67.4 396.525 67.4C396.528 67.4 396.531 67.4 396.534 67.4C396.536 67.4 396.539 67.4 396.542 67.4C396.545 67.4 396.548 67.4 396.551 67.4C396.554 67.4 396.556 67.4 396.559 67.4C396.562 67.4 396.565 67.4 396.568 67.4C396.571 67.4 396.574 67.4 396.576 67.4C396.579 67.4 396.582 67.4 396.585 67.4C396.588 67.4 396.591 67.4 396.594 67.4C396.596 67.4 396.599 67.4 396.602 67.4C396.605 67.4 396.608 67.4 396.611 67.4C396.613 67.4 396.616 67.4 396.619 67.4C396.622 67.4 396.625 67.4 396.628 67.4C396.631 67.4 396.633 67.4 396.636 67.4C396.639 67.4 396.642 67.4 396.645 67.4C396.648 67.4 396.651 67.4 396.653 67.4C396.656 67.4 396.659 67.4 396.662 67.4C396.665 67.4 396.668 67.4 396.67 67.4C396.673 67.4 396.676 67.4 396.679 67.4C396.682 67.4 396.685 67.4 396.687 67.4C396.69 67.4 396.693 67.4 396.696 67.4C396.699 67.4 396.702 67.4 396.705 67.4C396.707 67.4 396.71 67.4 396.713 67.4C396.716 67.4 396.719 67.4 396.722 67.4C396.724 67.4 396.727 67.4 396.73 67.4C396.733 67.4 396.736 67.4 396.739 67.4C396.741 67.4 396.744 67.4 396.747 67.4C396.75 67.4 396.753 67.4 396.756 67.4C396.758 67.4 396.761 67.4 396.764 67.4C396.767 67.4 396.77 67.4 396.773 67.4C396.775 67.4 396.778 67.4 396.781 67.4C396.784 67.4 396.787 67.4 396.79 67.4C396.792 67.4 396.795 67.4 396.798 67.4C396.801 67.4 396.804 67.4 396.807 67.4C396.809 67.4 396.812 67.4 396.815 67.4C396.818 67.4 396.821 67.4 396.823 67.4C396.826 67.4 396.829 67.4 396.832 67.4C396.835 67.4 396.838 67.4 396.84 67.4C396.843 67.4 396.846 67.4 396.849 67.4C396.852 67.4 396.855 67.4 396.857 67.4C396.86 67.4 396.863 67.4 396.866 67.4C396.869 67.4 396.871 67.4 396.874 67.4C396.877 67.4 396.88 67.4 396.883 67.4C396.886 67.4 396.888 67.4 396.891 67.4C396.894 67.4 396.897 67.4 396.9 67.4C396.902 67.4 396.905 67.4 396.908 67.4C396.911 67.4 396.914 67.4 396.917 67.4C396.919 67.4 396.922 67.4 396.925 67.4C396.928 67.4 396.931 67.4 396.933 67.4C396.936 67.4 396.939 67.4 396.942 67.4C396.945 67.4 396.947 67.4 396.95 67.4C396.953 67.4 396.956 67.4 396.959 67.4C396.961 67.4 396.964 67.4 396.967 67.4C396.97 67.4 396.973 67.4 396.976 67.4C396.978 67.4 396.981 67.4 396.984 67.4C396.987 67.4 396.99 67.4 396.992 67.4C396.995 67.4 396.998 67.4 397.001 67.4C397.004 67.4 397.006 67.4 397.009 67.4C397.012 67.4 397.015 67.4 397.018 67.4C397.02 67.4 397.023 67.4 397.026 67.4C397.029 67.4 397.032 67.4 397.034 67.4C397.037 67.4 397.04 67.4 397.043 67.4C397.046 67.4 397.048 67.4 397.051 67.4C397.054 67.4 397.057 67.4 397.06 67.4C397.062 67.4 397.065 67.4 397.068 67.4C397.071 67.4 397.074 67.4 397.076 67.4C397.079 67.4 397.082 67.4 397.085 67.4C397.088 67.4 397.09 67.4 397.093 67.4C397.096 67.4 397.099 67.4 397.101 67.4C397.104 67.4 397.107 67.4 397.11 67.4C397.113 67.4 397.115 67.4 397.118 67.4C397.121 67.4 397.124 67.4 397.127 67.4C397.129 67.4 397.132 67.4 397.135 67.4C397.138 67.4 397.141 67.4 397.143 67.4C397.146 67.4 397.149 67.4 397.152 67.4C397.154 67.4 397.157 67.4 397.16 67.4C397.163 67.4 397.166 67.4 397.168 67.4C397.171 67.4 397.174 67.4 397.177 67.4C397.18 67.4 397.182 67.4 397.185 67.4C397.188 67.4 397.191 67.4 397.193 67.4C397.196 67.4 397.199 67.4 397.202 67.4C397.205 67.4 397.207 67.4 397.21 67.4C397.213 67.4 397.216 67.4 397.218 67.4C397.221 67.4 397.224 67.4 397.227 67.4C397.23 67.4 397.232 67.4 397.235 67.4C397.238 67.4 397.241 67.4 397.243 67.4C397.246 67.4 397.249 67.4 397.252 67.4C397.254 67.4 397.257 67.4 397.26 67.4C397.263 67.4 397.266 67.4 397.268 67.4C397.271 67.4 397.274 67.4 397.277 67.4C397.279 67.4 397.282 67.4 397.285 67.4C397.288 67.4 397.29 67.4 397.293 67.4C397.296 67.4 397.299 67.4 397.302 67.4C397.304 67.4 397.307 67.4 397.31 67.4C397.313 67.4 397.315 67.4 397.318 67.4C397.321 67.4 397.324 67.4 397.326 67.4C397.329 67.4 397.332 67.4 397.335 67.4C397.338 67.4 397.34 67.4 397.343 67.4C397.346 67.4 397.349 67.4 397.351 67.4C397.354 67.4 397.357 67.4 397.36 67.4C397.362 67.4 397.365 67.4 397.368 67.4C397.371 67.4 397.373 67.4 397.376 67.4C397.379 67.4 397.382 67.4 397.384 67.4C397.387 67.4 397.39 67.4 397.393 67.4C397.395 67.4 397.398 67.4 397.401 67.4C397.404 67.4 397.406 67.4 397.409 67.4C397.412 67.4 397.415 67.4 397.417 67.4C397.42 67.4 397.423 67.4 397.426 67.4C397.428 67.4 397.431 67.4 397.434 67.4C397.437 67.4 397.439 67.4 397.442 67.4C397.445 67.4 397.448 67.4 397.451 67.4C397.453 67.4 397.456 67.4 397.459 67.4C397.461 67.4 397.464 67.4 397.467 67.4C397.47 67.4 397.472 67.4 397.475 67.4C397.478 67.4 397.481 67.4 397.483 67.4C397.486 67.4 397.489 67.4 397.492 67.4C397.494 67.4 397.497 67.4 397.5 67.4C397.503 67.4 397.505 67.4 397.508 67.4C397.511 67.4 397.514 67.4 397.516 67.4C397.519 67.4 397.522 67.4 397.525 67.4C397.527 67.4 397.53 67.4 397.533 67.4C397.536 67.4 397.538 67.4 397.541 67.4C397.544 67.4 397.546 67.4 397.549 67.4C397.552 67.4 397.555 67.4 397.557 67.4C397.56 67.4 397.563 67.4 397.566 67.4C397.568 67.4 397.571 67.4 397.574 67.4C397.577 67.4 397.579 67.4 397.582 67.4C397.585 67.4 397.587 67.4 397.59 67.4C397.593 67.4 397.596 67.4 397.598 67.4C397.601 67.4 397.604 67.4 397.607 67.4C397.609 67.4 397.612 67.4 397.615 67.4C397.618 67.4 397.62 67.4 397.623 67.4C397.626 67.4 397.628 67.4 397.631 67.4C397.634 67.4 397.637 67.4 397.639 67.4C397.642 67.4 397.645 67.4 397.648 67.4C397.65 67.4 397.653 67.4 397.656 67.4C397.658 67.4 397.661 67.4 397.664 67.4C397.667 67.4 397.669 67.4 397.672 67.4C397.675 67.4 397.677 67.4 397.68 67.4C397.683 67.4 397.686 67.4 397.688 67.4C397.691 67.4 397.694 67.4 397.697 67.4C397.699 67.4 397.702 67.4 397.705 67.4C397.707 67.4 397.71 67.4 397.713 67.4C397.716 67.4 397.718 67.4 397.721 67.4C397.724 67.4 397.726 67.4 397.729 67.4C397.732 67.4 397.734 67.4 397.737 67.4C397.74 67.4 397.743 67.4 397.745 67.4C397.748 67.4 397.751 67.4 397.754 67.4C397.756 67.4 397.759 67.4 397.762 67.4C397.764 67.4 397.767 67.4 397.77 67.4C397.772 67.4 397.775 67.4 397.778 67.4C397.781 67.4 397.783 67.4 397.786 67.4C397.789 67.4 397.791 67.4 397.794 67.4C397.797 67.4 397.8 67.4 397.802 67.4C397.805 67.4 397.808 67.4 397.81 67.4C397.813 67.4 397.816 67.4 397.818 67.4C397.821 67.4 397.824 67.4 397.827 67.4C397.829 67.4 397.832 67.4 397.835 67.4C397.837 67.4 397.84 67.4 397.843 67.4C397.845 67.4 397.848 67.4 397.851 67.4C397.854 67.4 397.856 67.4 397.859 67.4C397.862 67.4 397.864 67.4 397.867 67.4C397.87 67.4 397.872 67.4 397.875 67.4C397.878 67.4 397.881 67.4 397.883 67.4C397.886 67.4 397.889 67.4 397.891 67.4C397.894 67.4 397.897 67.4 397.899 67.4C397.902 67.4 397.905 67.4 397.907 67.4C397.91 67.4 397.913 67.4 397.916 67.4C397.918 67.4 397.921 67.4 397.924 67.4C397.926 67.4 397.929 67.4 397.932 67.4C397.934 67.4 397.937 67.4 397.94 67.4C397.942 67.4 397.945 67.4 397.948 67.4C397.951 67.4 397.953 67.4 397.956 67.4C397.959 67.4 397.961 67.4 397.964 67.4C397.967 67.4 397.969 67.4 397.972 67.4C397.975 67.4 397.977 67.4 397.98 67.4C397.983 67.4 397.985 67.4 397.988 67.4C397.991 67.4 397.993 67.4 397.996 67.4C397.999 67.4 398.001 67.4 398.004 67.4C398.007 67.4 398.01 67.4 398.012 67.4C398.015 67.4 398.018 67.4 398.02 67.4C398.023 67.4 398.026 67.4 398.028 67.4C398.031 67.4 398.034 67.4 398.036 67.4C398.039 67.4 398.042 67.4 398.044 67.4C398.047 67.4 398.05 67.4 398.052 67.4C398.055 67.4 398.058 67.4 398.06 67.4C398.063 67.4 398.066 67.4 398.068 67.4C398.071 67.4 398.074 67.4 398.076 67.4C398.079 67.4 398.082 67.4 398.084 67.4C398.087 67.4 398.09 67.4 398.092 67.4C398.095 67.4 398.098 67.4 398.1 67.4C398.103 67.4 398.106 67.4 398.108 67.4C398.111 67.4 398.114 67.4 398.116 67.4C398.119 67.4 398.122 67.4 398.124 67.4C398.127 67.4 398.13 67.4 398.132 67.4C398.135 67.4 398.138 67.4 398.14 67.4C398.143 67.4 398.146 67.4 398.148 67.4C398.151 67.4 398.154 67.4 398.156 67.4C398.159 67.4 398.162 67.4 398.164 67.4C398.167 67.4 398.17 67.4 398.172 67.4C398.175 67.4 398.178 67.4 398.18 67.4C398.183 67.4 398.186 67.4 398.188 67.4C398.191 67.4 398.194 67.4 398.196 67.4C398.199 67.4 398.202 67.4 398.204 67.4C398.207 67.4 398.209 67.4 398.212 67.4C398.215 67.4 398.217 67.4 398.22 67.4C398.223 67.4 398.225 67.4 398.228 67.4C398.231 67.4 398.233 67.4 398.236 67.4C398.239 67.4 398.241 67.4 398.244 67.4C398.247 67.4 398.249 67.4 398.252 67.4C398.255 67.4 398.257 67.4 398.26 67.4C398.262 67.4 398.265 67.4 398.268 67.4C398.27 67.4 398.273 67.4 398.276 67.4C398.278 67.4 398.281 67.4 398.284 67.4C398.286 67.4 398.289 67.4 398.292 67.4C398.294 67.4 398.297 67.4 398.299 67.4C398.302 67.4 398.305 67.4 398.307 67.4C398.31 67.4 398.313 67.4 398.315 67.4C398.318 67.4 398.321 67.4 398.323 67.4C398.326 67.4 398.329 67.4 398.331 67.4C398.334 67.4 398.336 67.4 398.339 67.4C398.342 67.4 398.344 67.4 398.347 67.4C398.35 67.4 398.352 67.4 398.355 67.4C398.358 67.4 398.36 67.4 398.363 67.4C398.365 67.4 398.368 67.4 398.371 67.4C398.373 67.4 398.376 67.4 398.379 67.4C398.381 67.4 398.384 67.4 398.386 67.4C398.389 67.4 398.392 67.4 398.394 67.4C398.397 67.4 398.4 67.4 398.402 67.4C398.405 67.4 398.408 67.4 398.41 67.4C398.413 67.4 398.415 67.4 398.418 67.4C398.421 67.4 398.423 67.4 398.426 67.4C398.429 67.4 398.431 67.4 398.434 67.4C398.436 67.4 398.439 67.4 398.442 67.4C398.444 67.4 398.447 67.4 398.45 67.4C398.452 67.4 398.455 67.4 398.457 67.4C398.46 67.4 398.463 67.4 398.465 67.4C398.468 67.4 398.47 67.4 398.473 67.4C398.476 67.4 398.478 67.4 398.481 67.4C398.484 67.4 398.486 67.4 398.489 67.4C398.491 67.4 398.494 67.4 398.497 67.4C398.499 67.4 398.502 67.4 398.505 67.4C398.507 67.4 398.51 67.4 398.512 67.4C398.515 67.4 398.518 67.4 398.52 67.4C398.523 67.4 398.525 67.4 398.528 67.4C398.531 67.4 398.533 67.4 398.536 67.4C398.538 67.4 398.541 67.4 398.544 67.4C398.546 67.4 398.549 67.4 398.552 67.4C398.554 67.4 398.557 67.4 398.559 67.4C398.562 67.4 398.565 67.4 398.567 67.4C398.57 67.4 398.572 67.4 398.575 67.4C398.578 67.4 398.58 67.4 398.583 67.4C398.585 67.4 398.588 67.4 398.591 67.4V65.4C398.588 65.4 398.585 65.4 398.583 65.4C398.58 65.4 398.578 65.4 398.575 65.4C398.572 65.4 398.57 65.4 398.567 65.4C398.565 65.4 398.562 65.4 398.559 65.4C398.557 65.4 398.554 65.4 398.552 65.4C398.549 65.4 398.546 65.4 398.544 65.4C398.541 65.4 398.538 65.4 398.536 65.4C398.533 65.4 398.531 65.4 398.528 65.4C398.525 65.4 398.523 65.4 398.52 65.4C398.518 65.4 398.515 65.4 398.512 65.4C398.51 65.4 398.507 65.4 398.505 65.4C398.502 65.4 398.499 65.4 398.497 65.4C398.494 65.4 398.491 65.4 398.489 65.4C398.486 65.4 398.484 65.4 398.481 65.4C398.478 65.4 398.476 65.4 398.473 65.4C398.47 65.4 398.468 65.4 398.465 65.4C398.463 65.4 398.46 65.4 398.457 65.4C398.455 65.4 398.452 65.4 398.45 65.4C398.447 65.4 398.444 65.4 398.442 65.4C398.439 65.4 398.436 65.4 398.434 65.4C398.431 65.4 398.429 65.4 398.426 65.4C398.423 65.4 398.421 65.4 398.418 65.4C398.415 65.4 398.413 65.4 398.41 65.4C398.408 65.4 398.405 65.4 398.402 65.4C398.4 65.4 398.397 65.4 398.394 65.4C398.392 65.4 398.389 65.4 398.386 65.4C398.384 65.4 398.381 65.4 398.379 65.4C398.376 65.4 398.373 65.4 398.371 65.4C398.368 65.4 398.365 65.4 398.363 65.4C398.36 65.4 398.358 65.4 398.355 65.4C398.352 65.4 398.35 65.4 398.347 65.4C398.344 65.4 398.342 65.4 398.339 65.4C398.336 65.4 398.334 65.4 398.331 65.4C398.329 65.4 398.326 65.4 398.323 65.4C398.321 65.4 398.318 65.4 398.315 65.4C398.313 65.4 398.31 65.4 398.307 65.4C398.305 65.4 398.302 65.4 398.299 65.4C398.297 65.4 398.294 65.4 398.292 65.4C398.289 65.4 398.286 65.4 398.284 65.4C398.281 65.4 398.278 65.4 398.276 65.4C398.273 65.4 398.27 65.4 398.268 65.4C398.265 65.4 398.262 65.4 398.26 65.4C398.257 65.4 398.255 65.4 398.252 65.4C398.249 65.4 398.247 65.4 398.244 65.4C398.241 65.4 398.239 65.4 398.236 65.4C398.233 65.4 398.231 65.4 398.228 65.4C398.225 65.4 398.223 65.4 398.22 65.4C398.217 65.4 398.215 65.4 398.212 65.4C398.209 65.4 398.207 65.4 398.204 65.4C398.202 65.4 398.199 65.4 398.196 65.4C398.194 65.4 398.191 65.4 398.188 65.4C398.186 65.4 398.183 65.4 398.18 65.4C398.178 65.4 398.175 65.4 398.172 65.4C398.17 65.4 398.167 65.4 398.164 65.4C398.162 65.4 398.159 65.4 398.156 65.4C398.154 65.4 398.151 65.4 398.148 65.4C398.146 65.4 398.143 65.4 398.14 65.4C398.138 65.4 398.135 65.4 398.132 65.4C398.13 65.4 398.127 65.4 398.124 65.4C398.122 65.4 398.119 65.4 398.116 65.4C398.114 65.4 398.111 65.4 398.108 65.4C398.106 65.4 398.103 65.4 398.1 65.4C398.098 65.4 398.095 65.4 398.092 65.4C398.09 65.4 398.087 65.4 398.084 65.4C398.082 65.4 398.079 65.4 398.076 65.4C398.074 65.4 398.071 65.4 398.068 65.4C398.066 65.4 398.063 65.4 398.06 65.4C398.058 65.4 398.055 65.4 398.052 65.4C398.05 65.4 398.047 65.4 398.044 65.4C398.042 65.4 398.039 65.4 398.036 65.4C398.034 65.4 398.031 65.4 398.028 65.4C398.026 65.4 398.023 65.4 398.02 65.4C398.018 65.4 398.015 65.4 398.012 65.4C398.01 65.4 398.007 65.4 398.004 65.4C398.001 65.4 397.999 65.4 397.996 65.4C397.993 65.4 397.991 65.4 397.988 65.4C397.985 65.4 397.983 65.4 397.98 65.4C397.977 65.4 397.975 65.4 397.972 65.4C397.969 65.4 397.967 65.4 397.964 65.4C397.961 65.4 397.959 65.4 397.956 65.4C397.953 65.4 397.951 65.4 397.948 65.4C397.945 65.4 397.942 65.4 397.94 65.4C397.937 65.4 397.934 65.4 397.932 65.4C397.929 65.4 397.926 65.4 397.924 65.4C397.921 65.4 397.918 65.4 397.916 65.4C397.913 65.4 397.91 65.4 397.907 65.4C397.905 65.4 397.902 65.4 397.899 65.4C397.897 65.4 397.894 65.4 397.891 65.4C397.889 65.4 397.886 65.4 397.883 65.4C397.881 65.4 397.878 65.4 397.875 65.4C397.872 65.4 397.87 65.4 397.867 65.4C397.864 65.4 397.862 65.4 397.859 65.4C397.856 65.4 397.854 65.4 397.851 65.4C397.848 65.4 397.845 65.4 397.843 65.4C397.84 65.4 397.837 65.4 397.835 65.4C397.832 65.4 397.829 65.4 397.827 65.4C397.824 65.4 397.821 65.4 397.818 65.4C397.816 65.4 397.813 65.4 397.81 65.4C397.808 65.4 397.805 65.4 397.802 65.4C397.8 65.4 397.797 65.4 397.794 65.4C397.791 65.4 397.789 65.4 397.786 65.4C397.783 65.4 397.781 65.4 397.778 65.4C397.775 65.4 397.772 65.4 397.77 65.4C397.767 65.4 397.764 65.4 397.762 65.4C397.759 65.4 397.756 65.4 397.754 65.4C397.751 65.4 397.748 65.4 397.745 65.4C397.743 65.4 397.74 65.4 397.737 65.4C397.734 65.4 397.732 65.4 397.729 65.4C397.726 65.4 397.724 65.4 397.721 65.4C397.718 65.4 397.716 65.4 397.713 65.4C397.71 65.4 397.707 65.4 397.705 65.4C397.702 65.4 397.699 65.4 397.697 65.4C397.694 65.4 397.691 65.4 397.688 65.4C397.686 65.4 397.683 65.4 397.68 65.4C397.677 65.4 397.675 65.4 397.672 65.4C397.669 65.4 397.667 65.4 397.664 65.4C397.661 65.4 397.658 65.4 397.656 65.4C397.653 65.4 397.65 65.4 397.648 65.4C397.645 65.4 397.642 65.4 397.639 65.4C397.637 65.4 397.634 65.4 397.631 65.4C397.628 65.4 397.626 65.4 397.623 65.4C397.62 65.4 397.618 65.4 397.615 65.4C397.612 65.4 397.609 65.4 397.607 65.4C397.604 65.4 397.601 65.4 397.598 65.4C397.596 65.4 397.593 65.4 397.59 65.4C397.587 65.4 397.585 65.4 397.582 65.4C397.579 65.4 397.577 65.4 397.574 65.4C397.571 65.4 397.568 65.4 397.566 65.4C397.563 65.4 397.56 65.4 397.557 65.4C397.555 65.4 397.552 65.4 397.549 65.4C397.546 65.4 397.544 65.4 397.541 65.4C397.538 65.4 397.536 65.4 397.533 65.4C397.53 65.4 397.527 65.4 397.525 65.4C397.522 65.4 397.519 65.4 397.516 65.4C397.514 65.4 397.511 65.4 397.508 65.4C397.505 65.4 397.503 65.4 397.5 65.4C397.497 65.4 397.494 65.4 397.492 65.4C397.489 65.4 397.486 65.4 397.483 65.4C397.481 65.4 397.478 65.4 397.475 65.4C397.472 65.4 397.47 65.4 397.467 65.4C397.464 65.4 397.461 65.4 397.459 65.4C397.456 65.4 397.453 65.4 397.451 65.4C397.448 65.4 397.445 65.4 397.442 65.4C397.439 65.4 397.437 65.4 397.434 65.4C397.431 65.4 397.428 65.4 397.426 65.4C397.423 65.4 397.42 65.4 397.417 65.4C397.415 65.4 397.412 65.4 397.409 65.4C397.406 65.4 397.404 65.4 397.401 65.4C397.398 65.4 397.395 65.4 397.393 65.4C397.39 65.4 397.387 65.4 397.384 65.4C397.382 65.4 397.379 65.4 397.376 65.4C397.373 65.4 397.371 65.4 397.368 65.4C397.365 65.4 397.362 65.4 397.36 65.4C397.357 65.4 397.354 65.4 397.351 65.4C397.349 65.4 397.346 65.4 397.343 65.4C397.34 65.4 397.338 65.4 397.335 65.4C397.332 65.4 397.329 65.4 397.326 65.4C397.324 65.4 397.321 65.4 397.318 65.4C397.315 65.4 397.313 65.4 397.31 65.4C397.307 65.4 397.304 65.4 397.302 65.4C397.299 65.4 397.296 65.4 397.293 65.4C397.29 65.4 397.288 65.4 397.285 65.4C397.282 65.4 397.279 65.4 397.277 65.4C397.274 65.4 397.271 65.4 397.268 65.4C397.266 65.4 397.263 65.4 397.26 65.4C397.257 65.4 397.254 65.4 397.252 65.4C397.249 65.4 397.246 65.4 397.243 65.4C397.241 65.4 397.238 65.4 397.235 65.4C397.232 65.4 397.23 65.4 397.227 65.4C397.224 65.4 397.221 65.4 397.218 65.4C397.216 65.4 397.213 65.4 397.21 65.4C397.207 65.4 397.205 65.4 397.202 65.4C397.199 65.4 397.196 65.4 397.193 65.4C397.191 65.4 397.188 65.4 397.185 65.4C397.182 65.4 397.18 65.4 397.177 65.4C397.174 65.4 397.171 65.4 397.168 65.4C397.166 65.4 397.163 65.4 397.16 65.4C397.157 65.4 397.154 65.4 397.152 65.4C397.149 65.4 397.146 65.4 397.143 65.4C397.141 65.4 397.138 65.4 397.135 65.4C397.132 65.4 397.129 65.4 397.127 65.4C397.124 65.4 397.121 65.4 397.118 65.4C397.115 65.4 397.113 65.4 397.11 65.4C397.107 65.4 397.104 65.4 397.101 65.4C397.099 65.4 397.096 65.4 397.093 65.4C397.09 65.4 397.088 65.4 397.085 65.4C397.082 65.4 397.079 65.4 397.076 65.4C397.074 65.4 397.071 65.4 397.068 65.4C397.065 65.4 397.062 65.4 397.06 65.4C397.057 65.4 397.054 65.4 397.051 65.4C397.048 65.4 397.046 65.4 397.043 65.4C397.04 65.4 397.037 65.4 397.034 65.4C397.032 65.4 397.029 65.4 397.026 65.4C397.023 65.4 397.02 65.4 397.018 65.4C397.015 65.4 397.012 65.4 397.009 65.4C397.006 65.4 397.004 65.4 397.001 65.4C396.998 65.4 396.995 65.4 396.992 65.4C396.99 65.4 396.987 65.4 396.984 65.4C396.981 65.4 396.978 65.4 396.976 65.4C396.973 65.4 396.97 65.4 396.967 65.4C396.964 65.4 396.961 65.4 396.959 65.4C396.956 65.4 396.953 65.4 396.95 65.4C396.947 65.4 396.945 65.4 396.942 65.4C396.939 65.4 396.936 65.4 396.933 65.4C396.931 65.4 396.928 65.4 396.925 65.4C396.922 65.4 396.919 65.4 396.917 65.4C396.914 65.4 396.911 65.4 396.908 65.4C396.905 65.4 396.902 65.4 396.9 65.4C396.897 65.4 396.894 65.4 396.891 65.4C396.888 65.4 396.886 65.4 396.883 65.4C396.88 65.4 396.877 65.4 396.874 65.4C396.871 65.4 396.869 65.4 396.866 65.4C396.863 65.4 396.86 65.4 396.857 65.4C396.855 65.4 396.852 65.4 396.849 65.4C396.846 65.4 396.843 65.4 396.84 65.4C396.838 65.4 396.835 65.4 396.832 65.4C396.829 65.4 396.826 65.4 396.823 65.4C396.821 65.4 396.818 65.4 396.815 65.4C396.812 65.4 396.809 65.4 396.807 65.4C396.804 65.4 396.801 65.4 396.798 65.4C396.795 65.4 396.792 65.4 396.79 65.4C396.787 65.4 396.784 65.4 396.781 65.4C396.778 65.4 396.775 65.4 396.773 65.4C396.77 65.4 396.767 65.4 396.764 65.4C396.761 65.4 396.758 65.4 396.756 65.4C396.753 65.4 396.75 65.4 396.747 65.4C396.744 65.4 396.741 65.4 396.739 65.4C396.736 65.4 396.733 65.4 396.73 65.4C396.727 65.4 396.724 65.4 396.722 65.4C396.719 65.4 396.716 65.4 396.713 65.4C396.71 65.4 396.707 65.4 396.705 65.4C396.702 65.4 396.699 65.4 396.696 65.4C396.693 65.4 396.69 65.4 396.687 65.4C396.685 65.4 396.682 65.4 396.679 65.4C396.676 65.4 396.673 65.4 396.67 65.4C396.668 65.4 396.665 65.4 396.662 65.4C396.659 65.4 396.656 65.4 396.653 65.4C396.651 65.4 396.648 65.4 396.645 65.4C396.642 65.4 396.639 65.4 396.636 65.4C396.633 65.4 396.631 65.4 396.628 65.4C396.625 65.4 396.622 65.4 396.619 65.4C396.616 65.4 396.613 65.4 396.611 65.4C396.608 65.4 396.605 65.4 396.602 65.4C396.599 65.4 396.596 65.4 396.594 65.4C396.591 65.4 396.588 65.4 396.585 65.4C396.582 65.4 396.579 65.4 396.576 65.4C396.574 65.4 396.571 65.4 396.568 65.4C396.565 65.4 396.562 65.4 396.559 65.4C396.556 65.4 396.554 65.4 396.551 65.4C396.548 65.4 396.545 65.4 396.542 65.4C396.539 65.4 396.536 65.4 396.534 65.4C396.531 65.4 396.528 65.4 396.525 65.4C396.522 65.4 396.519 65.4 396.516 65.4C396.514 65.4 396.511 65.4 396.508 65.4C396.505 65.4 396.502 65.4 396.499 65.4C396.496 65.4 396.493 65.4 396.491 65.4C396.488 65.4 396.485 65.4 396.482 65.4C396.479 65.4 396.476 65.4 396.473 65.4C396.471 65.4 396.468 65.4 396.465 65.4C396.462 65.4 396.459 65.4 396.456 65.4C396.453 65.4 396.451 65.4 396.448 65.4C396.445 65.4 396.442 65.4 396.439 65.4C396.436 65.4 396.433 65.4 396.43 65.4C396.428 65.4 396.425 65.4 396.422 65.4C396.419 65.4 396.416 65.4 396.413 65.4C396.41 65.4 396.407 65.4 396.405 65.4C396.402 65.4 396.399 65.4 396.396 65.4C396.393 65.4 396.39 65.4 396.387 65.4C396.384 65.4 396.382 65.4 396.379 65.4C396.376 65.4 396.373 65.4 396.37 65.4C396.367 65.4 396.364 65.4 396.361 65.4C396.358 65.4 396.356 65.4 396.353 65.4C396.35 65.4 396.347 65.4 396.344 65.4C396.341 65.4 396.338 65.4 396.335 65.4C396.333 65.4 396.33 65.4 396.327 65.4C396.324 65.4 396.321 65.4 396.318 65.4C396.315 65.4 396.312 65.4 396.309 65.4C396.307 65.4 396.304 65.4 396.301 65.4C396.298 65.4 396.295 65.4 396.292 65.4C396.289 65.4 396.286 65.4 396.284 65.4C396.281 65.4 396.278 65.4 396.275 65.4C396.272 65.4 396.269 65.4 396.266 65.4C396.263 65.4 396.26 65.4 396.257 65.4C396.255 65.4 396.252 65.4 396.249 65.4C396.246 65.4 396.243 65.4 396.24 65.4C396.237 65.4 396.234 65.4 396.231 65.4C396.229 65.4 396.226 65.4 396.223 65.4C396.22 65.4 396.217 65.4 396.214 65.4C396.211 65.4 396.208 65.4 396.205 65.4C396.202 65.4 396.2 65.4 396.197 65.4C396.194 65.4 396.191 65.4 396.188 65.4C396.185 65.4 396.182 65.4 396.179 65.4C396.176 65.4 396.173 65.4 396.171 65.4C396.168 65.4 396.165 65.4 396.162 65.4C396.159 65.4 396.156 65.4 396.153 65.4C396.15 65.4 396.147 65.4 396.144 65.4C396.142 65.4 396.139 65.4 396.136 65.4C396.133 65.4 396.13 65.4 396.127 65.4C396.124 65.4 396.121 65.4 396.118 65.4C396.115 65.4 396.112 65.4 396.11 65.4C396.107 65.4 396.104 65.4 396.101 65.4C396.098 65.4 396.095 65.4 396.092 65.4C396.089 65.4 396.086 65.4 396.083 65.4C396.08 65.4 396.078 65.4 396.075 65.4C396.072 65.4 396.069 65.4 396.066 65.4C396.063 65.4 396.06 65.4 396.057 65.4C396.054 65.4 396.051 65.4 396.048 65.4C396.045 65.4 396.043 65.4 396.04 65.4C396.037 65.4 396.034 65.4 396.031 65.4C396.028 65.4 396.025 65.4 396.022 65.4C396.019 65.4 396.016 65.4 396.013 65.4C396.01 65.4 396.008 65.4 396.005 65.4C396.002 65.4 395.999 65.4 395.996 65.4C395.993 65.4 395.99 65.4 395.987 65.4C395.984 65.4 395.981 65.4 395.978 65.4C395.975 65.4 395.972 65.4 395.97 65.4C395.967 65.4 395.964 65.4 395.961 65.4C395.958 65.4 395.955 65.4 395.952 65.4C395.949 65.4 395.946 65.4 395.943 65.4C395.94 65.4 395.937 65.4 395.934 65.4C395.931 65.4 395.929 65.4 395.926 65.4C395.923 65.4 395.92 65.4 395.917 65.4C395.914 65.4 395.911 65.4 395.908 65.4C395.905 65.4 395.902 65.4 395.899 65.4C395.896 65.4 395.893 65.4 395.89 65.4C395.887 65.4 395.885 65.4 395.882 65.4C395.879 65.4 395.876 65.4 395.873 65.4C395.87 65.4 395.867 65.4 395.864 65.4C395.861 65.4 395.858 65.4 395.855 65.4C395.852 65.4 395.849 65.4 395.846 65.4C395.843 65.4 395.84 65.4 395.838 65.4C395.835 65.4 395.832 65.4 395.829 65.4C395.826 65.4 395.823 65.4 395.82 65.4C395.817 65.4 395.814 65.4 395.811 65.4C395.808 65.4 395.805 65.4 395.802 65.4C395.799 65.4 395.796 65.4 395.793 65.4C395.79 65.4 395.787 65.4 395.785 65.4C395.782 65.4 395.779 65.4 395.776 65.4C395.773 65.4 395.77 65.4 395.767 65.4C395.764 65.4 395.761 65.4 395.758 65.4C395.755 65.4 395.752 65.4 395.749 65.4C395.746 65.4 395.743 65.4 395.74 65.4C395.737 65.4 395.734 65.4 395.731 65.4C395.728 65.4 395.726 65.4 395.723 65.4C395.72 65.4 395.717 65.4 395.714 65.4C395.711 65.4 395.708 65.4 395.705 65.4C395.702 65.4 395.699 65.4 395.696 65.4C395.693 65.4 395.69 65.4 395.687 65.4C395.684 65.4 395.681 65.4 395.678 65.4C395.675 65.4 395.672 65.4 395.669 65.4C395.666 65.4 395.663 65.4 395.66 65.4C395.658 65.4 395.655 65.4 395.652 65.4C395.649 65.4 395.646 65.4 395.643 65.4C395.64 65.4 395.637 65.4 395.634 65.4C395.631 65.4 395.628 65.4 395.625 65.4C395.622 65.4 395.619 65.4 395.616 65.4C395.613 65.4 395.61 65.4 395.607 65.4C395.604 65.4 395.601 65.4 395.598 65.4C395.595 65.4 395.592 65.4 395.589 65.4C395.586 65.4 395.583 65.4 395.58 65.4C395.577 65.4 395.574 65.4 395.571 65.4C395.568 65.4 395.566 65.4 395.563 65.4C395.56 65.4 395.557 65.4 395.554 65.4C395.551 65.4 395.548 65.4 395.545 65.4C395.542 65.4 395.539 65.4 395.536 65.4C395.533 65.4 395.53 65.4 395.527 65.4C395.524 65.4 395.521 65.4 395.518 65.4C395.515 65.4 395.512 65.4 395.509 65.4C395.506 65.4 395.503 65.4 395.5 65.4C395.497 65.4 395.494 65.4 395.491 65.4C395.488 65.4 395.485 65.4 395.482 65.4C395.479 65.4 395.476 65.4 395.473 65.4C395.47 65.4 395.467 65.4 395.464 65.4C395.461 65.4 395.458 65.4 395.455 65.4C395.452 65.4 395.449 65.4 395.446 65.4C395.443 65.4 395.44 65.4 395.437 65.4C395.434 65.4 395.431 65.4 395.428 65.4C395.425 65.4 395.422 65.4 395.419 65.4C395.417 65.4 395.414 65.4 395.411 65.4C395.408 65.4 395.405 65.4 395.402 65.4C395.399 65.4 395.396 65.4 395.393 65.4C395.39 65.4 395.387 65.4 395.384 65.4C395.381 65.4 395.378 65.4 395.375 65.4C395.372 65.4 395.369 65.4 395.366 65.4C395.363 65.4 395.36 65.4 395.357 65.4C395.354 65.4 395.351 65.4 395.348 65.4C395.345 65.4 395.342 65.4 395.339 65.4C395.336 65.4 395.333 65.4 395.33 65.4C395.327 65.4 395.324 65.4 395.321 65.4C395.318 65.4 395.315 65.4 395.312 65.4C395.309 65.4 395.306 65.4 395.303 65.4C395.3 65.4 395.297 65.4 395.294 65.4C395.291 65.4 395.288 65.4 395.285 65.4C395.282 65.4 395.279 65.4 395.276 65.4C395.273 65.4 395.27 65.4 395.267 65.4C395.264 65.4 395.261 65.4 395.258 65.4C395.255 65.4 395.252 65.4 395.249 65.4C395.246 65.4 395.243 65.4 395.24 65.4C395.237 65.4 395.234 65.4 395.231 65.4C395.228 65.4 395.224 65.4 395.221 65.4C395.218 65.4 395.215 65.4 395.212 65.4C395.209 65.4 395.206 65.4 395.203 65.4C395.2 65.4 395.197 65.4 395.194 65.4C395.191 65.4 395.188 65.4 395.185 65.4C395.182 65.4 395.179 65.4 395.176 65.4C395.173 65.4 395.17 65.4 395.167 65.4C395.164 65.4 395.161 65.4 395.158 65.4C395.155 65.4 395.152 65.4 395.149 65.4C395.146 65.4 395.143 65.4 395.14 65.4C395.137 65.4 395.134 65.4 395.131 65.4C395.128 65.4 395.125 65.4 395.122 65.4C395.119 65.4 395.116 65.4 395.113 65.4C395.11 65.4 395.107 65.4 395.104 65.4C395.101 65.4 395.098 65.4 395.095 65.4C395.092 65.4 395.089 65.4 395.086 65.4C395.083 65.4 395.08 65.4 395.077 65.4C395.074 65.4 395.071 65.4 395.067 65.4C395.064 65.4 395.061 65.4 395.058 65.4C395.055 65.4 395.052 65.4 395.049 65.4C395.046 65.4 395.043 65.4 395.04 65.4C395.037 65.4 395.034 65.4 395.031 65.4C395.028 65.4 395.025 65.4 395.022 65.4C395.019 65.4 395.016 65.4 395.013 65.4C395.01 65.4 395.007 65.4 395.004 65.4C395.001 65.4 394.998 65.4 394.995 65.4C394.992 65.4 394.989 65.4 394.986 65.4C394.983 65.4 394.98 65.4 394.976 65.4C394.973 65.4 394.97 65.4 394.967 65.4C394.964 65.4 394.961 65.4 394.958 65.4C394.955 65.4 394.952 65.4 394.949 65.4C394.946 65.4 394.943 65.4 394.94 65.4C394.937 65.4 394.934 65.4 394.931 65.4C394.928 65.4 394.925 65.4 394.922 65.4C394.919 65.4 394.916 65.4 394.913 65.4C394.91 65.4 394.906 65.4 394.903 65.4C394.9 65.4 394.897 65.4 394.894 65.4C394.891 65.4 394.888 65.4 394.885 65.4C394.882 65.4 394.879 65.4 394.876 65.4C394.873 65.4 394.87 65.4 394.867 65.4C394.864 65.4 394.861 65.4 394.858 65.4C394.855 65.4 394.852 65.4 394.849 65.4C394.846 65.4 394.842 65.4 394.839 65.4C394.836 65.4 394.833 65.4 394.83 65.4C394.827 65.4 394.824 65.4 394.821 65.4C394.818 65.4 394.815 65.4 394.812 65.4C394.809 65.4 394.806 65.4 394.803 65.4C394.8 65.4 394.797 65.4 394.794 65.4C394.79 65.4 394.787 65.4 394.784 65.4C394.781 65.4 394.778 65.4 394.775 65.4C394.772 65.4 394.769 65.4 394.766 65.4C394.763 65.4 394.76 65.4 394.757 65.4C394.754 65.4 394.751 65.4 394.748 65.4C394.745 65.4 394.742 65.4 394.738 65.4C394.735 65.4 394.732 65.4 394.729 65.4C394.726 65.4 394.723 65.4 394.72 65.4C394.717 65.4 394.714 65.4 394.711 65.4C394.708 65.4 394.705 65.4 394.702 65.4C394.699 65.4 394.695 65.4 394.692 65.4C394.689 65.4 394.686 65.4 394.683 65.4C394.68 65.4 394.677 65.4 394.674 65.4C394.671 65.4 394.668 65.4 394.665 65.4C394.662 65.4 394.659 65.4 394.656 65.4C394.652 65.4 394.649 65.4 394.646 65.4C394.643 65.4 394.64 65.4 394.637 65.4C394.634 65.4 394.631 65.4 394.628 65.4C394.625 65.4 394.622 65.4 394.619 65.4C394.616 65.4 394.612 65.4 394.609 65.4C394.606 65.4 394.603 65.4 394.6 65.4C394.597 65.4 394.594 65.4 394.591 65.4C394.588 65.4 394.585 65.4 394.582 65.4C394.579 65.4 394.576 65.4 394.572 65.4C394.569 65.4 394.566 65.4 394.563 65.4C394.56 65.4 394.557 65.4 394.554 65.4C394.551 65.4 394.548 65.4 394.545 65.4C394.542 65.4 394.539 65.4 394.535 65.4C394.532 65.4 394.529 65.4 394.526 65.4C394.523 65.4 394.52 65.4 394.517 65.4C394.514 65.4 394.511 65.4 394.508 65.4C394.505 65.4 394.501 65.4 394.498 65.4C394.495 65.4 394.492 65.4 394.489 65.4C394.486 65.4 394.483 65.4 394.48 65.4C394.477 65.4 394.474 65.4 394.471 65.4C394.467 65.4 394.464 65.4 394.461 65.4C394.458 65.4 394.455 65.4 394.452 65.4C394.449 65.4 394.446 65.4 394.443 65.4C394.44 65.4 394.436 65.4 394.433 65.4C394.43 65.4 394.427 65.4 394.424 65.4C394.421 65.4 394.418 65.4 394.415 65.4C394.412 65.4 394.409 65.4 394.405 65.4C394.402 65.4 394.399 65.4 394.396 65.4C394.393 65.4 394.39 65.4 394.387 65.4C394.384 65.4 394.381 65.4 394.378 65.4C394.374 65.4 394.371 65.4 394.368 65.4C394.365 65.4 394.362 65.4 394.359 65.4C394.356 65.4 394.353 65.4 394.35 65.4C394.346 65.4 394.343 65.4 394.34 65.4C394.337 65.4 394.334 65.4 394.331 65.4C394.328 65.4 394.325 65.4 394.322 65.4C394.318 65.4 394.315 65.4 394.312 65.4C394.309 65.4 394.306 65.4 394.303 65.4C394.3 65.4 394.297 65.4 394.294 65.4C394.29 65.4 394.287 65.4 394.284 65.4C394.281 65.4 394.278 65.4 394.275 65.4C394.272 65.4 394.269 65.4 394.266 65.4C394.262 65.4 394.259 65.4 394.256 65.4C394.253 65.4 394.25 65.4 394.247 65.4C394.244 65.4 394.241 65.4 394.237 65.4C394.234 65.4 394.231 65.4 394.228 65.4C394.225 65.4 394.222 65.4 394.219 65.4C394.216 65.4 394.212 65.4 394.209 65.4C394.206 65.4 394.203 65.4 394.2 65.4C394.197 65.4 394.194 65.4 394.191 65.4V67.4ZM398.591 67.4C398.593 67.4 398.596 67.4 398.598 67.4C398.601 67.4 398.604 67.4 398.606 67.4C398.609 67.4 398.611 67.4 398.614 67.4C398.617 67.4 398.619 67.4 398.622 67.4C398.624 67.4 398.627 67.4 398.63 67.4C398.632 67.4 398.635 67.4 398.638 67.4C398.64 67.4 398.643 67.4 398.645 67.4C398.648 67.4 398.651 67.4 398.653 67.4C398.656 67.4 398.658 67.4 398.661 67.4C398.664 67.4 398.666 67.4 398.669 67.4C398.671 67.4 398.674 67.4 398.677 67.4C398.679 67.4 398.682 67.4 398.684 67.4C398.687 67.4 398.69 67.4 398.692 67.4C398.695 67.4 398.697 67.4 398.7 67.4C398.703 67.4 398.705 67.4 398.708 67.4C398.71 67.4 398.713 67.4 398.716 67.4C398.718 67.4 398.721 67.4 398.723 67.4C398.726 67.4 398.729 67.4 398.731 67.4C398.734 67.4 398.736 67.4 398.739 67.4C398.742 67.4 398.744 67.4 398.747 67.4C398.749 67.4 398.752 67.4 398.755 67.4C398.757 67.4 398.76 67.4 398.763 67.4C398.765 67.4 398.768 67.4 398.77 67.4C398.773 67.4 398.776 67.4 398.778 67.4C398.781 67.4 398.783 67.4 398.786 67.4C398.789 67.4 398.791 67.4 398.794 67.4C398.796 67.4 398.799 67.4 398.802 67.4C398.804 67.4 398.807 67.4 398.809 67.4C398.812 67.4 398.815 67.4 398.817 67.4C398.82 67.4 398.822 67.4 398.825 67.4C398.828 67.4 398.83 67.4 398.833 67.4C398.835 67.4 398.838 67.4 398.841 67.4C398.843 67.4 398.846 67.4 398.848 67.4C398.851 67.4 398.854 67.4 398.856 67.4C398.859 67.4 398.861 67.4 398.864 67.4C398.867 67.4 398.869 67.4 398.872 67.4C398.874 67.4 398.877 67.4 398.88 67.4C398.882 67.4 398.885 67.4 398.888 67.4C398.89 67.4 398.893 67.4 398.895 67.4C398.898 67.4 398.901 67.4 398.903 67.4C398.906 67.4 398.908 67.4 398.911 67.4C398.914 67.4 398.916 67.4 398.919 67.4C398.921 67.4 398.924 67.4 398.927 67.4C398.929 67.4 398.932 67.4 398.934 67.4C398.937 67.4 398.94 67.4 398.942 67.4C398.945 67.4 398.947 67.4 398.95 67.4C398.953 67.4 398.955 67.4 398.958 67.4C398.96 67.4 398.963 67.4 398.966 67.4C398.968 67.4 398.971 67.4 398.973 67.4C398.976 67.4 398.979 67.4 398.981 67.4C398.984 67.4 398.986 67.4 398.989 67.4C398.992 67.4 398.994 67.4 398.997 67.4C398.999 67.4 399.002 67.4 399.005 67.4C399.007 67.4 399.01 67.4 399.013 67.4C399.015 67.4 399.018 67.4 399.02 67.4C399.023 67.4 399.026 67.4 399.028 67.4C399.031 67.4 399.033 67.4 399.036 67.4C399.039 67.4 399.041 67.4 399.044 67.4C399.046 67.4 399.049 67.4 399.052 67.4C399.054 67.4 399.057 67.4 399.059 67.4C399.062 67.4 399.065 67.4 399.067 67.4C399.07 67.4 399.072 67.4 399.075 67.4C399.078 67.4 399.08 67.4 399.083 67.4C399.085 67.4 399.088 67.4 399.091 67.4C399.093 67.4 399.096 67.4 399.098 67.4C399.101 67.4 399.104 67.4 399.106 67.4C399.109 67.4 399.111 67.4 399.114 67.4C399.117 67.4 399.119 67.4 399.122 67.4C399.124 67.4 399.127 67.4 399.13 67.4C399.132 67.4 399.135 67.4 399.138 67.4C399.14 67.4 399.143 67.4 399.145 67.4C399.148 67.4 399.151 67.4 399.153 67.4C399.156 67.4 399.158 67.4 399.161 67.4C399.164 67.4 399.166 67.4 399.169 67.4C399.171 67.4 399.174 67.4 399.177 67.4C399.179 67.4 399.182 67.4 399.184 67.4C399.187 67.4 399.19 67.4 399.192 67.4C399.195 67.4 399.197 67.4 399.2 67.4C399.203 67.4 399.205 67.4 399.208 67.4C399.21 67.4 399.213 67.4 399.216 67.4C399.218 67.4 399.221 67.4 399.223 67.4C399.226 67.4 399.229 67.4 399.231 67.4C399.234 67.4 399.236 67.4 399.239 67.4C399.242 67.4 399.244 67.4 399.247 67.4C399.249 67.4 399.252 67.4 399.255 67.4C399.257 67.4 399.26 67.4 399.263 67.4C399.265 67.4 399.268 67.4 399.27 67.4C399.273 67.4 399.276 67.4 399.278 67.4C399.281 67.4 399.283 67.4 399.286 67.4C399.289 67.4 399.291 67.4 399.294 67.4C399.296 67.4 399.299 67.4 399.302 67.4C399.304 67.4 399.307 67.4 399.309 67.4C399.312 67.4 399.315 67.4 399.317 67.4C399.32 67.4 399.322 67.4 399.325 67.4C399.328 67.4 399.33 67.4 399.333 67.4C399.335 67.4 399.338 67.4 399.341 67.4C399.343 67.4 399.346 67.4 399.348 67.4C399.351 67.4 399.354 67.4 399.356 67.4C399.359 67.4 399.361 67.4 399.364 67.4C399.367 67.4 399.369 67.4 399.372 67.4C399.374 67.4 399.377 67.4 399.38 67.4C399.382 67.4 399.385 67.4 399.388 67.4C399.39 67.4 399.393 67.4 399.395 67.4C399.398 67.4 399.401 67.4 399.403 67.4C399.406 67.4 399.408 67.4 399.411 67.4C399.414 67.4 399.416 67.4 399.419 67.4C399.421 67.4 399.424 67.4 399.427 67.4C399.429 67.4 399.432 67.4 399.434 67.4C399.437 67.4 399.44 67.4 399.442 67.4C399.445 67.4 399.447 67.4 399.45 67.4C399.453 67.4 399.455 67.4 399.458 67.4C399.46 67.4 399.463 67.4 399.466 67.4C399.468 67.4 399.471 67.4 399.473 67.4C399.476 67.4 399.479 67.4 399.481 67.4C399.484 67.4 399.486 67.4 399.489 67.4C399.492 67.4 399.494 67.4 399.497 67.4C399.499 67.4 399.502 67.4 399.505 67.4C399.507 67.4 399.51 67.4 399.513 67.4C399.515 67.4 399.518 67.4 399.52 67.4C399.523 67.4 399.526 67.4 399.528 67.4C399.531 67.4 399.533 67.4 399.536 67.4C399.539 67.4 399.541 67.4 399.544 67.4C399.546 67.4 399.549 67.4 399.552 67.4C399.554 67.4 399.557 67.4 399.559 67.4C399.562 67.4 399.565 67.4 399.567 67.4C399.57 67.4 399.572 67.4 399.575 67.4C399.578 67.4 399.58 67.4 399.583 67.4C399.585 67.4 399.588 67.4 399.591 67.4C399.593 67.4 399.596 67.4 399.598 67.4C399.601 67.4 399.604 67.4 399.606 67.4C399.609 67.4 399.611 67.4 399.614 67.4C399.617 67.4 399.619 67.4 399.622 67.4C399.624 67.4 399.627 67.4 399.63 67.4C399.632 67.4 399.635 67.4 399.638 67.4C399.64 67.4 399.643 67.4 399.645 67.4C399.648 67.4 399.651 67.4 399.653 67.4C399.656 67.4 399.658 67.4 399.661 67.4C399.664 67.4 399.666 67.4 399.669 67.4C399.671 67.4 399.674 67.4 399.677 67.4C399.679 67.4 399.682 67.4 399.684 67.4C399.687 67.4 399.69 67.4 399.692 67.4C399.695 67.4 399.697 67.4 399.7 67.4C399.703 67.4 399.705 67.4 399.708 67.4C399.71 67.4 399.713 67.4 399.716 67.4C399.718 67.4 399.721 67.4 399.723 67.4C399.726 67.4 399.729 67.4 399.731 67.4C399.734 67.4 399.736 67.4 399.739 67.4C399.742 67.4 399.744 67.4 399.747 67.4C399.749 67.4 399.752 67.4 399.755 67.4C399.757 67.4 399.76 67.4 399.763 67.4C399.765 67.4 399.768 67.4 399.77 67.4C399.773 67.4 399.776 67.4 399.778 67.4C399.781 67.4 399.783 67.4 399.786 67.4C399.789 67.4 399.791 67.4 399.794 67.4C399.796 67.4 399.799 67.4 399.802 67.4C399.804 67.4 399.807 67.4 399.809 67.4C399.812 67.4 399.815 67.4 399.817 67.4C399.82 67.4 399.822 67.4 399.825 67.4C399.828 67.4 399.83 67.4 399.833 67.4C399.835 67.4 399.838 67.4 399.841 67.4C399.843 67.4 399.846 67.4 399.848 67.4C399.851 67.4 399.854 67.4 399.856 67.4C399.859 67.4 399.861 67.4 399.864 67.4C399.867 67.4 399.869 67.4 399.872 67.4C399.874 67.4 399.877 67.4 399.88 67.4C399.882 67.4 399.885 67.4 399.888 67.4C399.89 67.4 399.893 67.4 399.895 67.4C399.898 67.4 399.901 67.4 399.903 67.4C399.906 67.4 399.908 67.4 399.911 67.4C399.914 67.4 399.916 67.4 399.919 67.4C399.921 67.4 399.924 67.4 399.927 67.4C399.929 67.4 399.932 67.4 399.934 67.4C399.937 67.4 399.94 67.4 399.942 67.4C399.945 67.4 399.947 67.4 399.95 67.4C399.953 67.4 399.955 67.4 399.958 67.4C399.96 67.4 399.963 67.4 399.966 67.4C399.968 67.4 399.971 67.4 399.973 67.4C399.976 67.4 399.979 67.4 399.981 67.4C399.984 67.4 399.986 67.4 399.989 67.4C399.992 67.4 399.994 67.4 399.997 67.4C399.999 67.4 400.002 67.4 400.005 67.4C400.007 67.4 400.01 67.4 400.013 67.4C400.015 67.4 400.018 67.4 400.02 67.4C400.023 67.4 400.026 67.4 400.028 67.4C400.031 67.4 400.033 67.4 400.036 67.4C400.039 67.4 400.041 67.4 400.044 67.4C400.046 67.4 400.049 67.4 400.052 67.4C400.054 67.4 400.057 67.4 400.059 67.4C400.062 67.4 400.065 67.4 400.067 67.4C400.07 67.4 400.072 67.4 400.075 67.4C400.078 67.4 400.08 67.4 400.083 67.4C400.085 67.4 400.088 67.4 400.091 67.4C400.093 67.4 400.096 67.4 400.098 67.4C400.101 67.4 400.104 67.4 400.106 67.4C400.109 67.4 400.111 67.4 400.114 67.4C400.117 67.4 400.119 67.4 400.122 67.4C400.124 67.4 400.127 67.4 400.13 67.4C400.132 67.4 400.135 67.4 400.138 67.4C400.14 67.4 400.143 67.4 400.145 67.4C400.148 67.4 400.151 67.4 400.153 67.4C400.156 67.4 400.158 67.4 400.161 67.4C400.164 67.4 400.166 67.4 400.169 67.4C400.171 67.4 400.174 67.4 400.177 67.4C400.179 67.4 400.182 67.4 400.184 67.4C400.187 67.4 400.19 67.4 400.192 67.4C400.195 67.4 400.197 67.4 400.2 67.4C400.203 67.4 400.205 67.4 400.208 67.4C400.21 67.4 400.213 67.4 400.216 67.4C400.218 67.4 400.221 67.4 400.223 67.4C400.226 67.4 400.229 67.4 400.231 67.4C400.234 67.4 400.236 67.4 400.239 67.4C400.242 67.4 400.244 67.4 400.247 67.4C400.249 67.4 400.252 67.4 400.255 67.4C400.257 67.4 400.26 67.4 400.263 67.4C400.265 67.4 400.268 67.4 400.27 67.4C400.273 67.4 400.276 67.4 400.278 67.4C400.281 67.4 400.283 67.4 400.286 67.4C400.289 67.4 400.291 67.4 400.294 67.4C400.296 67.4 400.299 67.4 400.302 67.4C400.304 67.4 400.307 67.4 400.309 67.4C400.312 67.4 400.315 67.4 400.317 67.4C400.32 67.4 400.322 67.4 400.325 67.4C400.328 67.4 400.33 67.4 400.333 67.4C400.335 67.4 400.338 67.4 400.341 67.4C400.343 67.4 400.346 67.4 400.348 67.4C400.351 67.4 400.354 67.4 400.356 67.4C400.359 67.4 400.361 67.4 400.364 67.4C400.367 67.4 400.369 67.4 400.372 67.4C400.374 67.4 400.377 67.4 400.38 67.4C400.382 67.4 400.385 67.4 400.388 67.4C400.39 67.4 400.393 67.4 400.395 67.4C400.398 67.4 400.401 67.4 400.403 67.4C400.406 67.4 400.408 67.4 400.411 67.4C400.414 67.4 400.416 67.4 400.419 67.4C400.421 67.4 400.424 67.4 400.427 67.4C400.429 67.4 400.432 67.4 400.434 67.4C400.437 67.4 400.44 67.4 400.442 67.4C400.445 67.4 400.447 67.4 400.45 67.4C400.453 67.4 400.455 67.4 400.458 67.4C400.46 67.4 400.463 67.4 400.466 67.4C400.468 67.4 400.471 67.4 400.473 67.4C400.476 67.4 400.479 67.4 400.481 67.4C400.484 67.4 400.486 67.4 400.489 67.4C400.492 67.4 400.494 67.4 400.497 67.4C400.499 67.4 400.502 67.4 400.505 67.4C400.507 67.4 400.51 67.4 400.513 67.4C400.515 67.4 400.518 67.4 400.52 67.4C400.523 67.4 400.526 67.4 400.528 67.4C400.531 67.4 400.533 67.4 400.536 67.4C400.539 67.4 400.541 67.4 400.544 67.4C400.546 67.4 400.549 67.4 400.552 67.4C400.554 67.4 400.557 67.4 400.559 67.4C400.562 67.4 400.565 67.4 400.567 67.4C400.57 67.4 400.572 67.4 400.575 67.4C400.578 67.4 400.58 67.4 400.583 67.4C400.585 67.4 400.588 67.4 400.591 67.4C400.593 67.4 400.596 67.4 400.598 67.4C400.601 67.4 400.604 67.4 400.606 67.4C400.609 67.4 400.611 67.4 400.614 67.4C400.617 67.4 400.619 67.4 400.622 67.4C400.624 67.4 400.627 67.4 400.63 67.4C400.632 67.4 400.635 67.4 400.638 67.4C400.64 67.4 400.643 67.4 400.645 67.4C400.648 67.4 400.651 67.4 400.653 67.4C400.656 67.4 400.658 67.4 400.661 67.4C400.664 67.4 400.666 67.4 400.669 67.4C400.671 67.4 400.674 67.4 400.677 67.4C400.679 67.4 400.682 67.4 400.684 67.4C400.687 67.4 400.69 67.4 400.692 67.4C400.695 67.4 400.697 67.4 400.7 67.4C400.703 67.4 400.705 67.4 400.708 67.4C400.71 67.4 400.713 67.4 400.716 67.4C400.718 67.4 400.721 67.4 400.723 67.4C400.726 67.4 400.729 67.4 400.731 67.4C400.734 67.4 400.736 67.4 400.739 67.4C400.742 67.4 400.744 67.4 400.747 67.4C400.749 67.4 400.752 67.4 400.755 67.4C400.757 67.4 400.76 67.4 400.763 67.4C400.765 67.4 400.768 67.4 400.77 67.4C400.773 67.4 400.776 67.4 400.778 67.4C400.781 67.4 400.783 67.4 400.786 67.4C400.789 67.4 400.791 67.4 400.794 67.4C400.796 67.4 400.799 67.4 400.802 67.4C400.804 67.4 400.807 67.4 400.809 67.4C400.812 67.4 400.815 67.4 400.817 67.4C400.82 67.4 400.822 67.4 400.825 67.4C400.828 67.4 400.83 67.4 400.833 67.4C400.835 67.4 400.838 67.4 400.841 67.4C400.843 67.4 400.846 67.4 400.848 67.4C400.851 67.4 400.854 67.4 400.856 67.4C400.859 67.4 400.861 67.4 400.864 67.4C400.867 67.4 400.869 67.4 400.872 67.4C400.874 67.4 400.877 67.4 400.88 67.4C400.882 67.4 400.885 67.4 400.888 67.4C400.89 67.4 400.893 67.4 400.895 67.4C400.898 67.4 400.901 67.4 400.903 67.4C400.906 67.4 400.908 67.4 400.911 67.4C400.914 67.4 400.916 67.4 400.919 67.4C400.921 67.4 400.924 67.4 400.927 67.4C400.929 67.4 400.932 67.4 400.934 67.4C400.937 67.4 400.94 67.4 400.942 67.4C400.945 67.4 400.947 67.4 400.95 67.4C400.953 67.4 400.955 67.4 400.958 67.4C400.96 67.4 400.963 67.4 400.966 67.4C400.968 67.4 400.971 67.4 400.973 67.4C400.976 67.4 400.979 67.4 400.981 67.4C400.984 67.4 400.986 67.4 400.989 67.4C400.992 67.4 400.994 67.4 400.997 67.4C400.999 67.4 401.002 67.4 401.005 67.4C401.007 67.4 401.01 67.4 401.013 67.4C401.015 67.4 401.018 67.4 401.02 67.4C401.023 67.4 401.026 67.4 401.028 67.4C401.031 67.4 401.033 67.4 401.036 67.4C401.039 67.4 401.041 67.4 401.044 67.4C401.046 67.4 401.049 67.4 401.052 67.4C401.054 67.4 401.057 67.4 401.059 67.4C401.062 67.4 401.065 67.4 401.067 67.4C401.07 67.4 401.072 67.4 401.075 67.4C401.078 67.4 401.08 67.4 401.083 67.4C401.085 67.4 401.088 67.4 401.091 67.4C401.093 67.4 401.096 67.4 401.098 67.4C401.101 67.4 401.104 67.4 401.106 67.4C401.109 67.4 401.111 67.4 401.114 67.4C401.117 67.4 401.119 67.4 401.122 67.4C401.124 67.4 401.127 67.4 401.13 67.4C401.132 67.4 401.135 67.4 401.138 67.4C401.14 67.4 401.143 67.4 401.145 67.4C401.148 67.4 401.151 67.4 401.153 67.4C401.156 67.4 401.158 67.4 401.161 67.4C401.164 67.4 401.166 67.4 401.169 67.4C401.171 67.4 401.174 67.4 401.177 67.4C401.179 67.4 401.182 67.4 401.184 67.4C401.187 67.4 401.19 67.4 401.192 67.4C401.195 67.4 401.197 67.4 401.2 67.4C401.203 67.4 401.205 67.4 401.208 67.4C401.21 67.4 401.213 67.4 401.216 67.4C401.218 67.4 401.221 67.4 401.223 67.4C401.226 67.4 401.229 67.4 401.231 67.4C401.234 67.4 401.236 67.4 401.239 67.4C401.242 67.4 401.244 67.4 401.247 67.4C401.249 67.4 401.252 67.4 401.255 67.4C401.257 67.4 401.26 67.4 401.263 67.4C401.265 67.4 401.268 67.4 401.27 67.4C401.273 67.4 401.276 67.4 401.278 67.4C401.281 67.4 401.283 67.4 401.286 67.4C401.289 67.4 401.291 67.4 401.294 67.4C401.296 67.4 401.299 67.4 401.302 67.4C401.304 67.4 401.307 67.4 401.309 67.4C401.312 67.4 401.315 67.4 401.317 67.4C401.32 67.4 401.322 67.4 401.325 67.4C401.328 67.4 401.33 67.4 401.333 67.4C401.335 67.4 401.338 67.4 401.341 67.4C401.343 67.4 401.346 67.4 401.348 67.4C401.351 67.4 401.354 67.4 401.356 67.4C401.359 67.4 401.361 67.4 401.364 67.4C401.367 67.4 401.369 67.4 401.372 67.4C401.374 67.4 401.377 67.4 401.38 67.4C401.382 67.4 401.385 67.4 401.388 67.4C401.39 67.4 401.393 67.4 401.395 67.4C401.398 67.4 401.401 67.4 401.403 67.4C401.406 67.4 401.408 67.4 401.411 67.4C401.414 67.4 401.416 67.4 401.419 67.4C401.421 67.4 401.424 67.4 401.427 67.4C401.429 67.4 401.432 67.4 401.434 67.4C401.437 67.4 401.44 67.4 401.442 67.4C401.445 67.4 401.447 67.4 401.45 67.4C401.453 67.4 401.455 67.4 401.458 67.4C401.46 67.4 401.463 67.4 401.466 67.4C401.468 67.4 401.471 67.4 401.473 67.4C401.476 67.4 401.479 67.4 401.481 67.4C401.484 67.4 401.486 67.4 401.489 67.4C401.492 67.4 401.494 67.4 401.497 67.4C401.499 67.4 401.502 67.4 401.505 67.4C401.507 67.4 401.51 67.4 401.513 67.4C401.515 67.4 401.518 67.4 401.52 67.4C401.523 67.4 401.526 67.4 401.528 67.4C401.531 67.4 401.533 67.4 401.536 67.4C401.539 67.4 401.541 67.4 401.544 67.4C401.546 67.4 401.549 67.4 401.552 67.4C401.554 67.4 401.557 67.4 401.559 67.4C401.562 67.4 401.565 67.4 401.567 67.4C401.57 67.4 401.572 67.4 401.575 67.4C401.578 67.4 401.58 67.4 401.583 67.4C401.585 67.4 401.588 67.4 401.591 67.4C401.593 67.4 401.596 67.4 401.598 67.4C401.601 67.4 401.604 67.4 401.606 67.4C401.609 67.4 401.611 67.4 401.614 67.4C401.617 67.4 401.619 67.4 401.622 67.4C401.624 67.4 401.627 67.4 401.63 67.4C401.632 67.4 401.635 67.4 401.638 67.4C401.64 67.4 401.643 67.4 401.645 67.4C401.648 67.4 401.651 67.4 401.653 67.4C401.656 67.4 401.658 67.4 401.661 67.4C401.664 67.4 401.666 67.4 401.669 67.4C401.671 67.4 401.674 67.4 401.677 67.4C401.679 67.4 401.682 67.4 401.684 67.4C401.687 67.4 401.69 67.4 401.692 67.4C401.695 67.4 401.697 67.4 401.7 67.4C401.703 67.4 401.705 67.4 401.708 67.4C401.71 67.4 401.713 67.4 401.716 67.4C401.718 67.4 401.721 67.4 401.723 67.4C401.726 67.4 401.729 67.4 401.731 67.4C401.734 67.4 401.736 67.4 401.739 67.4C401.742 67.4 401.744 67.4 401.747 67.4C401.749 67.4 401.752 67.4 401.755 67.4C401.757 67.4 401.76 67.4 401.763 67.4C401.765 67.4 401.768 67.4 401.77 67.4C401.773 67.4 401.776 67.4 401.778 67.4C401.781 67.4 401.783 67.4 401.786 67.4C401.789 67.4 401.791 67.4 401.794 67.4C401.796 67.4 401.799 67.4 401.802 67.4C401.804 67.4 401.807 67.4 401.809 67.4C401.812 67.4 401.815 67.4 401.817 67.4C401.82 67.4 401.822 67.4 401.825 67.4C401.828 67.4 401.83 67.4 401.833 67.4C401.835 67.4 401.838 67.4 401.841 67.4C401.843 67.4 401.846 67.4 401.848 67.4C401.851 67.4 401.854 67.4 401.856 67.4C401.859 67.4 401.861 67.4 401.864 67.4C401.867 67.4 401.869 67.4 401.872 67.4C401.874 67.4 401.877 67.4 401.88 67.4C401.882 67.4 401.885 67.4 401.888 67.4C401.89 67.4 401.893 67.4 401.895 67.4C401.898 67.4 401.901 67.4 401.903 67.4C401.906 67.4 401.908 67.4 401.911 67.4C401.914 67.4 401.916 67.4 401.919 67.4C401.921 67.4 401.924 67.4 401.927 67.4C401.929 67.4 401.932 67.4 401.934 67.4C401.937 67.4 401.94 67.4 401.942 67.4C401.945 67.4 401.947 67.4 401.95 67.4C401.953 67.4 401.955 67.4 401.958 67.4C401.96 67.4 401.963 67.4 401.966 67.4C401.968 67.4 401.971 67.4 401.973 67.4C401.976 67.4 401.979 67.4 401.981 67.4C401.984 67.4 401.986 67.4 401.989 67.4C401.992 67.4 401.994 67.4 401.997 67.4C401.999 67.4 402.002 67.4 402.005 67.4C402.007 67.4 402.01 67.4 402.013 67.4C402.015 67.4 402.018 67.4 402.02 67.4C402.023 67.4 402.026 67.4 402.028 67.4C402.031 67.4 402.033 67.4 402.036 67.4C402.039 67.4 402.041 67.4 402.044 67.4C402.046 67.4 402.049 67.4 402.052 67.4C402.054 67.4 402.057 67.4 402.059 67.4C402.062 67.4 402.065 67.4 402.067 67.4C402.07 67.4 402.072 67.4 402.075 67.4C402.078 67.4 402.08 67.4 402.083 67.4C402.085 67.4 402.088 67.4 402.091 67.4C402.093 67.4 402.096 67.4 402.098 67.4C402.101 67.4 402.104 67.4 402.106 67.4C402.109 67.4 402.111 67.4 402.114 67.4C402.117 67.4 402.119 67.4 402.122 67.4C402.124 67.4 402.127 67.4 402.13 67.4C402.132 67.4 402.135 67.4 402.138 67.4C402.14 67.4 402.143 67.4 402.145 67.4C402.148 67.4 402.151 67.4 402.153 67.4C402.156 67.4 402.158 67.4 402.161 67.4C402.164 67.4 402.166 67.4 402.169 67.4C402.171 67.4 402.174 67.4 402.177 67.4C402.179 67.4 402.182 67.4 402.184 67.4C402.187 67.4 402.19 67.4 402.192 67.4C402.195 67.4 402.197 67.4 402.2 67.4C402.203 67.4 402.205 67.4 402.208 67.4C402.21 67.4 402.213 67.4 402.216 67.4C402.218 67.4 402.221 67.4 402.223 67.4C402.226 67.4 402.229 67.4 402.231 67.4C402.234 67.4 402.236 67.4 402.239 67.4C402.242 67.4 402.244 67.4 402.247 67.4C402.249 67.4 402.252 67.4 402.255 67.4C402.257 67.4 402.26 67.4 402.263 67.4C402.265 67.4 402.268 67.4 402.27 67.4C402.273 67.4 402.276 67.4 402.278 67.4C402.281 67.4 402.283 67.4 402.286 67.4C402.289 67.4 402.291 67.4 402.294 67.4C402.296 67.4 402.299 67.4 402.302 67.4C402.304 67.4 402.307 67.4 402.309 67.4C402.312 67.4 402.315 67.4 402.317 67.4C402.32 67.4 402.322 67.4 402.325 67.4C402.328 67.4 402.33 67.4 402.333 67.4C402.335 67.4 402.338 67.4 402.341 67.4C402.343 67.4 402.346 67.4 402.348 67.4C402.351 67.4 402.354 67.4 402.356 67.4C402.359 67.4 402.361 67.4 402.364 67.4C402.367 67.4 402.369 67.4 402.372 67.4C402.374 67.4 402.377 67.4 402.38 67.4C402.382 67.4 402.385 67.4 402.388 67.4C402.39 67.4 402.393 67.4 402.395 67.4C402.398 67.4 402.401 67.4 402.403 67.4C402.406 67.4 402.408 67.4 402.411 67.4C402.414 67.4 402.416 67.4 402.419 67.4C402.421 67.4 402.424 67.4 402.427 67.4C402.429 67.4 402.432 67.4 402.434 67.4C402.437 67.4 402.44 67.4 402.442 67.4C402.445 67.4 402.447 67.4 402.45 67.4C402.453 67.4 402.455 67.4 402.458 67.4C402.46 67.4 402.463 67.4 402.466 67.4C402.468 67.4 402.471 67.4 402.473 67.4C402.476 67.4 402.479 67.4 402.481 67.4C402.484 67.4 402.486 67.4 402.489 67.4C402.492 67.4 402.494 67.4 402.497 67.4C402.499 67.4 402.502 67.4 402.505 67.4C402.507 67.4 402.51 67.4 402.513 67.4C402.515 67.4 402.518 67.4 402.52 67.4C402.523 67.4 402.526 67.4 402.528 67.4C402.531 67.4 402.533 67.4 402.536 67.4C402.539 67.4 402.541 67.4 402.544 67.4C402.546 67.4 402.549 67.4 402.552 67.4C402.554 67.4 402.557 67.4 402.559 67.4C402.562 67.4 402.565 67.4 402.567 67.4C402.57 67.4 402.572 67.4 402.575 67.4C402.578 67.4 402.58 67.4 402.583 67.4C402.585 67.4 402.588 67.4 402.591 67.4V65.4C402.588 65.4 402.585 65.4 402.583 65.4C402.58 65.4 402.578 65.4 402.575 65.4C402.572 65.4 402.57 65.4 402.567 65.4C402.565 65.4 402.562 65.4 402.559 65.4C402.557 65.4 402.554 65.4 402.552 65.4C402.549 65.4 402.546 65.4 402.544 65.4C402.541 65.4 402.539 65.4 402.536 65.4C402.533 65.4 402.531 65.4 402.528 65.4C402.526 65.4 402.523 65.4 402.52 65.4C402.518 65.4 402.515 65.4 402.513 65.4C402.51 65.4 402.507 65.4 402.505 65.4C402.502 65.4 402.499 65.4 402.497 65.4C402.494 65.4 402.492 65.4 402.489 65.4C402.486 65.4 402.484 65.4 402.481 65.4C402.479 65.4 402.476 65.4 402.473 65.4C402.471 65.4 402.468 65.4 402.466 65.4C402.463 65.4 402.46 65.4 402.458 65.4C402.455 65.4 402.453 65.4 402.45 65.4C402.447 65.4 402.445 65.4 402.442 65.4C402.44 65.4 402.437 65.4 402.434 65.4C402.432 65.4 402.429 65.4 402.427 65.4C402.424 65.4 402.421 65.4 402.419 65.4C402.416 65.4 402.414 65.4 402.411 65.4C402.408 65.4 402.406 65.4 402.403 65.4C402.401 65.4 402.398 65.4 402.395 65.4C402.393 65.4 402.39 65.4 402.388 65.4C402.385 65.4 402.382 65.4 402.38 65.4C402.377 65.4 402.374 65.4 402.372 65.4C402.369 65.4 402.367 65.4 402.364 65.4C402.361 65.4 402.359 65.4 402.356 65.4C402.354 65.4 402.351 65.4 402.348 65.4C402.346 65.4 402.343 65.4 402.341 65.4C402.338 65.4 402.335 65.4 402.333 65.4C402.33 65.4 402.328 65.4 402.325 65.4C402.322 65.4 402.32 65.4 402.317 65.4C402.315 65.4 402.312 65.4 402.309 65.4C402.307 65.4 402.304 65.4 402.302 65.4C402.299 65.4 402.296 65.4 402.294 65.4C402.291 65.4 402.289 65.4 402.286 65.4C402.283 65.4 402.281 65.4 402.278 65.4C402.276 65.4 402.273 65.4 402.27 65.4C402.268 65.4 402.265 65.4 402.263 65.4C402.26 65.4 402.257 65.4 402.255 65.4C402.252 65.4 402.249 65.4 402.247 65.4C402.244 65.4 402.242 65.4 402.239 65.4C402.236 65.4 402.234 65.4 402.231 65.4C402.229 65.4 402.226 65.4 402.223 65.4C402.221 65.4 402.218 65.4 402.216 65.4C402.213 65.4 402.21 65.4 402.208 65.4C402.205 65.4 402.203 65.4 402.2 65.4C402.197 65.4 402.195 65.4 402.192 65.4C402.19 65.4 402.187 65.4 402.184 65.4C402.182 65.4 402.179 65.4 402.177 65.4C402.174 65.4 402.171 65.4 402.169 65.4C402.166 65.4 402.164 65.4 402.161 65.4C402.158 65.4 402.156 65.4 402.153 65.4C402.151 65.4 402.148 65.4 402.145 65.4C402.143 65.4 402.14 65.4 402.138 65.4C402.135 65.4 402.132 65.4 402.13 65.4C402.127 65.4 402.124 65.4 402.122 65.4C402.119 65.4 402.117 65.4 402.114 65.4C402.111 65.4 402.109 65.4 402.106 65.4C402.104 65.4 402.101 65.4 402.098 65.4C402.096 65.4 402.093 65.4 402.091 65.4C402.088 65.4 402.085 65.4 402.083 65.4C402.08 65.4 402.078 65.4 402.075 65.4C402.072 65.4 402.07 65.4 402.067 65.4C402.065 65.4 402.062 65.4 402.059 65.4C402.057 65.4 402.054 65.4 402.052 65.4C402.049 65.4 402.046 65.4 402.044 65.4C402.041 65.4 402.039 65.4 402.036 65.4C402.033 65.4 402.031 65.4 402.028 65.4C402.026 65.4 402.023 65.4 402.02 65.4C402.018 65.4 402.015 65.4 402.013 65.4C402.01 65.4 402.007 65.4 402.005 65.4C402.002 65.4 401.999 65.4 401.997 65.4C401.994 65.4 401.992 65.4 401.989 65.4C401.986 65.4 401.984 65.4 401.981 65.4C401.979 65.4 401.976 65.4 401.973 65.4C401.971 65.4 401.968 65.4 401.966 65.4C401.963 65.4 401.96 65.4 401.958 65.4C401.955 65.4 401.953 65.4 401.95 65.4C401.947 65.4 401.945 65.4 401.942 65.4C401.94 65.4 401.937 65.4 401.934 65.4C401.932 65.4 401.929 65.4 401.927 65.4C401.924 65.4 401.921 65.4 401.919 65.4C401.916 65.4 401.914 65.4 401.911 65.4C401.908 65.4 401.906 65.4 401.903 65.4C401.901 65.4 401.898 65.4 401.895 65.4C401.893 65.4 401.89 65.4 401.888 65.4C401.885 65.4 401.882 65.4 401.88 65.4C401.877 65.4 401.874 65.4 401.872 65.4C401.869 65.4 401.867 65.4 401.864 65.4C401.861 65.4 401.859 65.4 401.856 65.4C401.854 65.4 401.851 65.4 401.848 65.4C401.846 65.4 401.843 65.4 401.841 65.4C401.838 65.4 401.835 65.4 401.833 65.4C401.83 65.4 401.828 65.4 401.825 65.4C401.822 65.4 401.82 65.4 401.817 65.4C401.815 65.4 401.812 65.4 401.809 65.4C401.807 65.4 401.804 65.4 401.802 65.4C401.799 65.4 401.796 65.4 401.794 65.4C401.791 65.4 401.789 65.4 401.786 65.4C401.783 65.4 401.781 65.4 401.778 65.4C401.776 65.4 401.773 65.4 401.77 65.4C401.768 65.4 401.765 65.4 401.763 65.4C401.76 65.4 401.757 65.4 401.755 65.4C401.752 65.4 401.749 65.4 401.747 65.4C401.744 65.4 401.742 65.4 401.739 65.4C401.736 65.4 401.734 65.4 401.731 65.4C401.729 65.4 401.726 65.4 401.723 65.4C401.721 65.4 401.718 65.4 401.716 65.4C401.713 65.4 401.71 65.4 401.708 65.4C401.705 65.4 401.703 65.4 401.7 65.4C401.697 65.4 401.695 65.4 401.692 65.4C401.69 65.4 401.687 65.4 401.684 65.4C401.682 65.4 401.679 65.4 401.677 65.4C401.674 65.4 401.671 65.4 401.669 65.4C401.666 65.4 401.664 65.4 401.661 65.4C401.658 65.4 401.656 65.4 401.653 65.4C401.651 65.4 401.648 65.4 401.645 65.4C401.643 65.4 401.64 65.4 401.638 65.4C401.635 65.4 401.632 65.4 401.63 65.4C401.627 65.4 401.624 65.4 401.622 65.4C401.619 65.4 401.617 65.4 401.614 65.4C401.611 65.4 401.609 65.4 401.606 65.4C401.604 65.4 401.601 65.4 401.598 65.4C401.596 65.4 401.593 65.4 401.591 65.4C401.588 65.4 401.585 65.4 401.583 65.4C401.58 65.4 401.578 65.4 401.575 65.4C401.572 65.4 401.57 65.4 401.567 65.4C401.565 65.4 401.562 65.4 401.559 65.4C401.557 65.4 401.554 65.4 401.552 65.4C401.549 65.4 401.546 65.4 401.544 65.4C401.541 65.4 401.539 65.4 401.536 65.4C401.533 65.4 401.531 65.4 401.528 65.4C401.526 65.4 401.523 65.4 401.52 65.4C401.518 65.4 401.515 65.4 401.513 65.4C401.51 65.4 401.507 65.4 401.505 65.4C401.502 65.4 401.499 65.4 401.497 65.4C401.494 65.4 401.492 65.4 401.489 65.4C401.486 65.4 401.484 65.4 401.481 65.4C401.479 65.4 401.476 65.4 401.473 65.4C401.471 65.4 401.468 65.4 401.466 65.4C401.463 65.4 401.46 65.4 401.458 65.4C401.455 65.4 401.453 65.4 401.45 65.4C401.447 65.4 401.445 65.4 401.442 65.4C401.44 65.4 401.437 65.4 401.434 65.4C401.432 65.4 401.429 65.4 401.427 65.4C401.424 65.4 401.421 65.4 401.419 65.4C401.416 65.4 401.414 65.4 401.411 65.4C401.408 65.4 401.406 65.4 401.403 65.4C401.401 65.4 401.398 65.4 401.395 65.4C401.393 65.4 401.39 65.4 401.388 65.4C401.385 65.4 401.382 65.4 401.38 65.4C401.377 65.4 401.374 65.4 401.372 65.4C401.369 65.4 401.367 65.4 401.364 65.4C401.361 65.4 401.359 65.4 401.356 65.4C401.354 65.4 401.351 65.4 401.348 65.4C401.346 65.4 401.343 65.4 401.341 65.4C401.338 65.4 401.335 65.4 401.333 65.4C401.33 65.4 401.328 65.4 401.325 65.4C401.322 65.4 401.32 65.4 401.317 65.4C401.315 65.4 401.312 65.4 401.309 65.4C401.307 65.4 401.304 65.4 401.302 65.4C401.299 65.4 401.296 65.4 401.294 65.4C401.291 65.4 401.289 65.4 401.286 65.4C401.283 65.4 401.281 65.4 401.278 65.4C401.276 65.4 401.273 65.4 401.27 65.4C401.268 65.4 401.265 65.4 401.263 65.4C401.26 65.4 401.257 65.4 401.255 65.4C401.252 65.4 401.249 65.4 401.247 65.4C401.244 65.4 401.242 65.4 401.239 65.4C401.236 65.4 401.234 65.4 401.231 65.4C401.229 65.4 401.226 65.4 401.223 65.4C401.221 65.4 401.218 65.4 401.216 65.4C401.213 65.4 401.21 65.4 401.208 65.4C401.205 65.4 401.203 65.4 401.2 65.4C401.197 65.4 401.195 65.4 401.192 65.4C401.19 65.4 401.187 65.4 401.184 65.4C401.182 65.4 401.179 65.4 401.177 65.4C401.174 65.4 401.171 65.4 401.169 65.4C401.166 65.4 401.164 65.4 401.161 65.4C401.158 65.4 401.156 65.4 401.153 65.4C401.151 65.4 401.148 65.4 401.145 65.4C401.143 65.4 401.14 65.4 401.138 65.4C401.135 65.4 401.132 65.4 401.13 65.4C401.127 65.4 401.124 65.4 401.122 65.4C401.119 65.4 401.117 65.4 401.114 65.4C401.111 65.4 401.109 65.4 401.106 65.4C401.104 65.4 401.101 65.4 401.098 65.4C401.096 65.4 401.093 65.4 401.091 65.4C401.088 65.4 401.085 65.4 401.083 65.4C401.08 65.4 401.078 65.4 401.075 65.4C401.072 65.4 401.07 65.4 401.067 65.4C401.065 65.4 401.062 65.4 401.059 65.4C401.057 65.4 401.054 65.4 401.052 65.4C401.049 65.4 401.046 65.4 401.044 65.4C401.041 65.4 401.039 65.4 401.036 65.4C401.033 65.4 401.031 65.4 401.028 65.4C401.026 65.4 401.023 65.4 401.02 65.4C401.018 65.4 401.015 65.4 401.013 65.4C401.01 65.4 401.007 65.4 401.005 65.4C401.002 65.4 400.999 65.4 400.997 65.4C400.994 65.4 400.992 65.4 400.989 65.4C400.986 65.4 400.984 65.4 400.981 65.4C400.979 65.4 400.976 65.4 400.973 65.4C400.971 65.4 400.968 65.4 400.966 65.4C400.963 65.4 400.96 65.4 400.958 65.4C400.955 65.4 400.953 65.4 400.95 65.4C400.947 65.4 400.945 65.4 400.942 65.4C400.94 65.4 400.937 65.4 400.934 65.4C400.932 65.4 400.929 65.4 400.927 65.4C400.924 65.4 400.921 65.4 400.919 65.4C400.916 65.4 400.914 65.4 400.911 65.4C400.908 65.4 400.906 65.4 400.903 65.4C400.901 65.4 400.898 65.4 400.895 65.4C400.893 65.4 400.89 65.4 400.888 65.4C400.885 65.4 400.882 65.4 400.88 65.4C400.877 65.4 400.874 65.4 400.872 65.4C400.869 65.4 400.867 65.4 400.864 65.4C400.861 65.4 400.859 65.4 400.856 65.4C400.854 65.4 400.851 65.4 400.848 65.4C400.846 65.4 400.843 65.4 400.841 65.4C400.838 65.4 400.835 65.4 400.833 65.4C400.83 65.4 400.828 65.4 400.825 65.4C400.822 65.4 400.82 65.4 400.817 65.4C400.815 65.4 400.812 65.4 400.809 65.4C400.807 65.4 400.804 65.4 400.802 65.4C400.799 65.4 400.796 65.4 400.794 65.4C400.791 65.4 400.789 65.4 400.786 65.4C400.783 65.4 400.781 65.4 400.778 65.4C400.776 65.4 400.773 65.4 400.77 65.4C400.768 65.4 400.765 65.4 400.763 65.4C400.76 65.4 400.757 65.4 400.755 65.4C400.752 65.4 400.749 65.4 400.747 65.4C400.744 65.4 400.742 65.4 400.739 65.4C400.736 65.4 400.734 65.4 400.731 65.4C400.729 65.4 400.726 65.4 400.723 65.4C400.721 65.4 400.718 65.4 400.716 65.4C400.713 65.4 400.71 65.4 400.708 65.4C400.705 65.4 400.703 65.4 400.7 65.4C400.697 65.4 400.695 65.4 400.692 65.4C400.69 65.4 400.687 65.4 400.684 65.4C400.682 65.4 400.679 65.4 400.677 65.4C400.674 65.4 400.671 65.4 400.669 65.4C400.666 65.4 400.664 65.4 400.661 65.4C400.658 65.4 400.656 65.4 400.653 65.4C400.651 65.4 400.648 65.4 400.645 65.4C400.643 65.4 400.64 65.4 400.638 65.4C400.635 65.4 400.632 65.4 400.63 65.4C400.627 65.4 400.624 65.4 400.622 65.4C400.619 65.4 400.617 65.4 400.614 65.4C400.611 65.4 400.609 65.4 400.606 65.4C400.604 65.4 400.601 65.4 400.598 65.4C400.596 65.4 400.593 65.4 400.591 65.4C400.588 65.4 400.585 65.4 400.583 65.4C400.58 65.4 400.578 65.4 400.575 65.4C400.572 65.4 400.57 65.4 400.567 65.4C400.565 65.4 400.562 65.4 400.559 65.4C400.557 65.4 400.554 65.4 400.552 65.4C400.549 65.4 400.546 65.4 400.544 65.4C400.541 65.4 400.539 65.4 400.536 65.4C400.533 65.4 400.531 65.4 400.528 65.4C400.526 65.4 400.523 65.4 400.52 65.4C400.518 65.4 400.515 65.4 400.513 65.4C400.51 65.4 400.507 65.4 400.505 65.4C400.502 65.4 400.499 65.4 400.497 65.4C400.494 65.4 400.492 65.4 400.489 65.4C400.486 65.4 400.484 65.4 400.481 65.4C400.479 65.4 400.476 65.4 400.473 65.4C400.471 65.4 400.468 65.4 400.466 65.4C400.463 65.4 400.46 65.4 400.458 65.4C400.455 65.4 400.453 65.4 400.45 65.4C400.447 65.4 400.445 65.4 400.442 65.4C400.44 65.4 400.437 65.4 400.434 65.4C400.432 65.4 400.429 65.4 400.427 65.4C400.424 65.4 400.421 65.4 400.419 65.4C400.416 65.4 400.414 65.4 400.411 65.4C400.408 65.4 400.406 65.4 400.403 65.4C400.401 65.4 400.398 65.4 400.395 65.4C400.393 65.4 400.39 65.4 400.388 65.4C400.385 65.4 400.382 65.4 400.38 65.4C400.377 65.4 400.374 65.4 400.372 65.4C400.369 65.4 400.367 65.4 400.364 65.4C400.361 65.4 400.359 65.4 400.356 65.4C400.354 65.4 400.351 65.4 400.348 65.4C400.346 65.4 400.343 65.4 400.341 65.4C400.338 65.4 400.335 65.4 400.333 65.4C400.33 65.4 400.328 65.4 400.325 65.4C400.322 65.4 400.32 65.4 400.317 65.4C400.315 65.4 400.312 65.4 400.309 65.4C400.307 65.4 400.304 65.4 400.302 65.4C400.299 65.4 400.296 65.4 400.294 65.4C400.291 65.4 400.289 65.4 400.286 65.4C400.283 65.4 400.281 65.4 400.278 65.4C400.276 65.4 400.273 65.4 400.27 65.4C400.268 65.4 400.265 65.4 400.263 65.4C400.26 65.4 400.257 65.4 400.255 65.4C400.252 65.4 400.249 65.4 400.247 65.4C400.244 65.4 400.242 65.4 400.239 65.4C400.236 65.4 400.234 65.4 400.231 65.4C400.229 65.4 400.226 65.4 400.223 65.4C400.221 65.4 400.218 65.4 400.216 65.4C400.213 65.4 400.21 65.4 400.208 65.4C400.205 65.4 400.203 65.4 400.2 65.4C400.197 65.4 400.195 65.4 400.192 65.4C400.19 65.4 400.187 65.4 400.184 65.4C400.182 65.4 400.179 65.4 400.177 65.4C400.174 65.4 400.171 65.4 400.169 65.4C400.166 65.4 400.164 65.4 400.161 65.4C400.158 65.4 400.156 65.4 400.153 65.4C400.151 65.4 400.148 65.4 400.145 65.4C400.143 65.4 400.14 65.4 400.138 65.4C400.135 65.4 400.132 65.4 400.13 65.4C400.127 65.4 400.124 65.4 400.122 65.4C400.119 65.4 400.117 65.4 400.114 65.4C400.111 65.4 400.109 65.4 400.106 65.4C400.104 65.4 400.101 65.4 400.098 65.4C400.096 65.4 400.093 65.4 400.091 65.4C400.088 65.4 400.085 65.4 400.083 65.4C400.08 65.4 400.078 65.4 400.075 65.4C400.072 65.4 400.07 65.4 400.067 65.4C400.065 65.4 400.062 65.4 400.059 65.4C400.057 65.4 400.054 65.4 400.052 65.4C400.049 65.4 400.046 65.4 400.044 65.4C400.041 65.4 400.039 65.4 400.036 65.4C400.033 65.4 400.031 65.4 400.028 65.4C400.026 65.4 400.023 65.4 400.02 65.4C400.018 65.4 400.015 65.4 400.013 65.4C400.01 65.4 400.007 65.4 400.005 65.4C400.002 65.4 399.999 65.4 399.997 65.4C399.994 65.4 399.992 65.4 399.989 65.4C399.986 65.4 399.984 65.4 399.981 65.4C399.979 65.4 399.976 65.4 399.973 65.4C399.971 65.4 399.968 65.4 399.966 65.4C399.963 65.4 399.96 65.4 399.958 65.4C399.955 65.4 399.953 65.4 399.95 65.4C399.947 65.4 399.945 65.4 399.942 65.4C399.94 65.4 399.937 65.4 399.934 65.4C399.932 65.4 399.929 65.4 399.927 65.4C399.924 65.4 399.921 65.4 399.919 65.4C399.916 65.4 399.914 65.4 399.911 65.4C399.908 65.4 399.906 65.4 399.903 65.4C399.901 65.4 399.898 65.4 399.895 65.4C399.893 65.4 399.89 65.4 399.888 65.4C399.885 65.4 399.882 65.4 399.88 65.4C399.877 65.4 399.874 65.4 399.872 65.4C399.869 65.4 399.867 65.4 399.864 65.4C399.861 65.4 399.859 65.4 399.856 65.4C399.854 65.4 399.851 65.4 399.848 65.4C399.846 65.4 399.843 65.4 399.841 65.4C399.838 65.4 399.835 65.4 399.833 65.4C399.83 65.4 399.828 65.4 399.825 65.4C399.822 65.4 399.82 65.4 399.817 65.4C399.815 65.4 399.812 65.4 399.809 65.4C399.807 65.4 399.804 65.4 399.802 65.4C399.799 65.4 399.796 65.4 399.794 65.4C399.791 65.4 399.789 65.4 399.786 65.4C399.783 65.4 399.781 65.4 399.778 65.4C399.776 65.4 399.773 65.4 399.77 65.4C399.768 65.4 399.765 65.4 399.763 65.4C399.76 65.4 399.757 65.4 399.755 65.4C399.752 65.4 399.749 65.4 399.747 65.4C399.744 65.4 399.742 65.4 399.739 65.4C399.736 65.4 399.734 65.4 399.731 65.4C399.729 65.4 399.726 65.4 399.723 65.4C399.721 65.4 399.718 65.4 399.716 65.4C399.713 65.4 399.71 65.4 399.708 65.4C399.705 65.4 399.703 65.4 399.7 65.4C399.697 65.4 399.695 65.4 399.692 65.4C399.69 65.4 399.687 65.4 399.684 65.4C399.682 65.4 399.679 65.4 399.677 65.4C399.674 65.4 399.671 65.4 399.669 65.4C399.666 65.4 399.664 65.4 399.661 65.4C399.658 65.4 399.656 65.4 399.653 65.4C399.651 65.4 399.648 65.4 399.645 65.4C399.643 65.4 399.64 65.4 399.638 65.4C399.635 65.4 399.632 65.4 399.63 65.4C399.627 65.4 399.624 65.4 399.622 65.4C399.619 65.4 399.617 65.4 399.614 65.4C399.611 65.4 399.609 65.4 399.606 65.4C399.604 65.4 399.601 65.4 399.598 65.4C399.596 65.4 399.593 65.4 399.591 65.4C399.588 65.4 399.585 65.4 399.583 65.4C399.58 65.4 399.578 65.4 399.575 65.4C399.572 65.4 399.57 65.4 399.567 65.4C399.565 65.4 399.562 65.4 399.559 65.4C399.557 65.4 399.554 65.4 399.552 65.4C399.549 65.4 399.546 65.4 399.544 65.4C399.541 65.4 399.539 65.4 399.536 65.4C399.533 65.4 399.531 65.4 399.528 65.4C399.526 65.4 399.523 65.4 399.52 65.4C399.518 65.4 399.515 65.4 399.513 65.4C399.51 65.4 399.507 65.4 399.505 65.4C399.502 65.4 399.499 65.4 399.497 65.4C399.494 65.4 399.492 65.4 399.489 65.4C399.486 65.4 399.484 65.4 399.481 65.4C399.479 65.4 399.476 65.4 399.473 65.4C399.471 65.4 399.468 65.4 399.466 65.4C399.463 65.4 399.46 65.4 399.458 65.4C399.455 65.4 399.453 65.4 399.45 65.4C399.447 65.4 399.445 65.4 399.442 65.4C399.44 65.4 399.437 65.4 399.434 65.4C399.432 65.4 399.429 65.4 399.427 65.4C399.424 65.4 399.421 65.4 399.419 65.4C399.416 65.4 399.414 65.4 399.411 65.4C399.408 65.4 399.406 65.4 399.403 65.4C399.401 65.4 399.398 65.4 399.395 65.4C399.393 65.4 399.39 65.4 399.388 65.4C399.385 65.4 399.382 65.4 399.38 65.4C399.377 65.4 399.374 65.4 399.372 65.4C399.369 65.4 399.367 65.4 399.364 65.4C399.361 65.4 399.359 65.4 399.356 65.4C399.354 65.4 399.351 65.4 399.348 65.4C399.346 65.4 399.343 65.4 399.341 65.4C399.338 65.4 399.335 65.4 399.333 65.4C399.33 65.4 399.328 65.4 399.325 65.4C399.322 65.4 399.32 65.4 399.317 65.4C399.315 65.4 399.312 65.4 399.309 65.4C399.307 65.4 399.304 65.4 399.302 65.4C399.299 65.4 399.296 65.4 399.294 65.4C399.291 65.4 399.289 65.4 399.286 65.4C399.283 65.4 399.281 65.4 399.278 65.4C399.276 65.4 399.273 65.4 399.27 65.4C399.268 65.4 399.265 65.4 399.263 65.4C399.26 65.4 399.257 65.4 399.255 65.4C399.252 65.4 399.249 65.4 399.247 65.4C399.244 65.4 399.242 65.4 399.239 65.4C399.236 65.4 399.234 65.4 399.231 65.4C399.229 65.4 399.226 65.4 399.223 65.4C399.221 65.4 399.218 65.4 399.216 65.4C399.213 65.4 399.21 65.4 399.208 65.4C399.205 65.4 399.203 65.4 399.2 65.4C399.197 65.4 399.195 65.4 399.192 65.4C399.19 65.4 399.187 65.4 399.184 65.4C399.182 65.4 399.179 65.4 399.177 65.4C399.174 65.4 399.171 65.4 399.169 65.4C399.166 65.4 399.164 65.4 399.161 65.4C399.158 65.4 399.156 65.4 399.153 65.4C399.151 65.4 399.148 65.4 399.145 65.4C399.143 65.4 399.14 65.4 399.138 65.4C399.135 65.4 399.132 65.4 399.13 65.4C399.127 65.4 399.124 65.4 399.122 65.4C399.119 65.4 399.117 65.4 399.114 65.4C399.111 65.4 399.109 65.4 399.106 65.4C399.104 65.4 399.101 65.4 399.098 65.4C399.096 65.4 399.093 65.4 399.091 65.4C399.088 65.4 399.085 65.4 399.083 65.4C399.08 65.4 399.078 65.4 399.075 65.4C399.072 65.4 399.07 65.4 399.067 65.4C399.065 65.4 399.062 65.4 399.059 65.4C399.057 65.4 399.054 65.4 399.052 65.4C399.049 65.4 399.046 65.4 399.044 65.4C399.041 65.4 399.039 65.4 399.036 65.4C399.033 65.4 399.031 65.4 399.028 65.4C399.026 65.4 399.023 65.4 399.02 65.4C399.018 65.4 399.015 65.4 399.013 65.4C399.01 65.4 399.007 65.4 399.005 65.4C399.002 65.4 398.999 65.4 398.997 65.4C398.994 65.4 398.992 65.4 398.989 65.4C398.986 65.4 398.984 65.4 398.981 65.4C398.979 65.4 398.976 65.4 398.973 65.4C398.971 65.4 398.968 65.4 398.966 65.4C398.963 65.4 398.96 65.4 398.958 65.4C398.955 65.4 398.953 65.4 398.95 65.4C398.947 65.4 398.945 65.4 398.942 65.4C398.94 65.4 398.937 65.4 398.934 65.4C398.932 65.4 398.929 65.4 398.927 65.4C398.924 65.4 398.921 65.4 398.919 65.4C398.916 65.4 398.914 65.4 398.911 65.4C398.908 65.4 398.906 65.4 398.903 65.4C398.901 65.4 398.898 65.4 398.895 65.4C398.893 65.4 398.89 65.4 398.888 65.4C398.885 65.4 398.882 65.4 398.88 65.4C398.877 65.4 398.874 65.4 398.872 65.4C398.869 65.4 398.867 65.4 398.864 65.4C398.861 65.4 398.859 65.4 398.856 65.4C398.854 65.4 398.851 65.4 398.848 65.4C398.846 65.4 398.843 65.4 398.841 65.4C398.838 65.4 398.835 65.4 398.833 65.4C398.83 65.4 398.828 65.4 398.825 65.4C398.822 65.4 398.82 65.4 398.817 65.4C398.815 65.4 398.812 65.4 398.809 65.4C398.807 65.4 398.804 65.4 398.802 65.4C398.799 65.4 398.796 65.4 398.794 65.4C398.791 65.4 398.789 65.4 398.786 65.4C398.783 65.4 398.781 65.4 398.778 65.4C398.776 65.4 398.773 65.4 398.77 65.4C398.768 65.4 398.765 65.4 398.763 65.4C398.76 65.4 398.757 65.4 398.755 65.4C398.752 65.4 398.749 65.4 398.747 65.4C398.744 65.4 398.742 65.4 398.739 65.4C398.736 65.4 398.734 65.4 398.731 65.4C398.729 65.4 398.726 65.4 398.723 65.4C398.721 65.4 398.718 65.4 398.716 65.4C398.713 65.4 398.71 65.4 398.708 65.4C398.705 65.4 398.703 65.4 398.7 65.4C398.697 65.4 398.695 65.4 398.692 65.4C398.69 65.4 398.687 65.4 398.684 65.4C398.682 65.4 398.679 65.4 398.677 65.4C398.674 65.4 398.671 65.4 398.669 65.4C398.666 65.4 398.664 65.4 398.661 65.4C398.658 65.4 398.656 65.4 398.653 65.4C398.651 65.4 398.648 65.4 398.645 65.4C398.643 65.4 398.64 65.4 398.638 65.4C398.635 65.4 398.632 65.4 398.63 65.4C398.627 65.4 398.624 65.4 398.622 65.4C398.619 65.4 398.617 65.4 398.614 65.4C398.611 65.4 398.609 65.4 398.606 65.4C398.604 65.4 398.601 65.4 398.598 65.4C398.596 65.4 398.593 65.4 398.591 65.4V67.4ZM401.618 66.1695L394.418 96.5695L396.364 97.0305L403.564 66.6304L401.618 66.1695ZM395.391 95.8C386.327 95.8 377.713 99.1017 369.566 105.619L370.815 107.181C378.668 100.898 386.854 97.8 395.391 97.8V95.8ZM369.569 105.617C361.717 111.844 355.231 119.823 350.106 129.533L351.875 130.467C356.883 120.977 363.198 113.222 370.812 107.183L369.569 105.617ZM350.112 129.523C344.97 138.995 342.391 148.892 342.391 159.2H344.391C344.391 149.241 346.878 139.671 351.869 130.477L350.112 129.523ZM342.391 159.2V282H344.391V159.2H342.391ZM343.391 281H312.191V283H343.391V281Z" fill="#FFB905" mask="url(#path-1-outside-1_359_3063)"/>
</g>
</svg>
