<svg width="784" height="143" viewBox="0 0 784 143" fill="none" xmlns="http://www.w3.org/2000/svg">
<g opacity="0.5">
<mask id="path-1-outside-1_359_3065" maskUnits="userSpaceOnUse" x="-1" y="-1" width="792" height="145" fill="black">
<rect fill="white" x="-1" y="-1" width="792" height="145"/>
<path d="M47.2 142.6V127.6C49.3333 127.6 51.8 127 54.6 125.8C57.5333 124.467 60.3333 122.667 63 120.4C65.6667 118 67.8667 115.2 69.6 112C71.4667 108.8 72.4 105.2 72.4 101.2C72.4 96.5333 71.1333 92.6667 68.6 89.6C66.0667 86.5333 62.8 84.0667 58.8 82.2C54.9333 80.3333 50.8667 78.8667 46.6 77.8C42.3333 76.7333 38.3333 75.8667 34.6 75.2C31 74.4 28.2667 73.6667 26.4 73C21.8667 71.4 17.7333 69.2667 14 66.6C10.2667 63.8 7.26667 60.2 5 55.8C2.86667 51.4 1.8 46.0667 1.8 39.8C1.8 32.8667 3.13333 27 5.8 22.2C8.46667 17.4 11.7333 13.5333 15.6 10.6C19.4667 7.66666 23.4 5.53333 27.4 4.2C31.4 2.73333 34.7333 1.99999 37.4 1.99999V17.2C36.0667 17.3333 34.2667 17.8667 32 18.8C29.7333 19.6 27.4667 20.9333 25.2 22.8C23.0667 24.6667 21.2 27.0667 19.6 30C18.1333 32.8 17.4 36.2 17.4 40.2C17.4 44.0667 18.4 47.2667 20.4 49.8C22.5333 52.3333 25.2667 54.4 28.6 56C31.9333 57.6 35.6 59 39.6 60.2C43.7333 61.4 47.8 62.4667 51.8 63.4C55.9333 64.3333 59.6 65.4 62.8 66.6C67.3333 68.3333 71.5333 70.6 75.4 73.4C79.2667 76.0667 82.4 79.6 84.8 84C87.2 88.4 88.4 94 88.4 100.8C88.4 108 86.5333 114.8 82.8 121.2C79.0667 127.467 74.0667 132.6 67.8 136.6C61.5333 140.6 54.6667 142.6 47.2 142.6ZM37.4 142.6C31.8 142.6 26.7333 141.467 22.2 139.2C17.6667 136.933 13.7333 134.067 10.4 130.6C7.2 127.133 4.66667 123.6 2.8 120C1.06667 116.4 0.2 113.2 0.2 110.4L14.8 105.2C15.6 110 17.2667 114 19.8 117.2C22.3333 120.4 25.2 122.867 28.4 124.6C31.6 126.2 34.6 127.2 37.4 127.6V142.6ZM67.8 36.2C67 31.9333 65.4 28.4667 63 25.8C60.6 23 57.9333 20.9333 55 19.6C52.2 18.1333 49.6 17.3333 47.2 17.2V1.99999C52.6667 1.99999 57.5333 3.06666 61.8 5.2C66.0667 7.33333 69.7333 10.0667 72.8 13.4C75.8667 16.6 78.2 19.8667 79.8 23.2C81.5333 26.4 82.5333 29.1333 82.8 31.4L67.8 36.2ZM132.433 142V17.6H97.2328V1.99999H183.833V17.6H148.433V142H132.433ZM268.383 142L265.383 106.4C264.849 100.8 263.916 96.1333 262.583 92.4C261.249 88.5333 259.049 85.6667 255.983 83.8C252.916 81.8 248.583 80.8667 242.983 81H221.583V66.2H241.783C249.516 66.2 255.116 64.1333 258.583 60C262.049 55.8667 263.783 49.8 263.783 41.8C263.783 33.5333 261.716 27.2667 257.583 23C253.583 18.7333 247.316 16.6 238.783 16.6H221.583V1.99999H241.983C249.183 2.13332 255.583 3.53332 261.183 6.2C266.783 8.86666 271.183 13 274.383 18.6C277.716 24.2 279.383 31.6667 279.383 41C279.383 49.4 278.116 56.2667 275.583 61.6C273.049 66.8 269.716 70.7333 265.583 73.4C269.583 75.4 272.849 78.6 275.383 83C278.049 87.2667 279.649 92.4667 280.183 98.6L283.583 142H268.383ZM195.783 142V1.99999H211.783V142H195.783ZM347.75 143V127C350.15 127 352.75 126.467 355.55 125.4C358.35 124.2 360.95 122.533 363.35 120.4C365.883 118.267 367.95 115.667 369.55 112.6C371.15 109.4 371.95 105.8 371.95 101.8V42C371.95 39.2 371.35 36.4 370.15 33.6C369.083 30.6667 367.483 27.9333 365.35 25.4C363.35 22.8667 360.883 20.8667 357.95 19.4C355.017 17.8 351.617 17 347.75 17V0.999991C354.017 0.999991 359.617 2.19999 364.55 4.59999C369.483 6.99999 373.683 10.1333 377.15 14C380.617 17.8667 383.283 22 385.15 26.4C387.017 30.6667 387.95 34.8 387.95 38.8V102.2C387.95 108.867 386.683 114.733 384.15 119.8C381.617 124.867 378.35 129.133 374.35 132.6C370.35 136.067 366.017 138.667 361.35 140.4C356.683 142.133 352.15 143 347.75 143ZM336.75 143C332.75 143 328.417 142.133 323.75 140.4C319.217 138.667 314.883 136.067 310.75 132.6C306.617 129.133 303.217 124.867 300.55 119.8C298.017 114.733 296.75 108.867 296.75 102.2V38.8C296.75 34.8 297.683 30.6 299.55 26.2C301.417 21.8 304.083 17.7333 307.55 14C311.017 10.1333 315.217 6.99999 320.15 4.59999C325.217 2.19999 330.817 0.999991 336.95 0.999991V17C333.217 17 329.817 17.8 326.75 19.4C323.817 20.8667 321.283 22.9333 319.15 25.6C317.15 28.1333 315.55 30.8667 314.35 33.8C313.283 36.6 312.75 39.3333 312.75 42V101.8C312.75 105.8 313.55 109.333 315.15 112.4C316.883 115.467 318.95 118.133 321.35 120.4C323.883 122.533 326.483 124.2 329.15 125.4C331.95 126.467 334.483 127 336.75 127V143ZM485.577 142L404.377 12.2V1.99999H418.177L493.377 122.2V142H485.577ZM404.377 142V31.2H405.977L420.377 54.4V142H404.377ZM491.777 103L477.377 79.4V1.99999H493.377V103H491.777ZM549.436 143C546.236 143 542.369 142.333 537.836 141C533.436 139.533 529.036 137.267 524.636 134.2C520.369 131 516.769 126.933 513.836 122C511.036 116.933 509.636 110.8 509.636 103.6V37.2C509.769 34.1333 510.636 30.5333 512.236 26.4C513.969 22.2667 516.436 18.2667 519.636 14.4C522.969 10.5333 527.036 7.33332 531.836 4.79999C536.769 2.26666 542.636 0.999991 549.436 0.999991V16.8C544.903 16.8 540.836 18 537.236 20.4C533.636 22.6667 530.836 25.6 528.836 29.2C526.836 32.6667 525.836 36.4 525.836 40.4V103.6C525.836 108 526.769 111.733 528.636 114.8C530.636 117.733 532.969 120.133 535.636 122C538.303 123.867 540.903 125.2 543.436 126C546.103 126.8 548.103 127.2 549.436 127.2V143ZM559.036 143V127.2C560.769 127.2 562.836 126.667 565.236 125.6C567.636 124.4 569.969 122.733 572.236 120.6C574.636 118.467 576.569 116 578.036 113.2C579.636 110.4 580.436 107.333 580.436 104V86.4H559.036V71.4H596.636V106.8C596.636 110.8 595.503 114.933 593.236 119.2C590.969 123.467 587.969 127.4 584.236 131C580.636 134.6 576.569 137.533 572.036 139.8C567.636 141.933 563.303 143 559.036 143ZM581.036 44.6L580.836 39.6C580.569 35.4667 579.569 32 577.836 29.2C576.236 26.2667 574.236 23.9333 571.836 22.2C569.569 20.3333 567.236 19 564.836 18.2C562.569 17.2667 560.636 16.8 559.036 16.8V0.999991C565.436 0.86666 571.503 2.66666 577.236 6.39999C582.969 9.99999 587.636 14.7333 591.236 20.6C594.836 26.3333 596.636 32.4 596.636 38.8L581.036 44.6ZM612.38 142V1.99999H685.18V17.8H628.38V64.4H666.38V80.2H628.38V126.2H685.18V142H612.38ZM774.047 142L771.047 106.4C770.514 100.8 769.58 96.1333 768.247 92.4C766.914 88.5333 764.714 85.6667 761.647 83.8C758.58 81.8 754.247 80.8667 748.647 81H727.247V66.2H747.447C755.18 66.2 760.78 64.1333 764.247 60C767.714 55.8667 769.447 49.8 769.447 41.8C769.447 33.5333 767.38 27.2667 763.247 23C759.247 18.7333 752.98 16.6 744.447 16.6H727.247V1.99999H747.647C754.847 2.13332 761.247 3.53332 766.847 6.2C772.447 8.86666 776.847 13 780.047 18.6C783.38 24.2 785.047 31.6667 785.047 41C785.047 49.4 783.78 56.2667 781.247 61.6C778.714 66.8 775.38 70.7333 771.247 73.4C775.247 75.4 778.514 78.6 781.047 83C783.714 87.2667 785.314 92.4667 785.847 98.6L789.247 142H774.047ZM701.447 142V1.99999H717.447V142H701.447Z"/>
</mask>
<path d="M47.2 142.6H46.2V143.6H47.2V142.6ZM47.2 127.6V126.6H46.2V127.6H47.2ZM54.6 125.8L54.9939 126.719L55.0039 126.715L55.0138 126.71L54.6 125.8ZM63 120.4L63.6476 121.162L63.6584 121.153L63.669 121.143L63 120.4ZM69.6 112L68.7362 111.496L68.7283 111.51L68.7207 111.524L69.6 112ZM68.6 89.6L69.371 88.9631L69.371 88.9631L68.6 89.6ZM58.8 82.2L58.3652 83.1006L58.3771 83.1062L58.8 82.2ZM46.6 77.8L46.3575 78.7701L46.3575 78.7701L46.6 77.8ZM34.6 75.2L34.3831 76.1762L34.4036 76.1807L34.4242 76.1844L34.6 75.2ZM26.4 73L26.7363 72.0582L26.7328 72.057L26.4 73ZM14 66.6L13.4 67.4L13.4093 67.407L13.4188 67.4137L14 66.6ZM5 55.8L4.10019 56.2363L4.10547 56.2472L4.11103 56.258L5 55.8ZM15.6 10.6L16.2044 11.3967L16.2044 11.3967L15.6 10.6ZM27.4 4.2L27.7162 5.14868L27.7303 5.14399L27.7443 5.13887L27.4 4.2ZM37.4 1.99999H38.4V0.99999H37.4V1.99999ZM37.4 17.2L37.4995 18.195L38.4 18.105V17.2H37.4ZM32 18.8L32.3328 19.743L32.357 19.7344L32.3807 19.7247L32 18.8ZM25.2 22.8L24.5643 22.0281L24.5528 22.0376L24.5415 22.0474L25.2 22.8ZM19.6 30L18.7221 29.5211L18.7181 29.5285L18.7142 29.536L19.6 30ZM20.4 49.8L19.6151 50.4196L19.6249 50.432L19.6351 50.4441L20.4 49.8ZM28.6 56L28.1673 56.9015L28.1673 56.9015L28.6 56ZM39.6 60.2L39.3126 61.1579L39.3212 61.1603L39.6 60.2ZM51.8 63.4L51.5728 64.3739L51.5797 64.3754L51.8 63.4ZM62.8 66.6L63.1571 65.6659L63.1511 65.6637L62.8 66.6ZM75.4 73.4L74.8135 74.2099L74.8228 74.2167L74.8323 74.2232L75.4 73.4ZM84.8 84L85.6779 83.5211L85.6779 83.5211L84.8 84ZM82.8 121.2L83.6591 121.712L83.6638 121.704L82.8 121.2ZM67.8 136.6L68.338 137.443L68.338 137.443L67.8 136.6ZM37.4 142.6V143.6H38.4V142.6H37.4ZM22.2 139.2L22.6472 138.306L22.6472 138.306L22.2 139.2ZM10.4 130.6L9.6652 131.278L9.67211 131.286L9.67917 131.293L10.4 130.6ZM2.8 120L1.899 120.434L1.90543 120.447L1.91225 120.46L2.8 120ZM0.2 110.4L-0.135519 109.458L-0.8 109.695V110.4H0.2ZM14.8 105.2L15.7864 105.036L15.59 103.857L14.4645 104.258L14.8 105.2ZM19.8 117.2L20.584 116.579L20.584 116.579L19.8 117.2ZM28.4 124.6L27.9237 125.479L27.9381 125.487L27.9528 125.494L28.4 124.6ZM37.4 127.6H38.4V126.733L37.5414 126.61L37.4 127.6ZM67.8 36.2L66.8171 36.3843L67.0259 37.4977L68.1048 37.1524L67.8 36.2ZM63 25.8L62.2407 26.4508L62.2486 26.46L62.2567 26.469L63 25.8ZM55 19.6L54.536 20.4858L54.5608 20.4988L54.5862 20.5104L55 19.6ZM47.2 17.2H46.2V18.146L47.1445 18.1985L47.2 17.2ZM47.2 1.99999V0.99999H46.2V1.99999H47.2ZM61.8 5.2L61.3528 6.09442L61.3528 6.09442L61.8 5.2ZM72.8 13.4L72.0641 14.0771L72.071 14.0846L72.078 14.0919L72.8 13.4ZM79.8 23.2L78.8985 23.6327L78.9091 23.6548L78.9207 23.6763L79.8 23.2ZM82.8 31.4L83.1048 32.3524L83.8894 32.1013L83.7932 31.2832L82.8 31.4ZM48.2 142.6V127.6H46.2V142.6H48.2ZM47.2 128.6C49.5136 128.6 52.1187 127.951 54.9939 126.719L54.2061 124.881C51.4813 126.049 49.153 126.6 47.2 126.6V128.6ZM55.0138 126.71C58.0385 125.335 60.9163 123.484 63.6476 121.162L62.3524 119.638C59.7503 121.85 57.0281 123.598 54.1862 124.89L55.0138 126.71ZM63.669 121.143C66.4217 118.666 68.6924 115.775 70.4793 112.476L68.7207 111.524C67.0409 114.625 64.9116 117.334 62.331 119.657L63.669 121.143ZM70.4638 112.504C72.4267 109.139 73.4 105.362 73.4 101.2H71.4C71.4 105.038 70.5066 108.461 68.7362 111.496L70.4638 112.504ZM73.4 101.2C73.4 96.3431 72.0772 92.2391 69.371 88.9631L67.829 90.2369C70.1895 93.0943 71.4 96.7236 71.4 101.2H73.4ZM69.371 88.9631C66.7331 85.7699 63.3426 83.2163 59.2229 81.2938L58.3771 83.1062C62.2574 84.917 65.4002 87.2968 67.829 90.2369L69.371 88.9631ZM59.2348 81.2994C55.3051 79.4024 51.1739 77.9127 46.8425 76.8299L46.3575 78.7701C50.5595 79.8206 54.5616 81.2643 58.3653 83.1005L59.2348 81.2994ZM46.8425 76.8299C42.5572 75.7585 38.5347 74.8868 34.7758 74.2156L34.4242 76.1844C38.1319 76.8465 42.1095 77.7081 46.3575 78.7701L46.8425 76.8299ZM34.8169 74.2238C31.2293 73.4266 28.5439 72.7038 26.7363 72.0583L26.0637 73.9417C27.9894 74.6295 30.7707 75.3734 34.3831 76.1762L34.8169 74.2238ZM26.7328 72.057C22.2837 70.4867 18.2347 68.3959 14.5812 65.7863L13.4188 67.4137C17.232 70.1375 21.4496 72.3133 26.0672 73.943L26.7328 72.057ZM14.6 65.8C10.9949 63.0962 8.0907 59.616 5.88897 55.342L4.11103 56.258C6.44263 60.784 9.53844 64.5038 13.4 67.4L14.6 65.8ZM5.89981 55.3637C3.84828 51.1324 2.8 45.9567 2.8 39.8H0.8C0.8 46.1766 1.88506 51.6676 4.10019 56.2363L5.89981 55.3637ZM2.8 39.8C2.8 32.9928 4.10897 27.303 6.67416 22.6856L4.92584 21.7143C2.1577 26.697 0.8 32.7405 0.8 39.8H2.8ZM6.67416 22.6856C9.28229 17.991 12.4619 14.2358 16.2044 11.3967L14.9956 9.80331C11.0048 12.8308 7.65104 16.809 4.92584 21.7143L6.67416 22.6856ZM16.2044 11.3967C19.9969 8.51963 23.8343 6.44266 27.7162 5.14868L27.0838 3.25131C22.9657 4.624 18.9365 6.8137 14.9956 9.80331L16.2044 11.3967ZM27.7443 5.13887C31.6918 3.69142 34.8997 2.99999 37.4 2.99999V0.99999C34.567 0.99999 31.1082 1.77523 27.0557 3.26112L27.7443 5.13887ZM36.4 1.99999V17.2H38.4V1.99999H36.4ZM37.3005 16.205C35.8214 16.3529 33.9145 16.9302 31.6193 17.8753L32.3807 19.7247C34.6189 18.8031 36.3119 18.3138 37.4995 18.195L37.3005 16.205ZM31.6672 17.857C29.269 18.7034 26.9018 20.103 24.5643 22.0281L25.8357 23.5719C28.0315 21.7636 30.1977 20.4966 32.3328 19.743L31.6672 17.857ZM24.5415 22.0474C22.3052 24.0042 20.3687 26.5024 18.7221 29.5211L20.4779 30.4789C22.0313 27.6309 23.8281 25.3291 25.8585 23.5526L24.5415 22.0474ZM18.7142 29.536C17.1552 32.5122 16.4 36.0803 16.4 40.2H18.4C18.4 36.3197 19.1114 33.0878 20.4858 30.464L18.7142 29.536ZM16.4 40.2C16.4 44.2454 17.4497 47.6768 19.6151 50.4196L21.1849 49.1804C19.3503 46.8566 18.4 43.8879 18.4 40.2H16.4ZM19.6351 50.4441C21.8698 53.0978 24.7212 55.2474 28.1673 56.9015L29.0327 55.0985C25.8122 53.5526 23.1969 51.5688 21.1649 49.1559L19.6351 50.4441ZM28.1673 56.9015C31.5531 58.5267 35.2691 59.9448 39.3127 61.1578L39.8873 59.2422C35.9309 58.0552 32.3136 56.6733 29.0327 55.0985L28.1673 56.9015ZM39.3212 61.1603C43.4708 62.3651 47.5547 63.4363 51.5728 64.3738L52.0272 62.4262C48.0453 61.497 43.9959 60.4349 39.8788 59.2397L39.3212 61.1603ZM51.5797 64.3754C55.6787 65.301 59.3002 66.3556 62.4489 67.5363L63.1511 65.6637C59.8998 64.4444 56.188 63.3657 52.0203 62.4246L51.5797 64.3754ZM62.4429 67.5341C66.896 69.2367 71.0187 71.462 74.8135 74.2099L75.9865 72.5901C72.048 69.738 67.7707 67.4299 63.1571 65.6659L62.4429 67.5341ZM74.8323 74.2232C78.5614 76.795 81.592 80.2069 83.9221 84.4788L85.6779 83.5211C83.2081 78.9931 79.9719 75.3383 75.9677 72.5768L74.8323 74.2232ZM83.9221 84.4788C86.2185 88.6889 87.4 94.1102 87.4 100.8H89.4C89.4 93.8898 88.1815 88.1111 85.6779 83.5211L83.9221 84.4788ZM87.4 100.8C87.4 107.818 85.5831 114.444 81.9362 120.696L83.6638 121.704C87.4836 115.156 89.4 108.182 89.4 100.8H87.4ZM81.9409 120.688C78.2889 126.818 73.3999 131.839 67.262 135.757L68.338 137.443C74.7335 133.361 79.8444 128.115 83.6591 121.712L81.9409 120.688ZM67.262 135.757C61.1567 139.654 54.4769 141.6 47.2 141.6V143.6C54.8564 143.6 61.9099 141.546 68.338 137.443L67.262 135.757ZM37.4 141.6C31.9387 141.6 27.0276 140.496 22.6472 138.306L21.7528 140.094C26.439 142.438 31.6613 143.6 37.4 143.6V141.6ZM22.6472 138.306C18.2104 136.087 14.3709 133.287 11.1208 129.907L9.67917 131.293C13.0957 134.846 17.123 137.78 21.7528 140.094L22.6472 138.306ZM11.1348 129.922C7.98567 126.51 5.50734 123.049 3.68775 119.54L1.91225 120.46C3.826 124.151 6.41433 127.757 9.6652 131.278L11.1348 129.922ZM3.701 119.566C2.00694 116.048 1.2 113 1.2 110.4H-0.8C-0.8 113.4 0.126397 116.752 1.899 120.434L3.701 119.566ZM0.535519 111.342L15.1355 106.142L14.4645 104.258L-0.135519 109.458L0.535519 111.342ZM13.8136 105.364C14.6361 110.299 16.3592 114.465 19.016 117.821L20.584 116.579C18.1741 113.535 16.5639 109.701 15.7864 105.036L13.8136 105.364ZM19.016 117.821C21.6231 121.114 24.591 123.674 27.9237 125.479L28.8763 123.721C25.809 122.059 23.0436 119.686 20.584 116.579L19.016 117.821ZM27.9528 125.494C31.2247 127.13 34.3283 128.171 37.2586 128.59L37.5414 126.61C34.8717 126.229 31.9753 125.27 28.8472 123.706L27.9528 125.494ZM36.4 127.6V142.6H38.4V127.6H36.4ZM68.7829 36.0157C67.9562 31.6066 66.2897 27.9603 63.7433 25.131L62.2567 26.469C64.5103 28.973 66.0438 32.2601 66.8171 36.3843L68.7829 36.0157ZM63.7593 25.1492C61.2781 22.2545 58.4977 20.0914 55.4138 18.6896L54.5862 20.5104C57.3689 21.7752 59.9219 23.7455 62.2407 26.4508L63.7593 25.1492ZM55.464 18.7142C52.5755 17.2011 49.8356 16.3449 47.2555 16.2015L47.1445 18.1985C49.3644 18.3218 51.8245 19.0655 54.536 20.4858L55.464 18.7142ZM48.2 17.2V1.99999H46.2V17.2H48.2ZM47.2 2.99999C52.5342 2.99999 57.244 4.04002 61.3528 6.09442L62.2472 4.30557C57.8227 2.0933 52.7992 0.99999 47.2 0.99999V2.99999ZM61.3528 6.09442C65.5167 8.17636 69.084 10.8378 72.0641 14.0771L73.5359 12.7229C70.3827 9.29553 66.6167 6.4903 62.2472 4.30557L61.3528 6.09442ZM72.078 14.0919C75.0856 17.2302 77.3523 20.4115 78.8985 23.6327L80.7015 22.7673C79.0477 19.3218 76.6477 15.9697 73.522 12.7081L72.078 14.0919ZM78.9207 23.6763C80.6253 26.8232 81.5612 29.4286 81.8069 31.5168L83.7932 31.2832C83.5055 28.8381 82.4414 25.9767 80.6793 22.7237L78.9207 23.6763ZM82.4952 30.4476L67.4952 35.2476L68.1048 37.1524L83.1048 32.3524L82.4952 30.4476ZM132.433 142H131.433V143H132.433V142ZM132.433 17.6H133.433V16.6H132.433V17.6ZM97.2328 17.6H96.2328V18.6H97.2328V17.6ZM97.2328 1.99999V0.99999H96.2328V1.99999H97.2328ZM183.833 1.99999H184.833V0.99999H183.833V1.99999ZM183.833 17.6V18.6H184.833V17.6H183.833ZM148.433 17.6V16.6H147.433V17.6H148.433ZM148.433 142V143H149.433V142H148.433ZM133.433 142V17.6H131.433V142H133.433ZM132.433 16.6H97.2328V18.6H132.433V16.6ZM98.2328 17.6V1.99999H96.2328V17.6H98.2328ZM97.2328 2.99999H183.833V0.99999H97.2328V2.99999ZM182.833 1.99999V17.6H184.833V1.99999H182.833ZM183.833 16.6H148.433V18.6H183.833V16.6ZM147.433 17.6V142H149.433V17.6H147.433ZM148.433 141H132.433V143H148.433V141ZM268.383 142L267.386 142.084L267.464 143H268.383V142ZM265.383 106.4L266.379 106.316L266.378 106.305L265.383 106.4ZM262.583 92.4L261.637 92.726L261.641 92.7363L262.583 92.4ZM255.983 83.8L255.437 84.6376L255.45 84.6461L255.463 84.6542L255.983 83.8ZM242.983 81V82H242.995L243.007 81.9997L242.983 81ZM221.583 81H220.583V82H221.583V81ZM221.583 66.2V65.2H220.583V66.2H221.583ZM258.583 60L257.817 59.3574L257.817 59.3574L258.583 60ZM257.583 23L256.853 23.6839L256.859 23.6899L256.865 23.6958L257.583 23ZM221.583 16.6H220.583V17.6H221.583V16.6ZM221.583 1.99999V0.99999H220.583V1.99999H221.583ZM241.983 1.99999L242.001 1.00016L241.992 0.99999H241.983V1.99999ZM261.183 6.2L260.753 7.10286L260.753 7.10286L261.183 6.2ZM274.383 18.6L273.515 19.0961L273.519 19.1038L273.524 19.1115L274.383 18.6ZM275.583 61.6L276.482 62.038L276.486 62.0291L275.583 61.6ZM265.583 73.4L265.041 72.5597L263.567 73.5103L265.136 74.2944L265.583 73.4ZM275.383 83L274.516 83.499L274.525 83.5146L274.535 83.53L275.383 83ZM280.183 98.6L281.18 98.5219L281.179 98.5134L280.183 98.6ZM283.583 142V143H284.664L284.58 141.922L283.583 142ZM195.783 142H194.783V143H195.783V142ZM195.783 1.99999V0.99999H194.783V1.99999H195.783ZM211.783 1.99999H212.783V0.99999H211.783V1.99999ZM211.783 142V143H212.783V142H211.783ZM269.379 141.916L266.379 106.316L264.386 106.484L267.386 142.084L269.379 141.916ZM266.378 106.305C265.84 100.654 264.895 95.8999 263.525 92.0637L261.641 92.7363C262.938 96.3667 263.859 100.946 264.387 106.495L266.378 106.305ZM263.528 92.074C262.13 88.0195 259.796 84.9503 256.503 82.9458L255.463 84.6542C258.303 86.383 260.369 89.0471 261.637 92.726L263.528 92.074ZM256.529 82.9624C253.225 80.8077 248.661 79.8645 242.959 80.0003L243.007 81.9997C248.505 81.8688 252.607 82.7923 255.437 84.6376L256.529 82.9624ZM242.983 80H221.583V82H242.983V80ZM222.583 81V66.2H220.583V81H222.583ZM221.583 67.2H241.783V65.2H221.583V67.2ZM241.783 67.2C249.679 67.2 255.621 65.0875 259.349 60.6426L257.817 59.3574C254.611 63.1791 249.353 65.2 241.783 65.2V67.2ZM259.349 60.6426C263.025 56.2599 264.783 49.9251 264.783 41.8H262.783C262.783 49.6749 261.074 55.4734 257.817 59.3574L259.349 60.6426ZM264.783 41.8C264.783 33.3766 262.676 26.8202 258.301 22.3042L256.865 23.6958C260.756 27.7131 262.783 33.6901 262.783 41.8H264.783ZM258.312 22.3161C254.051 17.7702 247.464 15.6 238.783 15.6V17.6C247.168 17.6 253.115 19.6964 256.853 23.6839L258.312 22.3161ZM238.783 15.6H221.583V17.6H238.783V15.6ZM222.583 16.6V1.99999H220.583V16.6H222.583ZM221.583 2.99999H241.983V0.99999H221.583V2.99999ZM241.964 2.99982C249.045 3.13093 255.301 4.50655 260.753 7.10286L261.613 5.29714C255.865 2.5601 249.321 1.13571 242.001 1.00016L241.964 2.99982ZM260.753 7.10286C266.161 9.67818 270.411 13.6657 273.515 19.0961L275.251 18.1039C271.954 12.3343 267.405 8.05514 261.613 5.29714L260.753 7.10286ZM273.524 19.1115C276.733 24.5039 278.383 31.7732 278.383 41H280.383C280.383 31.5601 278.699 23.8961 275.242 18.0885L273.524 19.1115ZM278.383 41C278.383 49.31 277.128 56.016 274.68 61.1709L276.486 62.0291C279.104 56.5174 280.383 49.49 280.383 41H278.383ZM274.684 61.162C272.216 66.2271 268.995 70.0083 265.041 72.5597L266.125 74.2403C270.437 71.4584 273.883 67.3729 276.482 62.038L274.684 61.162ZM265.136 74.2944C268.937 76.1951 272.067 79.2454 274.516 83.499L276.249 82.501C273.632 77.9546 270.229 74.6049 266.03 72.5056L265.136 74.2944ZM274.535 83.53C277.101 87.636 278.664 92.676 279.187 98.6866L281.179 98.5134C280.635 92.2573 278.998 86.8974 276.231 82.47L274.535 83.53ZM279.186 98.6781L282.586 142.078L284.58 141.922L281.18 98.5219L279.186 98.6781ZM283.583 141H268.383V143H283.583V141ZM196.783 142V1.99999H194.783V142H196.783ZM195.783 2.99999H211.783V0.99999H195.783V2.99999ZM210.783 1.99999V142H212.783V1.99999H210.783ZM211.783 141H195.783V143H211.783V141ZM347.75 143H346.75V144H347.75V143ZM347.75 127V126H346.75V127H347.75ZM355.55 125.4L355.906 126.334L355.925 126.327L355.944 126.319L355.55 125.4ZM363.35 120.4L362.706 119.635L362.696 119.644L362.686 119.653L363.35 120.4ZM369.55 112.6L370.437 113.063L370.441 113.055L370.444 113.047L369.55 112.6ZM370.15 33.6L369.21 33.9417L369.22 33.9681L369.231 33.9939L370.15 33.6ZM365.35 25.4L364.565 26.0196L364.575 26.032L364.585 26.0441L365.35 25.4ZM357.95 19.4L357.471 20.2779L357.487 20.2864L357.503 20.2944L357.95 19.4ZM347.75 17H346.75V18H347.75V17ZM347.75 0.999991V-8.58307e-06H346.75V0.999991H347.75ZM377.15 14L377.895 13.3324L377.895 13.3324L377.15 14ZM385.15 26.4L384.229 26.7906L384.234 26.8008L385.15 26.4ZM384.15 119.8L383.256 119.353L383.256 119.353L384.15 119.8ZM374.35 132.6L375.005 133.356L375.005 133.356L374.35 132.6ZM361.35 140.4L361.002 139.463L361.002 139.463L361.35 140.4ZM336.75 143V144H337.75V143H336.75ZM323.75 140.4L323.393 141.334L323.402 141.337L323.75 140.4ZM310.75 132.6L311.393 131.834L311.393 131.834L310.75 132.6ZM300.55 119.8L299.656 120.247L299.66 120.257L299.665 120.266L300.55 119.8ZM299.55 26.2L298.629 25.8094L298.629 25.8094L299.55 26.2ZM307.55 14L308.283 14.6804L308.289 14.674L308.295 14.6675L307.55 14ZM320.15 4.59999L319.722 3.69621L319.713 3.70076L320.15 4.59999ZM336.95 0.999991H337.95V-8.58307e-06H336.95V0.999991ZM336.95 17V18H337.95V17H336.95ZM326.75 19.4L327.197 20.2944L327.205 20.2906L327.213 20.2866L326.75 19.4ZM319.15 25.6L318.369 24.9753L318.365 24.9804L319.15 25.6ZM314.35 33.8L313.424 33.4214L313.42 33.4326L313.416 33.444L314.35 33.8ZM315.15 112.4L314.263 112.863L314.271 112.877L314.279 112.892L315.15 112.4ZM321.35 120.4L320.663 121.127L320.684 121.147L320.706 121.165L321.35 120.4ZM329.15 125.4L328.74 126.312L328.766 126.324L328.794 126.334L329.15 125.4ZM336.75 127H337.75V126H336.75V127ZM348.75 143V127H346.75V143H348.75ZM347.75 128C350.298 128 353.019 127.434 355.906 126.334L355.194 124.466C352.481 125.499 350.002 126 347.75 126V128ZM355.944 126.319C358.848 125.075 361.538 123.348 364.014 121.147L362.686 119.653C360.362 121.718 357.852 123.325 355.156 124.481L355.944 126.319ZM363.994 121.165C366.632 118.944 368.779 116.24 370.437 113.063L368.663 112.137C367.121 115.094 365.135 117.589 362.706 119.635L363.994 121.165ZM370.444 113.047C372.122 109.693 372.95 105.937 372.95 101.8H370.95C370.95 105.663 370.178 109.107 368.656 112.153L370.444 113.047ZM372.95 101.8V42H370.95V101.8H372.95ZM372.95 42C372.95 39.053 372.318 36.1195 371.069 33.2061L369.231 33.9939C370.382 36.6805 370.95 39.3469 370.95 42H372.95ZM371.09 33.2582C369.981 30.208 368.319 27.3734 366.115 24.7559L364.585 26.0441C366.647 28.4932 368.186 31.1253 369.21 33.9417L371.09 33.2582ZM366.135 24.7804C364.042 22.1298 361.46 20.0368 358.397 18.5056L357.503 20.2944C360.307 21.6965 362.658 23.6035 364.565 26.0196L366.135 24.7804ZM358.429 18.5221C355.327 16.8302 351.757 16 347.75 16V18C351.476 18 354.706 18.7698 357.471 20.2779L358.429 18.5221ZM348.75 17V0.999991H346.75V17H348.75ZM347.75 1.99999C353.887 1.99999 359.334 3.17439 364.113 5.49923L364.987 3.70076C359.9 1.2256 354.147 -8.58307e-06 347.75 -8.58307e-06V1.99999ZM364.113 5.49923C368.936 7.84584 373.03 10.9026 376.405 14.6675L377.895 13.3324C374.337 9.36404 370.031 6.15414 364.987 3.70076L364.113 5.49923ZM376.405 14.6675C379.805 18.4593 382.409 22.5003 384.229 26.7905L386.071 26.0094C384.157 21.4996 381.428 17.274 377.895 13.3324L376.405 14.6675ZM384.234 26.8008C386.054 30.9617 386.95 34.9588 386.95 38.8H388.95C388.95 34.6412 387.979 30.3717 386.066 25.9992L384.234 26.8008ZM386.95 38.8V102.2H388.95V38.8H386.95ZM386.95 102.2C386.95 108.739 385.708 114.448 383.256 119.353L385.044 120.247C387.658 115.019 388.95 108.995 388.95 102.2H386.95ZM383.256 119.353C380.777 124.31 377.589 128.47 373.695 131.844L375.005 133.356C379.111 129.797 382.456 125.423 385.044 120.247L383.256 119.353ZM373.695 131.844C369.78 135.238 365.549 137.774 361.002 139.463L361.698 141.337C366.484 139.56 370.92 136.896 375.005 133.356L373.695 131.844ZM361.002 139.463C356.432 141.16 352.017 142 347.75 142V144C352.283 144 356.935 143.107 361.698 141.337L361.002 139.463ZM336.75 142C332.894 142 328.68 141.164 324.098 139.463L323.402 141.337C328.154 143.102 332.606 144 336.75 144V142ZM324.107 139.466C319.689 137.776 315.45 135.237 311.393 131.834L310.107 133.366C314.316 136.896 318.745 139.557 323.393 141.334L324.107 139.466ZM311.393 131.834C307.365 128.456 304.045 124.293 301.435 119.334L299.665 120.266C302.388 125.44 305.869 129.811 310.107 133.366L311.393 131.834ZM301.444 119.353C298.992 114.448 297.75 108.739 297.75 102.2H295.75C295.75 108.995 297.042 115.019 299.656 120.247L301.444 119.353ZM297.75 102.2V38.8H295.75V102.2H297.75ZM297.75 38.8C297.75 34.9577 298.646 30.8906 300.471 26.5905L298.629 25.8094C296.72 30.3094 295.75 34.6423 295.75 38.8H297.75ZM300.471 26.5905C302.289 22.3042 304.89 18.3344 308.283 14.6804L306.817 13.3195C303.277 17.1322 300.544 21.2958 298.629 25.8094L300.471 26.5905ZM308.295 14.6675C311.67 10.9026 315.764 7.84584 320.587 5.49923L319.713 3.70076C314.669 6.15414 310.363 9.36404 306.805 13.3324L308.295 14.6675ZM320.578 5.50373C325.499 3.17289 330.951 1.99999 336.95 1.99999V-8.58307e-06C330.683 -8.58307e-06 324.935 1.2271 319.722 3.69625L320.578 5.50373ZM335.95 0.999991V17H337.95V0.999991H335.95ZM336.95 16C333.069 16 329.508 16.8331 326.287 18.5134L327.213 20.2866C330.125 18.7669 333.365 18 336.95 18V16ZM326.303 18.5056C323.235 20.0396 320.589 22.2004 318.369 24.9753L319.931 26.2247C321.978 23.6662 324.399 21.6937 327.197 20.2944L326.303 18.5056ZM318.365 24.9804C316.308 27.5857 314.661 30.3999 313.424 33.4214L315.276 34.1786C316.44 31.3334 317.992 28.681 319.935 26.2196L318.365 24.9804ZM313.416 33.444C312.311 36.3437 311.75 39.1976 311.75 42H313.75C313.75 39.4691 314.256 36.8563 315.284 34.156L313.416 33.444ZM311.75 42V101.8H313.75V42H311.75ZM311.75 101.8C311.75 105.936 312.578 109.632 314.263 112.863L316.037 111.937C314.522 109.034 313.75 105.664 313.75 101.8H311.75ZM314.279 112.892C316.059 116.04 318.186 118.787 320.663 121.127L322.037 119.673C319.714 117.479 317.708 114.893 316.021 111.908L314.279 112.892ZM320.706 121.165C323.301 123.35 325.978 125.069 328.74 126.312L329.56 124.488C326.988 123.331 324.466 121.717 321.994 119.635L320.706 121.165ZM328.794 126.334C331.673 127.431 334.329 128 336.75 128V126C334.637 126 332.227 125.502 329.506 124.466L328.794 126.334ZM335.75 127V143H337.75V127H335.75ZM485.577 142L484.729 142.53L485.023 143H485.577V142ZM404.377 12.2H403.377V12.487L403.529 12.7303L404.377 12.2ZM404.377 1.99999V0.99999H403.377V1.99999H404.377ZM418.177 1.99999L419.024 1.46961L418.731 0.99999H418.177V1.99999ZM493.377 122.2H494.377V121.913L494.224 121.67L493.377 122.2ZM493.377 142V143H494.377V142H493.377ZM404.377 142H403.377V143H404.377V142ZM404.377 31.2V30.2H403.377V31.2H404.377ZM405.977 31.2L406.826 30.6726L406.533 30.2H405.977V31.2ZM420.377 54.4H421.377V54.1149L421.226 53.8726L420.377 54.4ZM420.377 142V143H421.377V142H420.377ZM491.777 103L490.923 103.521L491.215 104H491.777V103ZM477.377 79.4H476.377V79.681L476.523 79.9209L477.377 79.4ZM477.377 1.99999V0.99999H476.377V1.99999H477.377ZM493.377 1.99999H494.377V0.99999H493.377V1.99999ZM493.377 103V104H494.377V103H493.377ZM486.424 141.47L405.224 11.6696L403.529 12.7303L484.729 142.53L486.424 141.47ZM405.377 12.2V1.99999H403.377V12.2H405.377ZM404.377 2.99999H418.177V0.99999H404.377V2.99999ZM417.329 2.53037L492.529 122.73L494.224 121.67L419.024 1.46961L417.329 2.53037ZM492.377 122.2V142H494.377V122.2H492.377ZM493.377 141H485.577V143H493.377V141ZM405.377 142V31.2H403.377V142H405.377ZM404.377 32.2H405.977V30.2H404.377V32.2ZM405.127 31.7274L419.527 54.9274L421.226 53.8726L406.826 30.6726L405.127 31.7274ZM419.377 54.4V142H421.377V54.4H419.377ZM420.377 141H404.377V143H420.377V141ZM492.63 102.479L478.23 78.8791L476.523 79.9209L490.923 103.521L492.63 102.479ZM478.377 79.4V1.99999H476.377V79.4H478.377ZM477.377 2.99999H493.377V0.99999H477.377V2.99999ZM492.377 1.99999V103H494.377V1.99999H492.377ZM493.377 102H491.777V104H493.377V102ZM549.436 143V144H550.436V143H549.436ZM537.836 141L537.52 141.949L537.537 141.954L537.554 141.959L537.836 141ZM524.636 134.2L524.036 135L524.05 135.01L524.064 135.02L524.636 134.2ZM513.836 122L512.961 122.484L512.968 122.498L512.976 122.511L513.836 122ZM509.636 37.2L508.637 37.1566L508.636 37.1783V37.2H509.636ZM512.236 26.4L511.314 26.0133L511.308 26.0261L511.303 26.039L512.236 26.4ZM519.636 14.4L518.879 13.7471L518.872 13.7547L518.866 13.7624L519.636 14.4ZM531.836 4.79999L531.379 3.91037L531.369 3.91561L531.836 4.79999ZM549.436 0.999991H550.436V-8.58307e-06H549.436V0.999991ZM549.436 16.8V17.8H550.436V16.8H549.436ZM537.236 20.4L537.769 21.2462L537.78 21.2393L537.791 21.232L537.236 20.4ZM528.836 29.2L529.702 29.6997L529.706 29.6927L529.71 29.6856L528.836 29.2ZM528.636 114.8L527.782 115.32L527.795 115.342L527.81 115.363L528.636 114.8ZM535.636 122L536.209 121.181L536.209 121.181L535.636 122ZM543.436 126L543.135 126.954L543.142 126.956L543.149 126.958L543.436 126ZM549.436 127.2H550.436V126.2H549.436V127.2ZM559.036 143H558.036V144H559.036V143ZM559.036 127.2V126.2H558.036V127.2H559.036ZM565.236 125.6L565.642 126.514L565.663 126.505L565.683 126.494L565.236 125.6ZM572.236 120.6L571.572 119.853L571.561 119.862L571.551 119.872L572.236 120.6ZM578.036 113.2L577.168 112.704L577.159 112.72L577.15 112.736L578.036 113.2ZM580.436 86.4H581.436V85.4H580.436V86.4ZM559.036 86.4H558.036V87.4H559.036V86.4ZM559.036 71.4V70.4H558.036V71.4H559.036ZM596.636 71.4H597.636V70.4H596.636V71.4ZM593.236 119.2L592.353 118.731L592.353 118.731L593.236 119.2ZM584.236 131L583.542 130.28L583.535 130.286L583.529 130.293L584.236 131ZM572.036 139.8L572.472 140.7L572.483 140.694L572.036 139.8ZM581.036 44.6L580.037 44.64L580.092 46.0179L581.384 45.5373L581.036 44.6ZM580.836 39.6L581.835 39.56L581.835 39.5478L581.834 39.5356L580.836 39.6ZM577.836 29.2L576.958 29.6788L576.971 29.703L576.986 29.7264L577.836 29.2ZM571.836 22.2L571.2 22.9719L571.225 22.9921L571.25 23.0107L571.836 22.2ZM564.836 18.2L564.455 19.1247L564.487 19.1378L564.52 19.1487L564.836 18.2ZM559.036 16.8H558.036V17.8H559.036V16.8ZM559.036 0.999991L559.015 0.000208355L558.036 0.0206075V0.999991H559.036ZM577.236 6.39999L576.69 7.23799L576.697 7.24249L576.704 7.24688L577.236 6.39999ZM591.236 20.6L590.384 21.123L590.389 21.1318L591.236 20.6ZM596.636 38.8L596.984 39.7373L597.636 39.4951V38.8H596.636ZM549.436 142C546.365 142 542.599 141.359 538.118 140.041L537.554 141.959C542.139 143.308 546.107 144 549.436 144V142ZM538.152 140.051C533.856 138.619 529.541 136.4 525.208 133.38L524.064 135.02C528.531 138.133 533.016 140.447 537.52 141.949L538.152 140.051ZM525.236 133.4C521.082 130.284 517.567 126.319 514.695 121.489L512.976 122.511C515.971 127.548 519.657 131.716 524.036 135L525.236 133.4ZM514.711 121.516C512.011 116.63 510.636 110.671 510.636 103.6H508.636C508.636 110.929 510.061 117.237 512.961 122.484L514.711 121.516ZM510.636 103.6V37.2H508.636V103.6H510.636ZM510.635 37.2434C510.762 34.3222 511.592 30.8338 513.169 26.761L511.303 26.039C509.68 30.2328 508.777 33.9445 508.637 37.1566L510.635 37.2434ZM513.158 26.7867C514.849 22.7541 517.262 18.8375 520.406 15.0376L518.866 13.7624C515.61 17.6959 513.089 21.7792 511.314 26.0133L513.158 26.7867ZM520.393 15.0529C523.64 11.2867 527.606 8.16311 532.303 5.68437L531.369 3.91561C526.466 6.50353 522.298 9.7799 518.879 13.7471L520.393 15.0529ZM532.293 5.68956C537.056 3.24341 542.759 1.99999 549.436 1.99999V-8.58307e-06C542.512 -8.58307e-06 536.482 1.28991 531.379 3.91042L532.293 5.68956ZM548.436 0.999991V16.8H550.436V0.999991H548.436ZM549.436 15.8C544.715 15.8 540.454 17.053 536.681 19.5679L537.791 21.232C541.218 18.9469 545.09 17.8 549.436 17.8V15.8ZM536.703 19.5538C532.966 21.9069 530.046 24.9624 527.962 28.7144L529.71 29.6856C531.626 26.2376 534.306 23.4264 537.769 21.2462L536.703 19.5538ZM527.97 28.7003C525.882 32.3188 524.836 36.2245 524.836 40.4H526.836C526.836 36.5755 527.79 33.0145 529.702 29.6997L527.97 28.7003ZM524.836 40.4V103.6H526.836V40.4H524.836ZM524.836 103.6C524.836 108.142 525.8 112.065 527.782 115.32L529.49 114.28C527.738 111.402 526.836 107.858 526.836 103.6H524.836ZM527.81 115.363C529.872 118.387 532.288 120.877 535.062 122.819L536.209 121.181C533.65 119.389 531.4 117.079 529.462 114.237L527.81 115.363ZM535.062 122.819C537.795 124.732 540.485 126.117 543.135 126.954L543.737 125.046C541.32 124.283 538.811 123.002 536.209 121.181L535.062 122.819ZM543.149 126.958C545.83 127.762 547.948 128.2 549.436 128.2V126.2C548.257 126.2 546.375 125.838 543.723 125.042L543.149 126.958ZM548.436 127.2V143H550.436V127.2H548.436ZM560.036 143V127.2H558.036V143H560.036ZM559.036 128.2C560.962 128.2 563.174 127.611 565.642 126.514L564.83 124.686C562.498 125.723 560.576 126.2 559.036 126.2V128.2ZM565.683 126.494C568.183 125.245 570.595 123.518 572.921 121.328L571.551 119.872C569.344 121.949 567.089 123.555 564.789 124.706L565.683 126.494ZM572.9 121.347C575.389 119.135 577.398 116.573 578.922 113.664L577.15 112.736C575.74 115.427 573.883 117.798 571.572 119.853L572.9 121.347ZM578.904 113.696C580.594 110.74 581.436 107.501 581.436 104H579.436C579.436 107.165 578.678 110.06 577.168 112.704L578.904 113.696ZM581.436 104V86.4H579.436V104H581.436ZM580.436 85.4H559.036V87.4H580.436V85.4ZM560.036 86.4V71.4H558.036V86.4H560.036ZM559.036 72.4H596.636V70.4H559.036V72.4ZM595.636 71.4V106.8H597.636V71.4H595.636ZM595.636 106.8C595.636 110.606 594.559 114.579 592.353 118.731L594.119 119.669C596.447 115.288 597.636 110.994 597.636 106.8H595.636ZM592.353 118.731C590.139 122.898 587.205 126.748 583.542 130.28L584.93 131.72C588.734 128.052 591.799 124.035 594.119 119.669L592.353 118.731ZM583.529 130.293C580.004 133.817 576.025 136.687 571.589 138.906L572.483 140.694C577.113 138.379 581.267 135.383 584.943 131.707L583.529 130.293ZM571.6 138.9C567.316 140.977 563.131 142 559.036 142V144C563.474 144 567.956 142.889 572.472 140.7L571.6 138.9ZM582.035 44.56L581.835 39.56L579.837 39.64L580.037 44.64L582.035 44.56ZM581.834 39.5356C581.559 35.2799 580.525 31.6446 578.686 28.6736L576.986 29.7264C578.613 32.3554 579.579 35.6535 579.838 39.6644L581.834 39.5356ZM578.714 28.7211C577.052 25.6737 574.957 23.2207 572.421 21.3893L571.25 23.0107C573.515 24.646 575.42 26.8596 576.958 29.6788L578.714 28.7211ZM572.472 21.4281C570.125 19.4957 567.686 18.0958 565.152 17.2513L564.52 19.1487C566.786 19.9042 569.013 21.1709 571.2 22.9719L572.472 21.4281ZM565.217 17.2753C562.887 16.316 560.817 15.8 559.036 15.8V17.8C560.455 17.8 562.252 18.2173 564.455 19.1247L565.217 17.2753ZM560.036 16.8V0.999991H558.036V16.8H560.036ZM559.057 1.99977C565.242 1.87092 571.113 3.60632 576.69 7.23799L577.782 5.562C571.892 1.727 565.63 -0.137599 559.015 0.000208355L559.057 1.99977ZM576.704 7.24688C582.305 10.7636 586.863 15.3853 590.384 21.123L592.088 20.077C588.409 14.0814 583.634 9.23636 577.768 5.5531L576.704 7.24688ZM590.389 21.1318C593.895 26.7154 595.636 32.5992 595.636 38.8H597.636C597.636 32.2008 595.777 25.9513 592.083 20.0682L590.389 21.1318ZM596.287 37.8627L580.687 43.6627L581.384 45.5373L596.984 39.7373L596.287 37.8627ZM612.38 142H611.38V143H612.38V142ZM612.38 1.99999V0.99999H611.38V1.99999H612.38ZM685.18 1.99999H686.18V0.99999H685.18V1.99999ZM685.18 17.8V18.8H686.18V17.8H685.18ZM628.38 17.8V16.8H627.38V17.8H628.38ZM628.38 64.4H627.38V65.4H628.38V64.4ZM666.38 64.4H667.38V63.4H666.38V64.4ZM666.38 80.2V81.2H667.38V80.2H666.38ZM628.38 80.2V79.2H627.38V80.2H628.38ZM628.38 126.2H627.38V127.2H628.38V126.2ZM685.18 126.2H686.18V125.2H685.18V126.2ZM685.18 142V143H686.18V142H685.18ZM613.38 142V1.99999H611.38V142H613.38ZM612.38 2.99999H685.18V0.99999H612.38V2.99999ZM684.18 1.99999V17.8H686.18V1.99999H684.18ZM685.18 16.8H628.38V18.8H685.18V16.8ZM627.38 17.8V64.4H629.38V17.8H627.38ZM628.38 65.4H666.38V63.4H628.38V65.4ZM665.38 64.4V80.2H667.38V64.4H665.38ZM666.38 79.2H628.38V81.2H666.38V79.2ZM627.38 80.2V126.2H629.38V80.2H627.38ZM628.38 127.2H685.18V125.2H628.38V127.2ZM684.18 126.2V142H686.18V126.2H684.18ZM685.18 141H612.38V143H685.18V141ZM774.047 142L773.05 142.084L773.128 143H774.047V142ZM771.047 106.4L772.043 106.316L772.042 106.305L771.047 106.4ZM768.247 92.4L767.301 92.726L767.305 92.7363L768.247 92.4ZM761.647 83.8L761.101 84.6376L761.114 84.6461L761.127 84.6542L761.647 83.8ZM748.647 81V82H748.659L748.671 81.9997L748.647 81ZM727.247 81H726.247V82H727.247V81ZM727.247 66.2V65.2H726.247V66.2H727.247ZM764.247 60L763.481 59.3574L763.481 59.3574L764.247 60ZM763.247 23L762.517 23.6839L762.523 23.6899L762.529 23.6958L763.247 23ZM727.247 16.6H726.247V17.6H727.247V16.6ZM727.247 1.99999V0.99999H726.247V1.99999H727.247ZM747.647 1.99999L747.665 1.00016L747.656 0.99999H747.647V1.99999ZM766.847 6.2L766.417 7.10286L766.417 7.10286L766.847 6.2ZM780.047 18.6L779.179 19.0961L779.183 19.1038L779.188 19.1115L780.047 18.6ZM781.247 61.6L782.146 62.038L782.15 62.0291L781.247 61.6ZM771.247 73.4L770.705 72.5597L769.231 73.5103L770.8 74.2944L771.247 73.4ZM781.047 83L780.18 83.499L780.189 83.5146L780.199 83.53L781.047 83ZM785.847 98.6L786.844 98.5219L786.843 98.5134L785.847 98.6ZM789.247 142V143H790.328L790.244 141.922L789.247 142ZM701.447 142H700.447V143H701.447V142ZM701.447 1.99999V0.99999H700.447V1.99999H701.447ZM717.447 1.99999H718.447V0.99999H717.447V1.99999ZM717.447 142V143H718.447V142H717.447ZM775.043 141.916L772.043 106.316L770.05 106.484L773.05 142.084L775.043 141.916ZM772.042 106.305C771.504 100.654 770.559 95.8999 769.189 92.0637L767.305 92.7363C768.602 96.3667 769.523 100.946 770.051 106.495L772.042 106.305ZM769.192 92.074C767.794 88.0195 765.46 84.9503 762.167 82.9458L761.127 84.6542C763.967 86.383 766.033 89.0471 767.302 92.726L769.192 92.074ZM762.193 82.9624C758.889 80.8077 754.325 79.8645 748.623 80.0003L748.671 81.9997C754.169 81.8688 758.271 82.7923 761.101 84.6376L762.193 82.9624ZM748.647 80H727.247V82H748.647V80ZM728.247 81V66.2H726.247V81H728.247ZM727.247 67.2H747.447V65.2H727.247V67.2ZM747.447 67.2C755.343 67.2 761.285 65.0875 765.013 60.6426L763.481 59.3574C760.275 63.1791 755.017 65.2 747.447 65.2V67.2ZM765.013 60.6426C768.689 56.2599 770.447 49.9251 770.447 41.8H768.447C768.447 49.6749 766.738 55.4734 763.481 59.3574L765.013 60.6426ZM770.447 41.8C770.447 33.3766 768.34 26.8202 763.965 22.3042L762.529 23.6958C766.42 27.7131 768.447 33.6901 768.447 41.8H770.447ZM763.976 22.3161C759.715 17.7702 753.129 15.6 744.447 15.6V17.6C752.832 17.6 758.779 19.6964 762.517 23.6839L763.976 22.3161ZM744.447 15.6H727.247V17.6H744.447V15.6ZM728.247 16.6V1.99999H726.247V16.6H728.247ZM727.247 2.99999H747.647V0.99999H727.247V2.99999ZM747.628 2.99982C754.709 3.13093 760.965 4.50655 766.417 7.10286L767.277 5.29714C761.529 2.5601 754.985 1.13571 747.665 1.00016L747.628 2.99982ZM766.417 7.10286C771.825 9.67818 776.076 13.6657 779.179 19.0961L780.915 18.1039C777.618 12.3343 773.069 8.05514 767.277 5.29714L766.417 7.10286ZM779.188 19.1115C782.397 24.5039 784.047 31.7732 784.047 41H786.047C786.047 31.5601 784.363 23.8961 780.906 18.0885L779.188 19.1115ZM784.047 41C784.047 49.31 782.792 56.016 780.344 61.1709L782.15 62.0291C784.768 56.5174 786.047 49.49 786.047 41H784.047ZM780.348 61.162C777.88 66.2271 774.659 70.0083 770.705 72.5597L771.789 74.2403C776.101 71.4584 779.547 67.3729 782.146 62.038L780.348 61.162ZM770.8 74.2944C774.601 76.1951 777.731 79.2454 780.18 83.499L781.914 82.501C779.296 77.9546 775.893 74.6049 771.694 72.5056L770.8 74.2944ZM780.199 83.53C782.765 87.636 784.328 92.676 784.851 98.6866L786.843 98.5134C786.299 92.2573 784.662 86.8974 781.895 82.47L780.199 83.53ZM784.85 98.6781L788.25 142.078L790.244 141.922L786.844 98.5219L784.85 98.6781ZM789.247 141H774.047V143H789.247V141ZM702.447 142V1.99999H700.447V142H702.447ZM701.447 2.99999H717.447V0.99999H701.447V2.99999ZM716.447 1.99999V142H718.447V1.99999H716.447ZM717.447 141H701.447V143H717.447V141Z" fill="#FFB905" mask="url(#path-1-outside-1_359_3065)"/>
</g>
</svg>
