<svg width="402" height="141" viewBox="0 0 402 141" fill="none" xmlns="http://www.w3.org/2000/svg">
<g opacity="0.3">
<mask id="path-1-outside-1_359_3023" maskUnits="userSpaceOnUse" x="-49" y="-1" width="452" height="143" fill="black">
<rect fill="white" x="-49" y="-1" width="452" height="143"/>
<path d="M-0.799999 140.6V125.6C1.33334 125.6 3.8 125 6.6 123.8C9.53334 122.467 12.3333 120.667 15 118.4C17.6667 116 19.8667 113.2 21.6 110C23.4667 106.8 24.4 103.2 24.4 99.2C24.4 94.5333 23.1333 90.6667 20.6 87.6C18.0667 84.5333 14.8 82.0667 10.8 80.2C6.93334 78.3333 2.86667 76.8667 -1.4 75.8C-5.66666 74.7333 -9.66666 73.8667 -13.4 73.2C-17 72.4 -19.7333 71.6667 -21.6 71C-26.1333 69.4 -30.2667 67.2667 -34 64.6C-37.7333 61.8 -40.7333 58.2 -43 53.8C-45.1333 49.4 -46.2 44.0667 -46.2 37.8C-46.2 30.8667 -44.8667 25 -42.2 20.2C-39.5333 15.4 -36.2667 11.5333 -32.4 8.6C-28.5333 5.66666 -24.6 3.53333 -20.6 2.2C-16.6 0.733326 -13.2667 -9.53674e-06 -10.6 -9.53674e-06V15.2C-11.9333 15.3333 -13.7333 15.8667 -16 16.8C-18.2667 17.6 -20.5333 18.9333 -22.8 20.8C-24.9333 22.6667 -26.8 25.0667 -28.4 28C-29.8667 30.8 -30.6 34.2 -30.6 38.2C-30.6 42.0667 -29.6 45.2667 -27.6 47.8C-25.4667 50.3333 -22.7333 52.4 -19.4 54C-16.0667 55.6 -12.4 57 -8.4 58.2C-4.26667 59.4 -0.199998 60.4667 3.8 61.4C7.93334 62.3333 11.6 63.4 14.8 64.6C19.3333 66.3333 23.5333 68.6 27.4 71.4C31.2667 74.0667 34.4 77.6 36.8 82C39.2 86.4 40.4 92 40.4 98.8C40.4 106 38.5333 112.8 34.8 119.2C31.0667 125.467 26.0667 130.6 19.8 134.6C13.5333 138.6 6.66667 140.6 -0.799999 140.6ZM-10.6 140.6C-16.2 140.6 -21.2667 139.467 -25.8 137.2C-30.3333 134.933 -34.2667 132.067 -37.6 128.6C-40.8 125.133 -43.3333 121.6 -45.2 118C-46.9333 114.4 -47.8 111.2 -47.8 108.4L-33.2 103.2C-32.4 108 -30.7333 112 -28.2 115.2C-25.6667 118.4 -22.8 120.867 -19.6 122.6C-16.4 124.2 -13.4 125.2 -10.6 125.6V140.6ZM19.8 34.2C19 29.9333 17.4 26.4667 15 23.8C12.6 21 9.93334 18.9333 7 17.6C4.2 16.1333 1.6 15.3333 -0.799999 15.2V-9.53674e-06C4.66667 -9.53674e-06 9.53334 1.06666 13.8 3.2C18.0667 5.33333 21.7333 8.06666 24.8 11.4C27.8667 14.6 30.2 17.8667 31.8 21.2C33.5333 24.4 34.5333 27.1333 34.8 29.4L19.8 34.2ZM84.4328 140V15.6H49.2328V-9.53674e-06H135.833V15.6H100.433V140H84.4328ZM176.583 140V89.6L143.983 -9.53674e-06H160.583L192.983 89.4V140H176.583ZM198.183 76.2L190.583 52L212.783 -9.53674e-06H229.383L199.383 76.2H198.183ZM242.114 140V-9.53674e-06H258.114V124.2H317.314V140H242.114ZM329.028 140V-9.53674e-06H401.828V15.8H345.028V62.4H383.028V78.2H345.028V124.2H401.828V140H329.028Z"/>
</mask>
<path d="M-0.799999 140.6H-1.8V141.6H-0.799999V140.6ZM-0.799999 125.6V124.6H-1.8V125.6H-0.799999ZM6.6 123.8L6.99392 124.719L7.00391 124.715L7.01381 124.71L6.6 123.8ZM15 118.4L15.6477 119.162L15.6584 119.153L15.669 119.143L15 118.4ZM21.6 110L20.7362 109.496L20.7282 109.51L20.7207 109.524L21.6 110ZM20.6 87.6L21.371 86.9631H21.371L20.6 87.6ZM10.8 80.2L10.3652 81.1006L10.3771 81.1062L10.8 80.2ZM-1.4 75.8L-1.64253 76.7701L-1.4 75.8ZM-13.4 73.2L-13.6169 74.1762L-13.5964 74.1807L-13.5758 74.1844L-13.4 73.2ZM-21.6 71L-21.2637 70.0582L-21.2672 70.057L-21.6 71ZM-34 64.6L-34.6 65.4L-34.5907 65.407L-34.5812 65.4137L-34 64.6ZM-43 53.8L-43.8998 54.2363L-43.8945 54.2472L-43.889 54.2579L-43 53.8ZM-32.4 8.6L-31.7956 9.39669L-32.4 8.6ZM-20.6 2.2L-20.2838 3.14868L-20.2697 3.14399L-20.2557 3.13887L-20.6 2.2ZM-10.6 -7.62939e-06H-9.6V-1.00001H-10.6V-7.62939e-06ZM-10.6 15.2L-10.5005 16.195L-9.6 16.105V15.2H-10.6ZM-16 16.8L-15.6672 17.743L-15.643 17.7344L-15.6193 17.7247L-16 16.8ZM-22.8 20.8L-23.4357 20.0281L-23.4472 20.0376L-23.4585 20.0474L-22.8 20.8ZM-28.4 28L-29.2779 27.5211L-29.2819 27.5285L-29.2858 27.536L-28.4 28ZM-27.6 47.8L-28.3849 48.4196L-28.3751 48.432L-28.3649 48.4441L-27.6 47.8ZM-19.4 54L-19.8327 54.9015L-19.4 54ZM-8.4 58.2L-8.68736 59.1579L-8.67881 59.1603L-8.4 58.2ZM3.8 61.4L3.57277 62.3739L3.57974 62.3754L3.8 61.4ZM14.8 64.6L15.1572 63.6659L15.1511 63.6637L14.8 64.6ZM27.4 71.4L26.8135 72.2099L26.8228 72.2167L26.8323 72.2232L27.4 71.4ZM36.8 82L37.6779 81.5211L36.8 82ZM34.8 119.2L35.6591 119.712L35.6638 119.704L34.8 119.2ZM19.8 134.6L20.338 135.443L19.8 134.6ZM-10.6 140.6V141.6H-9.6V140.6H-10.6ZM-25.8 137.2L-25.3528 136.306L-25.8 137.2ZM-37.6 128.6L-38.3348 129.278L-38.3279 129.286L-38.3208 129.293L-37.6 128.6ZM-45.2 118L-46.101 118.434L-46.0946 118.447L-46.0878 118.46L-45.2 118ZM-47.8 108.4L-48.1355 107.458L-48.8 107.695V108.4H-47.8ZM-33.2 103.2L-32.2136 103.036L-32.41 101.857L-33.5355 102.258L-33.2 103.2ZM-28.2 115.2L-27.416 114.579L-28.2 115.2ZM-19.6 122.6L-20.0763 123.479L-20.0619 123.487L-20.0472 123.494L-19.6 122.6ZM-10.6 125.6H-9.6V124.733L-10.4586 124.61L-10.6 125.6ZM19.8 34.2L18.8171 34.3843L19.0259 35.4977L20.1048 35.1524L19.8 34.2ZM15 23.8L14.2407 24.4508L14.2486 24.46L14.2567 24.469L15 23.8ZM7 17.6L6.536 18.4858L6.56076 18.4988L6.5862 18.5104L7 17.6ZM-0.799999 15.2H-1.8V16.146L-0.855469 16.1985L-0.799999 15.2ZM-0.799999 -7.62939e-06V-1.00001H-1.8V-7.62939e-06H-0.799999ZM13.8 3.2L13.3528 4.09443L13.8 3.2ZM24.8 11.4L24.0641 12.0771L24.071 12.0845L24.078 12.0919L24.8 11.4ZM31.8 21.2L30.8985 21.6327L30.9091 21.6548L30.9207 21.6763L31.8 21.2ZM34.8 29.4L35.1048 30.3524L35.8894 30.1013L35.7932 29.2831L34.8 29.4ZM0.200001 140.6V125.6H-1.8V140.6H0.200001ZM-0.799999 126.6C1.51364 126.6 4.11866 125.951 6.99392 124.719L6.20608 122.881C3.48134 124.049 1.15303 124.6 -0.799999 124.6V126.6ZM7.01381 124.71C10.0385 123.335 12.9163 121.484 15.6477 119.162L14.3523 117.638C11.7503 119.85 9.02814 121.598 6.1862 122.89L7.01381 124.71ZM15.669 119.143C18.4217 116.666 20.6924 113.775 22.4793 110.476L20.7207 109.524C19.0409 112.625 16.9116 115.334 14.331 117.657L15.669 119.143ZM22.4638 110.504C24.4267 107.139 25.4 103.362 25.4 99.2H23.4C23.4 103.038 22.5066 106.461 20.7362 109.496L22.4638 110.504ZM25.4 99.2C25.4 94.3431 24.0772 90.2391 21.371 86.9631L19.829 88.2369C22.1895 91.0943 23.4 94.7236 23.4 99.2H25.4ZM21.371 86.9631C18.7331 83.7699 15.3426 81.2163 11.2229 79.2938L10.3771 81.1062C14.2574 82.917 17.4002 85.2968 19.829 88.2369L21.371 86.9631ZM11.2347 79.2994C7.30508 77.4024 3.17387 75.9127 -1.15746 74.8299L-1.64253 76.7701C2.55947 77.8206 6.56159 79.2643 10.3653 81.1005L11.2347 79.2994ZM-1.15746 74.8299C-5.44282 73.7585 -9.46527 72.8868 -13.2242 72.2156L-13.5758 74.1844C-9.86805 74.8465 -5.89051 75.7081 -1.64253 76.7701L-1.15746 74.8299ZM-13.1831 72.2238C-16.7707 71.4266 -19.4561 70.7038 -21.2637 70.0583L-21.9363 71.9417C-20.0106 72.6295 -17.2293 73.3734 -13.6169 74.1762L-13.1831 72.2238ZM-21.2672 70.057C-25.7163 68.4867 -29.7653 66.3959 -33.4188 63.7863L-34.5812 65.4137C-30.768 68.1375 -26.5504 70.3133 -21.9328 71.943L-21.2672 70.057ZM-33.4 63.8C-37.0051 61.0962 -39.9093 57.616 -42.111 53.342L-43.889 54.2579C-41.5574 58.784 -38.4616 62.5038 -34.6 65.4L-33.4 63.8ZM-42.1002 53.3637C-44.1517 49.1324 -45.2 43.9567 -45.2 37.8H-47.2C-47.2 44.1766 -46.1149 49.6676 -43.8998 54.2363L-42.1002 53.3637ZM-45.2 37.8C-45.2 30.9928 -43.891 25.303 -41.3258 20.6856L-43.0742 19.7143C-45.8423 24.697 -47.2 30.7405 -47.2 37.8H-45.2ZM-41.3258 20.6856C-38.7177 15.991 -35.5381 12.2358 -31.7956 9.39669L-33.0044 7.80331C-36.9952 10.8308 -40.349 14.809 -43.0742 19.7143L-41.3258 20.6856ZM-31.7956 9.39669C-28.0031 6.51963 -24.1657 4.44266 -20.2838 3.14868L-20.9162 1.25132C-25.0343 2.624 -29.0635 4.8137 -33.0044 7.80331L-31.7956 9.39669ZM-20.2557 3.13887C-16.3082 1.69142 -13.1003 0.999992 -10.6 0.999992V-1.00001C-13.433 -1.00001 -16.8918 -0.224766 -20.9443 1.26112L-20.2557 3.13887ZM-11.6 -7.62939e-06V15.2H-9.6V-7.62939e-06H-11.6ZM-10.6995 14.205C-12.1786 14.3529 -14.0855 14.9302 -16.3807 15.8753L-15.6193 17.7247C-13.3811 16.8031 -11.6881 16.3138 -10.5005 16.195L-10.6995 14.205ZM-16.3328 15.857C-18.731 16.7034 -21.0982 18.103 -23.4357 20.0281L-22.1643 21.5719C-19.9685 19.7636 -17.8023 18.4966 -15.6672 17.743L-16.3328 15.857ZM-23.4585 20.0474C-25.6948 22.0042 -27.6313 24.5024 -29.2779 27.5211L-27.5221 28.4789C-25.9687 25.6309 -24.1719 23.3291 -22.1415 21.5526L-23.4585 20.0474ZM-29.2858 27.536C-30.8448 30.5122 -31.6 34.0803 -31.6 38.2H-29.6C-29.6 34.3197 -28.8886 31.0878 -27.5142 28.464L-29.2858 27.536ZM-31.6 38.2C-31.6 42.2454 -30.5503 45.6768 -28.3849 48.4196L-26.8151 47.1804C-28.6497 44.8566 -29.6 41.8879 -29.6 38.2H-31.6ZM-28.3649 48.4441C-26.1302 51.0978 -23.2788 53.2474 -19.8327 54.9015L-18.9673 53.0985C-22.1878 51.5526 -24.8031 49.5688 -26.8351 47.1559L-28.3649 48.4441ZM-19.8327 54.9015C-16.4469 56.5267 -12.7309 57.9447 -8.68735 59.1578L-8.11265 57.2422C-12.0691 56.0552 -15.6864 54.6733 -18.9673 53.0985L-19.8327 54.9015ZM-8.67881 59.1603C-4.52921 60.3651 -0.445339 61.4363 3.57277 62.3738L4.02723 60.4262C0.0453415 59.497 -4.00412 58.4349 -8.12119 57.2397L-8.67881 59.1603ZM3.57974 62.3754C7.67868 63.301 11.3002 64.3556 14.4489 65.5363L15.1511 63.6637C11.8998 62.4444 8.18799 61.3657 4.02026 60.4246L3.57974 62.3754ZM14.4429 65.534C18.896 67.2367 23.0187 69.462 26.8135 72.2099L27.9865 70.59C24.048 67.738 19.7707 65.4299 15.1571 63.6659L14.4429 65.534ZM26.8323 72.2232C30.5614 74.795 33.5919 78.2069 35.9221 82.4789L37.6779 81.5211C35.2081 76.9931 31.9719 73.3383 27.9677 70.5768L26.8323 72.2232ZM35.9221 82.4789C38.2185 86.6889 39.4 92.1102 39.4 98.8H41.4C41.4 91.8898 40.1815 86.1111 37.6779 81.5211L35.9221 82.4789ZM39.4 98.8C39.4 105.818 37.5831 112.444 33.9362 118.696L35.6638 119.704C39.4836 113.156 41.4 106.182 41.4 98.8H39.4ZM33.9409 118.688C30.2889 124.818 25.3999 129.839 19.262 133.757L20.338 135.443C26.7335 131.361 31.8444 126.115 35.6591 119.712L33.9409 118.688ZM19.262 133.757C13.1567 137.654 6.47689 139.6 -0.799999 139.6V141.6C6.85644 141.6 13.9099 139.546 20.338 135.443L19.262 133.757ZM-10.6 139.6C-16.0613 139.6 -20.9724 138.496 -25.3528 136.306L-26.2472 138.094C-21.561 140.438 -16.3387 141.6 -10.6 141.6V139.6ZM-25.3528 136.306C-29.7896 134.087 -33.6291 131.287 -36.8792 127.907L-38.3208 129.293C-34.9043 132.846 -30.877 135.78 -26.2472 138.094L-25.3528 136.306ZM-36.8652 127.922C-40.0143 124.51 -42.4927 121.049 -44.3122 117.54L-46.0878 118.46C-44.174 122.151 -41.5857 125.757 -38.3348 129.278L-36.8652 127.922ZM-44.299 117.566C-45.9931 114.048 -46.8 111 -46.8 108.4H-48.8C-48.8 111.4 -47.8736 114.752 -46.101 118.434L-44.299 117.566ZM-47.4645 109.342L-32.8645 104.142L-33.5355 102.258L-48.1355 107.458L-47.4645 109.342ZM-34.1864 103.364C-33.3639 108.299 -31.6408 112.465 -28.984 115.821L-27.416 114.579C-29.8259 111.535 -31.4361 107.701 -32.2136 103.036L-34.1864 103.364ZM-28.984 115.821C-26.3769 119.114 -23.409 121.674 -20.0763 123.479L-19.1237 121.721C-22.191 120.059 -24.9564 117.686 -27.416 114.579L-28.984 115.821ZM-20.0472 123.494C-16.7753 125.13 -13.6717 126.171 -10.7414 126.59L-10.4586 124.61C-13.1283 124.229 -16.0247 123.27 -19.1528 121.706L-20.0472 123.494ZM-11.6 125.6V140.6H-9.6V125.6H-11.6ZM20.7829 34.0157C19.9562 29.6066 18.2897 25.9603 15.7433 23.131L14.2567 24.469C16.5103 26.973 18.0438 30.2601 18.8171 34.3843L20.7829 34.0157ZM15.7593 23.1492C13.2781 20.2545 10.4977 18.0914 7.4138 16.6896L6.5862 18.5104C9.36893 19.7752 11.9219 21.7455 14.2407 24.4508L15.7593 23.1492ZM7.46401 16.7142C4.5755 15.2011 1.83557 14.3449 -0.74453 14.2015L-0.855469 16.1985C1.36443 16.3218 3.8245 17.0655 6.536 18.4858L7.46401 16.7142ZM0.200001 15.2V-7.62939e-06H-1.8V15.2H0.200001ZM-0.799999 0.999992C4.53417 0.999992 9.24398 2.04002 13.3528 4.09443L14.2472 2.30557C9.82269 0.0932999 4.79917 -1.00001 -0.799999 -1.00001V0.999992ZM13.3528 4.09443C17.5167 6.17635 21.084 8.83779 24.0641 12.0771L25.5359 10.7229C22.3827 7.29553 18.6167 4.4903 14.2472 2.30557L13.3528 4.09443ZM24.078 12.0919C27.0856 15.2302 29.3523 18.4115 30.8985 21.6327L32.7015 20.7673C31.0477 17.3218 28.6477 13.9697 25.522 10.7081L24.078 12.0919ZM30.9207 21.6763C32.6253 24.8232 33.5612 27.4286 33.8069 29.5168L35.7932 29.2831C35.5055 26.8381 34.4414 23.9767 32.6793 20.7237L30.9207 21.6763ZM34.4952 28.4476L19.4952 33.2476L20.1048 35.1524L35.1048 30.3524L34.4952 28.4476ZM84.4328 140H83.4328V141H84.4328V140ZM84.4328 15.6H85.4328V14.6H84.4328V15.6ZM49.2328 15.6H48.2328V16.6H49.2328V15.6ZM49.2328 -7.62939e-06V-1.00001H48.2328V-7.62939e-06H49.2328ZM135.833 -7.62939e-06H136.833V-1.00001H135.833V-7.62939e-06ZM135.833 15.6V16.6H136.833V15.6H135.833ZM100.433 15.6V14.6H99.4328V15.6H100.433ZM100.433 140V141H101.433V140H100.433ZM85.4328 140V15.6H83.4328V140H85.4328ZM84.4328 14.6H49.2328V16.6H84.4328V14.6ZM50.2328 15.6V-7.62939e-06H48.2328V15.6H50.2328ZM49.2328 0.999992H135.833V-1.00001H49.2328V0.999992ZM134.833 -7.62939e-06V15.6H136.833V-7.62939e-06H134.833ZM135.833 14.6H100.433V16.6H135.833V14.6ZM99.4328 15.6V140H101.433V15.6H99.4328ZM100.433 139H84.4328V141H100.433V139ZM176.583 140H175.583V141H176.583V140ZM176.583 89.6H177.583V89.4237L177.523 89.2581L176.583 89.6ZM143.983 -7.62939e-06V-1.00001H142.555L143.043 0.341904L143.983 -7.62939e-06ZM160.583 -7.62939e-06L161.523 -0.34074L161.284 -1.00001H160.583V-7.62939e-06ZM192.983 89.4H193.983V89.2244L193.923 89.0593L192.983 89.4ZM192.983 140V141H193.983V140H192.983ZM198.183 76.2L197.229 76.4996L197.449 77.2H198.183V76.2ZM190.583 52L189.663 51.6074L189.518 51.9471L189.629 52.2996L190.583 52ZM212.783 -7.62939e-06V-1.00001H212.122L211.863 -0.392647L212.783 -7.62939e-06ZM229.383 -7.62939e-06L230.313 0.366322L230.851 -1.00001H229.383V-7.62939e-06ZM199.383 76.2V77.2H200.064L200.313 76.5663L199.383 76.2ZM177.583 140V89.6H175.583V140H177.583ZM177.523 89.2581L144.923 -0.341923L143.043 0.341904L175.643 89.9419L177.523 89.2581ZM143.983 0.999992H160.583V-1.00001H143.983V0.999992ZM159.643 0.340721L192.043 89.7407L193.923 89.0593L161.523 -0.34074L159.643 0.340721ZM191.983 89.4V140H193.983V89.4H191.983ZM192.983 139H176.583V141H192.983V139ZM199.137 75.9004L191.537 51.7004L189.629 52.2996L197.229 76.4996L199.137 75.9004ZM191.503 52.3926L213.703 0.392628L211.863 -0.392647L189.663 51.6074L191.503 52.3926ZM212.783 0.999992H229.383V-1.00001H212.783V0.999992ZM228.452 -0.366341L198.452 75.8337L200.313 76.5663L230.313 0.366322L228.452 -0.366341ZM199.383 75.2H198.183V77.2H199.383V75.2ZM242.114 140H241.114V141H242.114V140ZM242.114 -7.62939e-06V-1.00001H241.114V-7.62939e-06H242.114ZM258.114 -7.62939e-06H259.114V-1.00001H258.114V-7.62939e-06ZM258.114 124.2H257.114V125.2H258.114V124.2ZM317.314 124.2H318.314V123.2H317.314V124.2ZM317.314 140V141H318.314V140H317.314ZM243.114 140V-7.62939e-06H241.114V140H243.114ZM242.114 0.999992H258.114V-1.00001H242.114V0.999992ZM257.114 -7.62939e-06V124.2H259.114V-7.62939e-06H257.114ZM258.114 125.2H317.314V123.2H258.114V125.2ZM316.314 124.2V140H318.314V124.2H316.314ZM317.314 139H242.114V141H317.314V139ZM329.028 140H328.028V141H329.028V140ZM329.028 -7.62939e-06V-1.00001H328.028V-7.62939e-06H329.028ZM401.828 -7.62939e-06H402.828V-1.00001H401.828V-7.62939e-06ZM401.828 15.8V16.8H402.828V15.8H401.828ZM345.028 15.8V14.8H344.028V15.8H345.028ZM345.028 62.4H344.028V63.4H345.028V62.4ZM383.028 62.4H384.028V61.4H383.028V62.4ZM383.028 78.2V79.2H384.028V78.2H383.028ZM345.028 78.2V77.2H344.028V78.2H345.028ZM345.028 124.2H344.028V125.2H345.028V124.2ZM401.828 124.2H402.828V123.2H401.828V124.2ZM401.828 140V141H402.828V140H401.828ZM330.028 140V-7.62939e-06H328.028V140H330.028ZM329.028 0.999992H401.828V-1.00001H329.028V0.999992ZM400.828 -7.62939e-06V15.8H402.828V-7.62939e-06H400.828ZM401.828 14.8H345.028V16.8H401.828V14.8ZM344.028 15.8V62.4H346.028V15.8H344.028ZM345.028 63.4H383.028V61.4H345.028V63.4ZM382.028 62.4V78.2H384.028V62.4H382.028ZM383.028 77.2H345.028V79.2H383.028V77.2ZM344.028 78.2V124.2H346.028V78.2H344.028ZM345.028 125.2H401.828V123.2H345.028V125.2ZM400.828 124.2V140H402.828V124.2H400.828ZM401.828 139H329.028V141H401.828V139Z" fill="#FFB905" mask="url(#path-1-outside-1_359_3023)"/>
</g>
</svg>
