<svg width="709" height="141" viewBox="0 0 709 141" fill="none" xmlns="http://www.w3.org/2000/svg">
<g opacity="0.3">
<mask id="path-1-outside-1_359_3024" maskUnits="userSpaceOnUse" x="-1" y="-1" width="711" height="143" fill="black">
<rect fill="white" x="-1" y="-1" width="711" height="143"/>
<path d="M35.8 140V15.6H0.6V-9.53674e-06H87.2V15.6H51.8V140H35.8ZM171.75 140L168.75 104.4C168.217 98.8 167.283 94.1333 165.95 90.4C164.617 86.5333 162.417 83.6667 159.35 81.8C156.283 79.8 151.95 78.8667 146.35 79H124.95V64.2H145.15C152.883 64.2 158.483 62.1333 161.95 58C165.417 53.8667 167.15 47.8 167.15 39.8C167.15 31.5333 165.083 25.2667 160.95 21C156.95 16.7333 150.683 14.6 142.15 14.6H124.95V-9.53674e-06H145.35C152.55 0.133322 158.95 1.53332 164.55 4.2C170.15 6.86666 174.55 11 177.75 16.6C181.083 22.2 182.75 29.6667 182.75 39C182.75 47.4 181.483 54.2667 178.95 59.6C176.417 64.8 173.083 68.7333 168.95 71.4C172.95 73.4 176.217 76.6 178.75 81C181.417 85.2667 183.017 90.4667 183.55 96.6L186.95 140H171.75ZM99.15 140V-9.53674e-06H115.15V140H99.15ZM264.717 140L259.717 117H228.917L232.317 101.4H255.717L233.317 0.199988H249.317L280.717 140H264.717ZM198.317 140L225.117 21.6H228.317L234.317 49.4L214.117 140H198.317ZM294.267 140V-9.53674e-06H310.267V140H294.267ZM408.28 140L327.08 10.2V-9.53674e-06H340.88L416.08 120.2V140H408.28ZM327.08 140V29.2H328.68L343.08 52.4V140H327.08ZM414.48 101L400.08 77.4V-9.53674e-06H416.08V101H414.48ZM432.739 140V-9.53674e-06H505.539V15.8H448.739V62.4H486.739V78.2H448.739V124.2H505.539V140H432.739ZM594.406 140L591.406 104.4C590.873 98.8 589.94 94.1333 588.606 90.4C587.273 86.5333 585.073 83.6667 582.006 81.8C578.94 79.8 574.606 78.8667 569.006 79H547.606V64.2H567.806C575.54 64.2 581.14 62.1333 584.606 58C588.073 53.8667 589.806 47.8 589.806 39.8C589.806 31.5333 587.74 25.2667 583.606 21C579.606 16.7333 573.34 14.6 564.806 14.6H547.606V-9.53674e-06H568.006C575.206 0.133322 581.606 1.53332 587.206 4.2C592.806 6.86666 597.206 11 600.406 16.6C603.74 22.2 605.406 29.6667 605.406 39C605.406 47.4 604.14 54.2667 601.606 59.6C599.073 64.8 595.74 68.7333 591.606 71.4C595.606 73.4 598.873 76.6 601.406 81C604.073 85.2667 605.673 90.4667 606.206 96.6L609.606 140H594.406ZM521.806 140V-9.53674e-06H537.806V140H521.806ZM666.973 140.6V125.6C669.107 125.6 671.573 125 674.373 123.8C677.307 122.467 680.107 120.667 682.773 118.4C685.44 116 687.64 113.2 689.373 110C691.24 106.8 692.173 103.2 692.173 99.2C692.173 94.5333 690.907 90.6667 688.373 87.6C685.84 84.5333 682.573 82.0667 678.573 80.2C674.707 78.3333 670.64 76.8667 666.373 75.8C662.107 74.7333 658.107 73.8667 654.373 73.2C650.773 72.4 648.04 71.6667 646.173 71C641.64 69.4 637.507 67.2667 633.773 64.6C630.04 61.8 627.04 58.2 624.773 53.8C622.64 49.4 621.573 44.0667 621.573 37.8C621.573 30.8667 622.907 25 625.573 20.2C628.24 15.4 631.507 11.5333 635.373 8.6C639.24 5.66666 643.173 3.53333 647.173 2.2C651.173 0.733326 654.507 -9.53674e-06 657.173 -9.53674e-06V15.2C655.84 15.3333 654.04 15.8667 651.773 16.8C649.507 17.6 647.24 18.9333 644.973 20.8C642.84 22.6667 640.973 25.0667 639.373 28C637.907 30.8 637.173 34.2 637.173 38.2C637.173 42.0667 638.173 45.2667 640.173 47.8C642.307 50.3333 645.04 52.4 648.373 54C651.707 55.6 655.373 57 659.373 58.2C663.507 59.4 667.573 60.4667 671.573 61.4C675.707 62.3333 679.373 63.4 682.573 64.6C687.107 66.3333 691.307 68.6 695.173 71.4C699.04 74.0667 702.173 77.6 704.573 82C706.973 86.4 708.173 92 708.173 98.8C708.173 106 706.307 112.8 702.573 119.2C698.84 125.467 693.84 130.6 687.573 134.6C681.307 138.6 674.44 140.6 666.973 140.6ZM657.173 140.6C651.573 140.6 646.507 139.467 641.973 137.2C637.44 134.933 633.507 132.067 630.173 128.6C626.973 125.133 624.44 121.6 622.573 118C620.84 114.4 619.973 111.2 619.973 108.4L634.573 103.2C635.373 108 637.04 112 639.573 115.2C642.107 118.4 644.973 120.867 648.173 122.6C651.373 124.2 654.373 125.2 657.173 125.6V140.6ZM687.573 34.2C686.773 29.9333 685.173 26.4667 682.773 23.8C680.373 21 677.707 18.9333 674.773 17.6C671.973 16.1333 669.373 15.3333 666.973 15.2V-9.53674e-06C672.44 -9.53674e-06 677.307 1.06666 681.573 3.2C685.84 5.33333 689.507 8.06666 692.573 11.4C695.64 14.6 697.973 17.8667 699.573 21.2C701.307 24.4 702.307 27.1333 702.573 29.4L687.573 34.2Z"/>
</mask>
<path d="M35.8 140H34.8V141H35.8V140ZM35.8 15.6H36.8V14.6H35.8V15.6ZM0.6 15.6H-0.4V16.6H0.6V15.6ZM0.6 -7.62939e-06V-1.00001H-0.4V-7.62939e-06H0.6ZM87.2 -7.62939e-06H88.2V-1.00001H87.2V-7.62939e-06ZM87.2 15.6V16.6H88.2V15.6H87.2ZM51.8 15.6V14.6H50.8V15.6H51.8ZM51.8 140V141H52.8V140H51.8ZM36.8 140V15.6H34.8V140H36.8ZM35.8 14.6H0.6V16.6H35.8V14.6ZM1.6 15.6V-7.62939e-06H-0.4V15.6H1.6ZM0.6 0.999992H87.2V-1.00001H0.6V0.999992ZM86.2 -7.62939e-06V15.6H88.2V-7.62939e-06H86.2ZM87.2 14.6H51.8V16.6H87.2V14.6ZM50.8 15.6V140H52.8V15.6H50.8ZM51.8 139H35.8V141H51.8V139ZM171.75 140L170.754 140.084L170.831 141H171.75V140ZM168.75 104.4L169.747 104.316L169.745 104.305L168.75 104.4ZM165.95 90.4L165.005 90.726L165.008 90.7363L165.95 90.4ZM159.35 81.8L158.804 82.6376L158.817 82.6461L158.83 82.6542L159.35 81.8ZM146.35 79V80H146.362L146.374 79.9997L146.35 79ZM124.95 79H123.95V80H124.95V79ZM124.95 64.2V63.2H123.95V64.2H124.95ZM161.95 58L161.184 57.3574L161.95 58ZM160.95 21L160.22 21.6839L160.226 21.6899L160.232 21.6958L160.95 21ZM124.95 14.6H123.95V15.6H124.95V14.6ZM124.95 -7.62939e-06V-1.00001H123.95V-7.62939e-06H124.95ZM145.35 -7.62939e-06L145.369 -0.99984L145.359 -1.00001H145.35V-7.62939e-06ZM164.55 4.2L164.12 5.10286L164.55 4.2ZM177.75 16.6L176.882 17.0961L176.886 17.1038L176.891 17.1115L177.75 16.6ZM178.95 59.6L179.849 60.038L179.853 60.0291L178.95 59.6ZM168.95 71.4L168.408 70.5597L166.934 71.5103L168.503 72.2944L168.95 71.4ZM178.75 81L177.883 81.499L177.892 81.5146L177.902 81.53L178.75 81ZM183.55 96.6L184.547 96.5219L184.546 96.5134L183.55 96.6ZM186.95 140V141H188.031L187.947 139.922L186.95 140ZM99.15 140H98.15V141H99.15V140ZM99.15 -7.62939e-06V-1.00001H98.15V-7.62939e-06H99.15ZM115.15 -7.62939e-06H116.15V-1.00001H115.15V-7.62939e-06ZM115.15 140V141H116.15V140H115.15ZM172.746 139.916L169.746 104.316L167.754 104.484L170.754 140.084L172.746 139.916ZM169.745 104.305C169.207 98.6541 168.262 93.8999 166.892 90.0637L165.008 90.7363C166.305 94.3667 167.226 98.9458 167.755 104.495L169.745 104.305ZM166.895 90.074C165.497 86.0195 163.163 82.9503 159.87 80.9458L158.83 82.6542C161.67 84.383 163.736 87.0471 165.005 90.726L166.895 90.074ZM159.896 80.9624C156.592 78.8077 152.028 77.8645 146.326 78.0003L146.374 79.9997C151.872 79.8688 155.974 80.7923 158.804 82.6376L159.896 80.9624ZM146.35 78H124.95V80H146.35V78ZM125.95 79V64.2H123.95V79H125.95ZM124.95 65.2H145.15V63.2H124.95V65.2ZM145.15 65.2C153.046 65.2 158.988 63.0875 162.716 58.6426L161.184 57.3574C157.978 61.1791 152.72 63.2 145.15 63.2V65.2ZM162.716 58.6426C166.392 54.2599 168.15 47.9251 168.15 39.8H166.15C166.15 47.6749 164.441 53.4734 161.184 57.3574L162.716 58.6426ZM168.15 39.8C168.15 31.3766 166.043 24.8202 161.668 20.3042L160.232 21.6958C164.124 25.7132 166.15 31.6901 166.15 39.8H168.15ZM161.68 20.3161C157.418 15.7702 150.832 13.6 142.15 13.6V15.6C150.535 15.6 156.482 17.6964 160.22 21.6839L161.68 20.3161ZM142.15 13.6H124.95V15.6H142.15V13.6ZM125.95 14.6V-7.62939e-06H123.95V14.6H125.95ZM124.95 0.999992H145.35V-1.00001H124.95V0.999992ZM145.331 0.999821C152.412 1.13094 158.668 2.50655 164.12 5.10286L164.98 3.29713C159.232 0.560101 152.688 -0.864288 145.369 -0.99984L145.331 0.999821ZM164.12 5.10286C169.528 7.67818 173.779 11.6657 176.882 17.0961L178.618 16.1039C175.321 10.3343 170.772 6.05514 164.98 3.29713L164.12 5.10286ZM176.891 17.1115C180.1 22.5039 181.75 29.7732 181.75 39H183.75C183.75 29.5601 182.066 21.8961 178.609 16.0885L176.891 17.1115ZM181.75 39C181.75 47.31 180.495 54.016 178.047 59.1709L179.853 60.0291C182.471 54.5174 183.75 47.49 183.75 39H181.75ZM178.051 59.162C175.583 64.2271 172.363 68.0083 168.408 70.5597L169.492 72.2403C173.804 69.4584 177.25 65.3729 179.849 60.038L178.051 59.162ZM168.503 72.2944C172.304 74.1951 175.434 77.2454 177.883 81.499L179.617 80.501C176.999 75.9546 173.596 72.6049 169.397 70.5056L168.503 72.2944ZM177.902 81.53C180.468 85.636 182.031 90.676 182.554 96.6866L184.546 96.5134C184.002 90.2573 182.365 84.8974 179.598 80.47L177.902 81.53ZM182.553 96.6781L185.953 140.078L187.947 139.922L184.547 96.5219L182.553 96.6781ZM186.95 139H171.75V141H186.95V139ZM100.15 140V-7.62939e-06H98.15V140H100.15ZM99.15 0.999992H115.15V-1.00001H99.15V0.999992ZM114.15 -7.62939e-06V140H116.15V-7.62939e-06H114.15ZM115.15 139H99.15V141H115.15V139ZM264.717 140L263.74 140.212L263.911 141H264.717V140ZM259.717 117L260.694 116.788L260.523 116H259.717V117ZM228.917 117L227.94 116.787L227.676 118H228.917V117ZM232.317 101.4V100.4H231.512L231.34 101.187L232.317 101.4ZM255.717 101.4V102.4H256.963L256.694 101.184L255.717 101.4ZM233.317 0.199989V-0.800011H232.072L232.341 0.4161L233.317 0.199989ZM249.317 0.199989L250.293 -0.0191574L250.117 -0.800011H249.317V0.199989ZM280.717 140V141H281.967L281.693 139.781L280.717 140ZM198.317 140L197.342 139.779L197.066 141H198.317V140ZM225.117 21.6V20.6H224.318L224.142 21.3792L225.117 21.6ZM228.317 21.6L229.295 21.389L229.124 20.6H228.317V21.6ZM234.317 49.4L235.293 49.6176L235.341 49.4035L235.295 49.189L234.317 49.4ZM214.117 140V141H214.919L215.093 140.218L214.117 140ZM265.694 139.788L260.694 116.788L258.74 117.212L263.74 140.212L265.694 139.788ZM259.717 116H228.917V118H259.717V116ZM229.894 117.213L233.294 101.613L231.34 101.187L227.94 116.787L229.894 117.213ZM232.317 102.4H255.717V100.4H232.317V102.4ZM256.694 101.184L234.294 -0.0161247L232.341 0.4161L254.741 101.616L256.694 101.184ZM233.317 1.19999H249.317V-0.800011H233.317V1.19999ZM248.341 0.419136L279.741 140.219L281.693 139.781L250.293 -0.0191574L248.341 0.419136ZM280.717 139H264.717V141H280.717V139ZM199.293 140.221L226.093 21.8208L224.142 21.3792L197.342 139.779L199.293 140.221ZM225.117 22.6H228.317V20.6H225.117V22.6ZM227.34 21.811L233.34 49.611L235.295 49.189L229.295 21.389L227.34 21.811ZM233.341 49.1824L213.141 139.782L215.093 140.218L235.293 49.6176L233.341 49.1824ZM214.117 139H198.317V141H214.117V139ZM294.267 140H293.267V141H294.267V140ZM294.267 -7.62939e-06V-1.00001H293.267V-7.62939e-06H294.267ZM310.267 -7.62939e-06H311.267V-1.00001H310.267V-7.62939e-06ZM310.267 140V141H311.267V140H310.267ZM295.267 140V-7.62939e-06H293.267V140H295.267ZM294.267 0.999992H310.267V-1.00001H294.267V0.999992ZM309.267 -7.62939e-06V140H311.267V-7.62939e-06H309.267ZM310.267 139H294.267V141H310.267V139ZM408.28 140L407.432 140.53L407.726 141H408.28V140ZM327.08 10.2H326.08V10.487L326.232 10.7303L327.08 10.2ZM327.08 -7.62939e-06V-1.00001H326.08V-7.62939e-06H327.08ZM340.88 -7.62939e-06L341.727 -0.530388L341.434 -1.00001H340.88V-7.62939e-06ZM416.08 120.2H417.08V119.913L416.927 119.67L416.08 120.2ZM416.08 140V141H417.08V140H416.08ZM327.08 140H326.08V141H327.08V140ZM327.08 29.2V28.2H326.08V29.2H327.08ZM328.68 29.2L329.529 28.6726L329.236 28.2H328.68V29.2ZM343.08 52.4H344.08V52.1149L343.929 51.8726L343.08 52.4ZM343.08 140V141H344.08V140H343.08ZM414.48 101L413.626 101.521L413.918 102H414.48V101ZM400.08 77.4H399.08V77.681L399.226 77.9209L400.08 77.4ZM400.08 -7.62939e-06V-1.00001H399.08V-7.62939e-06H400.08ZM416.08 -7.62939e-06H417.08V-1.00001H416.08V-7.62939e-06ZM416.08 101V102H417.08V101H416.08ZM409.127 139.47L327.927 9.66964L326.232 10.7303L407.432 140.53L409.127 139.47ZM328.08 10.2V-7.62939e-06H326.08V10.2H328.08ZM327.08 0.999992H340.88V-1.00001H327.08V0.999992ZM340.032 0.530369L415.232 120.73L416.927 119.67L341.727 -0.530388L340.032 0.530369ZM415.08 120.2V140H417.08V120.2H415.08ZM416.08 139H408.28V141H416.08V139ZM328.08 140V29.2H326.08V140H328.08ZM327.08 30.2H328.68V28.2H327.08V30.2ZM327.83 29.7274L342.23 52.9274L343.929 51.8726L329.529 28.6726L327.83 29.7274ZM342.08 52.4V140H344.08V52.4H342.08ZM343.08 139H327.08V141H343.08V139ZM415.333 100.479L400.933 76.8791L399.226 77.9209L413.626 101.521L415.333 100.479ZM401.08 77.4V-7.62939e-06H399.08V77.4H401.08ZM400.08 0.999992H416.08V-1.00001H400.08V0.999992ZM415.08 -7.62939e-06V101H417.08V-7.62939e-06H415.08ZM416.08 100H414.48V102H416.08V100ZM432.739 140H431.739V141H432.739V140ZM432.739 -7.62939e-06V-1.00001H431.739V-7.62939e-06H432.739ZM505.539 -7.62939e-06H506.539V-1.00001H505.539V-7.62939e-06ZM505.539 15.8V16.8H506.539V15.8H505.539ZM448.739 15.8V14.8H447.739V15.8H448.739ZM448.739 62.4H447.739V63.4H448.739V62.4ZM486.739 62.4H487.739V61.4H486.739V62.4ZM486.739 78.2V79.2H487.739V78.2H486.739ZM448.739 78.2V77.2H447.739V78.2H448.739ZM448.739 124.2H447.739V125.2H448.739V124.2ZM505.539 124.2H506.539V123.2H505.539V124.2ZM505.539 140V141H506.539V140H505.539ZM433.739 140V-7.62939e-06H431.739V140H433.739ZM432.739 0.999992H505.539V-1.00001H432.739V0.999992ZM504.539 -7.62939e-06V15.8H506.539V-7.62939e-06H504.539ZM505.539 14.8H448.739V16.8H505.539V14.8ZM447.739 15.8V62.4H449.739V15.8H447.739ZM448.739 63.4H486.739V61.4H448.739V63.4ZM485.739 62.4V78.2H487.739V62.4H485.739ZM486.739 77.2H448.739V79.2H486.739V77.2ZM447.739 78.2V124.2H449.739V78.2H447.739ZM448.739 125.2H505.539V123.2H448.739V125.2ZM504.539 124.2V140H506.539V124.2H504.539ZM505.539 139H432.739V141H505.539V139ZM594.406 140L593.41 140.084L593.487 141H594.406V140ZM591.406 104.4L592.403 104.316L592.402 104.305L591.406 104.4ZM588.606 90.4L587.661 90.726L587.664 90.7363L588.606 90.4ZM582.006 81.8L581.46 82.6376L581.473 82.6461L581.486 82.6542L582.006 81.8ZM569.006 79V80H569.018L569.03 79.9997L569.006 79ZM547.606 79H546.606V80H547.606V79ZM547.606 64.2V63.2H546.606V64.2H547.606ZM584.606 58L583.84 57.3574L584.606 58ZM583.606 21L582.877 21.6839L582.882 21.6899L582.888 21.6958L583.606 21ZM547.606 14.6H546.606V15.6H547.606V14.6ZM547.606 -7.62939e-06V-1.00001H546.606V-7.62939e-06H547.606ZM568.006 -7.62939e-06L568.025 -0.99984L568.016 -1.00001H568.006V-7.62939e-06ZM587.206 4.2L586.776 5.10286L587.206 4.2ZM600.406 16.6L599.538 17.0961L599.542 17.1038L599.547 17.1115L600.406 16.6ZM601.606 59.6L602.505 60.038L602.51 60.0291L601.606 59.6ZM591.606 71.4L591.064 70.5597L589.591 71.5103L591.159 72.2944L591.606 71.4ZM601.406 81L600.54 81.499L600.549 81.5146L600.558 81.53L601.406 81ZM606.206 96.6L607.203 96.5219L607.203 96.5134L606.206 96.6ZM609.606 140V141H610.688L610.603 139.922L609.606 140ZM521.806 140H520.806V141H521.806V140ZM521.806 -7.62939e-06V-1.00001H520.806V-7.62939e-06H521.806ZM537.806 -7.62939e-06H538.806V-1.00001H537.806V-7.62939e-06ZM537.806 140V141H538.806V140H537.806ZM595.403 139.916L592.403 104.316L590.41 104.484L593.41 140.084L595.403 139.916ZM592.402 104.305C591.864 98.6541 590.918 93.8999 589.548 90.0637L587.664 90.7363C588.961 94.3667 589.882 98.9458 590.411 104.495L592.402 104.305ZM589.552 90.074C588.154 86.0195 585.819 82.9503 582.526 80.9458L581.486 82.6542C584.326 84.383 586.392 87.0471 587.661 90.726L589.552 90.074ZM582.553 80.9624C579.249 78.8077 574.685 77.8645 568.982 78.0003L569.03 79.9997C574.528 79.8688 578.63 80.7923 581.46 82.6376L582.553 80.9624ZM569.006 78H547.606V80H569.006V78ZM548.606 79V64.2H546.606V79H548.606ZM547.606 65.2H567.806V63.2H547.606V65.2ZM567.806 65.2C575.703 65.2 581.644 63.0875 585.372 58.6426L583.84 57.3574C580.635 61.1791 575.377 63.2 567.806 63.2V65.2ZM585.372 58.6426C589.048 54.2599 590.806 47.9251 590.806 39.8H588.806C588.806 47.6749 587.098 53.4734 583.84 57.3574L585.372 58.6426ZM590.806 39.8C590.806 31.3766 588.699 24.8202 584.324 20.3042L582.888 21.6958C586.78 25.7132 588.806 31.6901 588.806 39.8H590.806ZM584.336 20.3161C580.074 15.7702 573.488 13.6 564.806 13.6V15.6C573.191 15.6 579.138 17.6964 582.877 21.6839L584.336 20.3161ZM564.806 13.6H547.606V15.6H564.806V13.6ZM548.606 14.6V-7.62939e-06H546.606V14.6H548.606ZM547.606 0.999992H568.006V-1.00001H547.606V0.999992ZM567.988 0.999821C575.068 1.13094 581.324 2.50655 586.776 5.10286L587.636 3.29713C581.888 0.560101 575.344 -0.864288 568.025 -0.99984L567.988 0.999821ZM586.776 5.10286C592.185 7.67818 596.435 11.6657 599.538 17.0961L601.274 16.1039C597.978 10.3343 593.428 6.05514 587.636 3.29713L586.776 5.10286ZM599.547 17.1115C602.757 22.5039 604.406 29.7732 604.406 39H606.406C606.406 29.5601 604.722 21.8961 601.266 16.0885L599.547 17.1115ZM604.406 39C604.406 47.31 603.152 54.016 600.703 59.1709L602.51 60.0291C605.128 54.5174 606.406 47.49 606.406 39H604.406ZM600.707 59.162C598.24 64.2271 595.019 68.0083 591.064 70.5597L592.148 72.2403C596.46 69.4584 599.906 65.3729 602.505 60.038L600.707 59.162ZM591.159 72.2944C594.96 74.1951 598.091 77.2454 600.54 81.499L602.273 80.501C599.655 75.9546 596.252 72.6049 592.053 70.5056L591.159 72.2944ZM600.558 81.53C603.125 85.636 604.687 90.676 605.21 96.6866L607.203 96.5134C606.659 90.2573 605.021 84.8974 602.254 80.47L600.558 81.53ZM605.209 96.6781L608.609 140.078L610.603 139.922L607.203 96.5219L605.209 96.6781ZM609.606 139H594.406V141H609.606V139ZM522.806 140V-7.62939e-06H520.806V140H522.806ZM521.806 0.999992H537.806V-1.00001H521.806V0.999992ZM536.806 -7.62939e-06V140H538.806V-7.62939e-06H536.806ZM537.806 139H521.806V141H537.806V139ZM666.973 140.6H665.973V141.6H666.973V140.6ZM666.973 125.6V124.6H665.973V125.6H666.973ZM674.373 123.8L674.767 124.719L674.777 124.715L674.787 124.71L674.373 123.8ZM682.773 118.4L683.421 119.162L683.432 119.153L683.442 119.143L682.773 118.4ZM689.373 110L688.51 109.496L688.502 109.51L688.494 109.524L689.373 110ZM688.373 87.6L689.144 86.9631L688.373 87.6ZM678.573 80.2L678.139 81.1006L678.151 81.1062L678.573 80.2ZM666.373 75.8L666.131 76.7701L666.373 75.8ZM654.373 73.2L654.156 74.1762L654.177 74.1807L654.198 74.1844L654.373 73.2ZM646.173 71L646.51 70.0582L646.506 70.057L646.173 71ZM633.773 64.6L633.173 65.4L633.183 65.407L633.192 65.4137L633.773 64.6ZM624.773 53.8L623.874 54.2363L623.879 54.2472L623.884 54.2579L624.773 53.8ZM635.373 8.6L635.978 9.39669L635.373 8.6ZM647.173 2.2L647.49 3.14868L647.504 3.14399L647.518 3.13887L647.173 2.2ZM657.173 -7.62939e-06H658.173V-1.00001H657.173V-7.62939e-06ZM657.173 15.2L657.273 16.195L658.173 16.105V15.2H657.173ZM651.773 16.8L652.106 17.743L652.13 17.7344L652.154 17.7247L651.773 16.8ZM644.973 20.8L644.338 20.0281L644.326 20.0376L644.315 20.0474L644.973 20.8ZM639.373 28L638.496 27.5211L638.492 27.5285L638.488 27.536L639.373 28ZM640.173 47.8L639.389 48.4196L639.398 48.432L639.409 48.4441L640.173 47.8ZM648.373 54L647.941 54.9015L648.373 54ZM659.373 58.2L659.086 59.1579L659.095 59.1603L659.373 58.2ZM671.573 61.4L671.346 62.3739L671.353 62.3754L671.573 61.4ZM682.573 64.6L682.931 63.6659L682.925 63.6637L682.573 64.6ZM695.173 71.4L694.587 72.2099L694.596 72.2167L694.606 72.2232L695.173 71.4ZM704.573 82L705.451 81.5211L704.573 82ZM702.573 119.2L703.433 119.712L703.437 119.704L702.573 119.2ZM687.573 134.6L688.111 135.443L687.573 134.6ZM657.173 140.6V141.6H658.173V140.6H657.173ZM641.973 137.2L642.421 136.306L641.973 137.2ZM630.173 128.6L629.439 129.278L629.446 129.286L629.453 129.293L630.173 128.6ZM622.573 118L621.672 118.434L621.679 118.447L621.686 118.46L622.573 118ZM619.973 108.4L619.638 107.458L618.973 107.695V108.4H619.973ZM634.573 103.2L635.56 103.036L635.363 101.857L634.238 102.258L634.573 103.2ZM639.573 115.2L640.357 114.579L639.573 115.2ZM648.173 122.6L647.697 123.479L647.712 123.487L647.726 123.494L648.173 122.6ZM657.173 125.6H658.173V124.733L657.315 124.61L657.173 125.6ZM687.573 34.2L686.591 34.3843L686.799 35.4977L687.878 35.1524L687.573 34.2ZM682.773 23.8L682.014 24.4508L682.022 24.46L682.03 24.469L682.773 23.8ZM674.773 17.6L674.309 18.4858L674.334 18.4988L674.36 18.5104L674.773 17.6ZM666.973 15.2H665.973V16.146L666.918 16.1985L666.973 15.2ZM666.973 -7.62939e-06V-1.00001H665.973V-7.62939e-06H666.973ZM681.573 3.2L681.126 4.09443L681.573 3.2ZM692.573 11.4L691.838 12.0771L691.844 12.0845L691.851 12.0919L692.573 11.4ZM699.573 21.2L698.672 21.6327L698.682 21.6548L698.694 21.6763L699.573 21.2ZM702.573 29.4L702.878 30.3524L703.663 30.1013L703.567 29.2831L702.573 29.4ZM667.973 140.6V125.6H665.973V140.6H667.973ZM666.973 126.6C669.287 126.6 671.892 125.951 674.767 124.719L673.979 122.881C671.255 124.049 668.926 124.6 666.973 124.6V126.6ZM674.787 124.71C677.812 123.335 680.69 121.484 683.421 119.162L682.126 117.638C679.524 119.85 676.802 121.598 673.96 122.89L674.787 124.71ZM683.442 119.143C686.195 116.666 688.466 113.775 690.253 110.476L688.494 109.524C686.814 112.625 684.685 115.334 682.104 117.657L683.442 119.143ZM690.237 110.504C692.2 107.139 693.173 103.362 693.173 99.2H691.173C691.173 103.038 690.28 106.461 688.51 109.496L690.237 110.504ZM693.173 99.2C693.173 94.3431 691.851 90.2391 689.144 86.9631L687.602 88.2369C689.963 91.0943 691.173 94.7236 691.173 99.2H693.173ZM689.144 86.9631C686.507 83.7699 683.116 81.2163 678.996 79.2938L678.151 81.1062C682.031 82.917 685.174 85.2968 687.602 88.2369L689.144 86.9631ZM679.008 79.2994C675.078 77.4024 670.947 75.9127 666.616 74.8299L666.131 76.7701C670.333 77.8206 674.335 79.2643 678.139 81.1005L679.008 79.2994ZM666.616 74.8299C662.331 73.7585 658.308 72.8868 654.549 72.2156L654.198 74.1844C657.905 74.8465 661.883 75.7081 666.131 76.7701L666.616 74.8299ZM654.59 72.2238C651.003 71.4266 648.317 70.7038 646.51 70.0583L645.837 71.9417C647.763 72.6295 650.544 73.3734 654.156 74.1762L654.59 72.2238ZM646.506 70.057C642.057 68.4867 638.008 66.3959 634.355 63.7863L633.192 65.4137C637.005 68.1375 641.223 70.3133 645.841 71.943L646.506 70.057ZM634.373 63.8C630.768 61.0962 627.864 57.616 625.662 53.342L623.884 54.2579C626.216 58.784 629.312 62.5038 633.173 65.4L634.373 63.8ZM625.673 53.3637C623.622 49.1324 622.573 43.9567 622.573 37.8H620.573C620.573 44.1766 621.659 49.6676 623.874 54.2363L625.673 53.3637ZM622.573 37.8C622.573 30.9928 623.882 25.303 626.448 20.6856L624.699 19.7143C621.931 24.697 620.573 30.7405 620.573 37.8H622.573ZM626.448 20.6856C629.056 15.991 632.235 12.2358 635.978 9.39669L634.769 7.80331C630.778 10.8308 627.424 14.809 624.699 19.7143L626.448 20.6856ZM635.978 9.39669C639.77 6.51963 643.608 4.44266 647.49 3.14868L646.857 1.25132C642.739 2.624 638.71 4.8137 634.769 7.80331L635.978 9.39669ZM647.518 3.13887C651.465 1.69142 654.673 0.999992 657.173 0.999992V-1.00001C654.34 -1.00001 650.882 -0.224766 646.829 1.26112L647.518 3.13887ZM656.173 -7.62939e-06V15.2H658.173V-7.62939e-06H656.173ZM657.074 14.205C655.595 14.3529 653.688 14.9302 651.393 15.8753L652.154 17.7247C654.392 16.8031 656.085 16.3138 657.273 16.195L657.074 14.205ZM651.441 15.857C649.042 16.7034 646.675 18.103 644.338 20.0281L645.609 21.5719C647.805 19.7636 649.971 18.4966 652.106 17.743L651.441 15.857ZM644.315 20.0474C642.079 22.0042 640.142 24.5024 638.496 27.5211L640.251 28.4789C641.805 25.6309 643.602 23.3291 645.632 21.5526L644.315 20.0474ZM638.488 27.536C636.929 30.5122 636.173 34.0803 636.173 38.2H638.173C638.173 34.3197 638.885 31.0878 640.259 28.464L638.488 27.536ZM636.173 38.2C636.173 42.2454 637.223 45.6768 639.389 48.4196L640.958 47.1804C639.124 44.8566 638.173 41.8879 638.173 38.2H636.173ZM639.409 48.4441C641.643 51.0978 644.495 53.2474 647.941 54.9015L648.806 53.0985C645.586 51.5526 642.97 49.5688 640.938 47.1559L639.409 48.4441ZM647.941 54.9015C651.327 56.5267 655.043 57.9447 659.086 59.1578L659.661 57.2422C655.704 56.0552 652.087 54.6733 648.806 53.0985L647.941 54.9015ZM659.095 59.1603C663.244 60.3651 667.328 61.4363 671.346 62.3738L671.801 60.4262C667.819 59.497 663.769 58.4349 659.652 57.2397L659.095 59.1603ZM671.353 62.3754C675.452 63.301 679.074 64.3556 682.222 65.5363L682.925 63.6637C679.673 62.4444 675.961 61.3657 671.794 60.4246L671.353 62.3754ZM682.216 65.534C686.669 67.2367 690.792 69.462 694.587 72.2099L695.76 70.59C691.821 67.738 687.544 65.4299 682.931 63.6659L682.216 65.534ZM694.606 72.2232C698.335 74.795 701.365 78.2069 703.696 82.4789L705.451 81.5211C702.982 76.9931 699.745 73.3383 695.741 70.5768L694.606 72.2232ZM703.696 82.4789C705.992 86.6889 707.173 92.1102 707.173 98.8H709.173C709.173 91.8898 707.955 86.1111 705.451 81.5211L703.696 82.4789ZM707.173 98.8C707.173 105.818 705.357 112.444 701.71 118.696L703.437 119.704C707.257 113.156 709.173 106.182 709.173 98.8H707.173ZM701.714 118.688C698.062 124.818 693.173 129.839 687.035 133.757L688.111 135.443C694.507 131.361 699.618 126.115 703.433 119.712L701.714 118.688ZM687.035 133.757C680.93 137.654 674.25 139.6 666.973 139.6V141.6C674.63 141.6 681.683 139.546 688.111 135.443L687.035 133.757ZM657.173 139.6C651.712 139.6 646.801 138.496 642.421 136.306L641.526 138.094C646.212 140.438 651.435 141.6 657.173 141.6V139.6ZM642.421 136.306C637.984 134.087 634.144 131.287 630.894 127.907L629.453 129.293C632.869 132.846 636.896 135.78 641.526 138.094L642.421 136.306ZM630.908 127.922C627.759 124.51 625.281 121.049 623.461 117.54L621.686 118.46C623.599 122.151 626.188 125.757 629.439 129.278L630.908 127.922ZM623.474 117.566C621.78 114.048 620.973 111 620.973 108.4H618.973C618.973 111.4 619.9 114.752 621.672 118.434L623.474 117.566ZM620.309 109.342L634.909 104.142L634.238 102.258L619.638 107.458L620.309 109.342ZM633.587 103.364C634.409 108.299 636.133 112.465 638.789 115.821L640.357 114.579C637.948 111.535 636.337 107.701 635.56 103.036L633.587 103.364ZM638.789 115.821C641.397 119.114 644.364 121.674 647.697 123.479L648.65 121.721C645.582 120.059 642.817 117.686 640.357 114.579L638.789 115.821ZM647.726 123.494C650.998 125.13 654.102 126.171 657.032 126.59L657.315 124.61C654.645 124.229 651.749 123.27 648.621 121.706L647.726 123.494ZM656.173 125.6V140.6H658.173V125.6H656.173ZM688.556 34.0157C687.73 29.6066 686.063 25.9603 683.517 23.131L682.03 24.469C684.284 26.973 685.817 30.2601 686.591 34.3843L688.556 34.0157ZM683.533 23.1492C681.052 20.2545 678.271 18.0914 675.187 16.6896L674.36 18.5104C677.142 19.7752 679.695 21.7455 682.014 24.4508L683.533 23.1492ZM675.237 16.7142C672.349 15.2011 669.609 14.3449 667.029 14.2015L666.918 16.1985C669.138 16.3218 671.598 17.0655 674.309 18.4858L675.237 16.7142ZM667.973 15.2V-7.62939e-06H665.973V15.2H667.973ZM666.973 0.999992C672.308 0.999992 677.017 2.04002 681.126 4.09443L682.021 2.30557C677.596 0.0932999 672.573 -1.00001 666.973 -1.00001V0.999992ZM681.126 4.09443C685.29 6.17635 688.857 8.83779 691.838 12.0771L693.309 10.7229C690.156 7.29553 686.39 4.4903 682.021 2.30557L681.126 4.09443ZM691.851 12.0919C694.859 15.2302 697.126 18.4115 698.672 21.6327L700.475 20.7673C698.821 17.3218 696.421 13.9697 693.295 10.7081L691.851 12.0919ZM698.694 21.6763C700.399 24.8232 701.335 27.4286 701.58 29.5168L703.567 29.2831C703.279 26.8381 702.215 23.9767 700.453 20.7237L698.694 21.6763ZM702.269 28.4476L687.269 33.2476L687.878 35.1524L702.878 30.3524L702.269 28.4476Z" fill="#FFB905" mask="url(#path-1-outside-1_359_3024)"/>
</g>
</svg>
