<svg width="12" height="22" viewBox="0 0 12 22" fill="none" xmlns="http://www.w3.org/2000/svg">
<path d="M9.30084 20.5075L9.30033 20.507L0.65124 11.081C0.651182 11.0809 0.651125 11.0808 0.651067 11.0808C0.591674 11.0158 0.558459 10.9555 0.540324 10.8996L0.539586 10.8973C0.51445 10.821 0.5 10.7339 0.5 10.6329C0.5 10.5319 0.51445 10.4448 0.539591 10.3685L0.540319 10.3662C0.558478 10.3102 0.59174 10.2499 0.65124 10.1849L9.30084 0.730272C9.44433 0.573423 9.60925 0.5 9.83025 0.5C10.0403 0.5 10.2172 0.57452 10.3853 0.758327C10.5592 0.94839 10.6392 1.15588 10.6392 1.40276C10.6392 1.64964 10.5592 1.85713 10.3853 2.04719L2.8394 10.2954L2.53063 10.6329L2.8394 10.9704L10.3853 19.2186C10.5335 19.3806 10.6136 19.5796 10.6136 19.8485C10.6136 20.1086 10.5311 20.3201 10.3597 20.5075C10.186 20.6973 10.0157 20.7658 9.83025 20.7658C9.6448 20.7658 9.47448 20.6973 9.30084 20.5075Z" fill="black" stroke="#FFB905"/>
</svg>
