<svg width="94" height="92" viewBox="0 0 94 92" fill="none" xmlns="http://www.w3.org/2000/svg">
<path d="M21.6689 16.5007L21.6675 16.5007C21.4623 16.4956 21.2574 16.5185 21.0585 16.5688C17.9633 17.3612 16.0691 19.66 15.6262 22.353C15.176 25.0912 15.9522 28.2317 17.6109 31.3537C20.7066 37.18 26.9083 42.8478 34.8687 44.5901C34.2865 43.8299 33.718 43.0204 33.1653 42.1709C26.8424 40.0838 21.8296 35.2659 19.2836 30.4742L19.7251 30.2396L19.2836 30.4742C17.7748 27.6348 17.1439 24.7829 17.4934 22.6569L17.4934 22.6569C17.6663 21.6059 18.0189 20.6918 18.6825 19.9567C19.3264 19.2434 20.224 18.7416 21.4193 18.42C21.4418 18.407 21.4658 18.3956 21.4913 18.3859C21.6239 18.3355 21.7511 18.3497 21.8447 18.3843C21.9558 18.4254 22.0522 18.5065 22.1117 18.6134C22.2787 18.811 22.4599 19.1668 22.5441 19.6361L22.5441 19.6362C22.7231 20.6358 22.4978 22.1621 21.4352 23.7333L22.939 24.8806C24.3025 22.9211 24.694 20.911 24.4063 19.3062L24.4063 19.3061C24.2519 18.4442 23.912 17.7032 23.332 17.1624L21.6689 16.5007ZM21.6689 16.5007C22.2967 16.5147 22.9134 16.7722 23.332 17.1624L21.6689 16.5007ZM21.6543 18.8752L21.6541 18.8745L21.6543 18.8752ZM72.3311 16.5007L72.3325 16.5007C72.5378 16.4956 72.7428 16.5185 72.9418 16.5689C76.0368 17.3613 77.9309 19.6599 78.3738 22.3529C78.824 25.0912 78.0478 28.2317 76.3891 31.3537C73.2934 37.18 67.0917 42.8478 59.1312 44.5901C59.7135 43.83 60.282 43.0205 60.8347 42.1709C67.1577 40.084 72.1704 35.2659 74.7164 30.4742L74.2749 30.2396L74.7164 30.4742C76.2252 27.6348 76.8561 24.7829 76.5066 22.6569L76.5066 22.6569C76.3337 21.6058 75.9811 20.6918 75.3175 19.9567C74.6736 19.2434 73.776 18.7418 72.5808 18.4201C72.5582 18.4072 72.5342 18.3957 72.5087 18.3861C72.3761 18.3357 72.2489 18.3499 72.1553 18.3845C72.0442 18.4255 71.9478 18.5067 71.8884 18.6136C71.7213 18.8111 71.5401 19.1669 71.4559 19.6363L71.4559 19.6364C71.2769 20.636 71.5022 22.1623 72.5648 23.7334L71.0608 24.8807C69.6975 22.9211 69.306 20.9111 69.5936 19.3063C69.7481 18.4444 70.0879 17.7036 70.6679 17.1627C71.0868 16.7723 71.7034 16.5147 72.3311 16.5007ZM34.2643 36.3465L34.2643 36.3465C31.207 30.5306 28.9322 23.4145 28.4873 17.7357H65.5127C65.0676 23.4146 62.793 30.5304 59.7357 36.3465L60.1783 36.5791L59.7357 36.3465C58.0294 39.5928 56.1001 42.4137 54.234 44.3462C53.3043 45.309 52.4061 46.0172 51.5986 46.4819C50.785 46.9501 50.0941 47.1537 49.5705 47.1537H44.4295C43.9059 47.1537 43.215 46.9501 42.4014 46.4819C41.594 46.0172 40.6957 45.309 39.766 44.3462C37.8999 42.4137 35.9706 39.5928 34.2643 36.3465ZM50.1951 52.5972H43.8049V51.0356H50.1951V52.5972ZM52.7012 67.6462H41.2988C42.9546 64.715 44.3574 60.2642 44.7906 56.4789H49.2094C49.6426 60.2642 51.0456 64.715 52.7012 67.6462ZM55.3362 72.7693H38.6638V71.5279H55.3362V72.7693Z" stroke="white" stroke-opacity="0.7"/>
<path d="M42.06 36.8008L43.92 30.7208L39 27.2008H45.08L47 20.8008L48.92 27.2008H55L50.08 30.7208L51.94 36.8008L47 33.0408L42.06 36.8008Z" fill="white" fill-opacity="0.7"/>
<rect x="0.5" y="0.5" width="93" height="91" rx="11.5" stroke="#FFB905"/>
</svg>
