<svg width="40" height="39" viewBox="0 0 40 39" fill="none" xmlns="http://www.w3.org/2000/svg">
<path d="M24.5309 2.47585C24.5724 2.32424 24.6441 2.18208 24.7419 2.05751C24.8398 1.93294 24.9619 1.82839 25.1012 1.74985C25.2405 1.6713 25.3943 1.62031 25.5538 1.59977C25.7134 1.57923 25.8755 1.58956 26.031 1.63016C28.9885 2.38237 31.6869 3.88978 33.8482 5.99709C36.0095 8.10441 37.5556 10.7354 38.327 13.6191C38.3687 13.7707 38.3793 13.9288 38.3582 14.0843C38.3371 14.2399 38.2848 14.3899 38.2043 14.5257C38.1237 14.6616 38.0165 14.7806 37.8887 14.876C37.761 14.9714 37.6152 15.0413 37.4597 15.0817C37.3565 15.1085 37.2501 15.1219 37.1433 15.1215C36.8736 15.1217 36.6113 15.0349 36.3972 14.8748C36.1832 14.7147 36.0294 14.4901 35.9597 14.236C35.2973 11.759 33.9695 9.49898 32.1131 7.68892C30.2567 5.87885 27.9388 4.58421 25.3983 3.93841C25.2428 3.89799 25.097 3.82808 24.9692 3.73268C24.8415 3.63728 24.7343 3.51826 24.6537 3.38243C24.5731 3.24659 24.5208 3.09661 24.4998 2.94105C24.4787 2.7855 24.4893 2.62742 24.5309 2.47585ZM23.7656 10.306C26.7351 11.0781 28.6371 12.9326 29.429 15.8279C29.4987 16.082 29.6525 16.3066 29.8665 16.4667C30.0806 16.6268 30.3429 16.7136 30.6127 16.7134C30.7194 16.7138 30.8258 16.7004 30.929 16.6736C31.0845 16.6332 31.2303 16.5633 31.358 16.4679C31.4858 16.3725 31.593 16.2535 31.6736 16.1176C31.7541 15.9818 31.8064 15.8318 31.8275 15.6762C31.8486 15.5207 31.838 15.3626 31.7963 15.211C30.7759 11.488 28.2167 8.99269 24.3983 7.99775C24.2428 7.95725 24.0807 7.94699 23.9212 7.96757C23.7617 7.98815 23.6079 8.03916 23.4686 8.11769C23.1873 8.27629 22.9822 8.53735 22.8983 8.84345C22.8144 9.14954 22.8586 9.47559 23.0213 9.74988C23.1839 10.0242 23.4517 10.2242 23.7656 10.306ZM39.9781 29.6078C39.6284 32.209 38.3192 34.5971 36.2951 36.3256C34.271 38.0541 31.6706 39.0048 28.98 39C13.0002 39 2.03517e-05 26.3245 2.03517e-05 10.7438C-0.00513432 8.12121 0.969052 5.5865 2.74061 3.6131C4.51217 1.63971 6.95993 0.362608 9.62667 0.0203493C10.2406 -0.0523893 10.8621 0.0710291 11.3979 0.372069C11.9337 0.67311 12.3549 1.13552 12.5981 1.68985L16.9043 11.0622C17.0944 11.4865 17.1731 11.9503 17.1332 12.4117C17.0933 12.873 16.9361 13.3175 16.6757 13.7047C16.6495 13.7441 16.6209 13.782 16.59 13.8181L12.29 18.8048C12.2639 18.8564 12.2503 18.9133 12.2503 18.9709C12.2503 19.0285 12.2639 19.0854 12.29 19.1371C13.8533 22.2572 17.2084 25.5047 20.4533 27.0269C20.5075 27.051 20.5667 27.0625 20.6262 27.0604C20.6857 27.0583 20.7439 27.0428 20.7962 27.015L25.835 22.8362C25.871 22.8057 25.9092 22.7778 25.9493 22.7527C26.3447 22.4956 26.7997 22.3388 27.2729 22.2964C27.7461 22.254 28.2227 22.3274 28.6596 22.5099L38.3005 26.7225C38.8615 26.9649 39.3275 27.3769 39.6296 27.8976C39.9318 28.4184 40.0539 29.0201 39.9781 29.6137V29.6078ZM37.5515 29.3133C37.5584 29.2301 37.5382 29.1469 37.4939 29.0755C37.4496 29.004 37.3833 28.948 37.3046 28.9153L27.6616 24.7027C27.6089 24.6829 27.5525 24.6744 27.4961 24.6779C27.4397 24.6813 27.3848 24.6966 27.3351 24.7226L22.2983 28.9014C22.2615 28.9312 22.2227 28.9591 22.184 28.9849C21.7731 29.2521 21.2983 29.4108 20.8058 29.4457C20.3132 29.4806 19.8199 29.3904 19.3737 29.1839C15.6267 27.4189 11.892 23.8113 10.0818 20.1917C9.86887 19.7592 9.77409 19.2805 9.80663 18.8019C9.83917 18.3232 9.99791 17.8609 10.2675 17.4596C10.2938 17.4197 10.3231 17.3818 10.3553 17.3462L14.6533 12.3596C14.6778 12.3074 14.6905 12.2508 14.6905 12.1934C14.6905 12.136 14.6778 12.0794 14.6533 12.0272L10.3553 2.64698C10.3269 2.5717 10.2759 2.50653 10.2088 2.46001C10.1418 2.4135 10.062 2.38781 9.97974 2.38631H9.9328C7.85714 2.65552 5.95295 3.65215 4.57578 5.1901C3.19862 6.72804 2.44264 8.70214 2.44903 10.7438C2.44903 25.0072 14.3512 36.6121 28.98 36.6121C31.0742 36.6183 33.0991 35.8809 34.6765 34.5378C36.2539 33.1946 37.2759 31.3375 37.5515 29.3133Z" fill="white" fill-opacity="0.5"/>
</svg>
