<svg width="94" height="92" viewBox="0 0 94 92" fill="none" xmlns="http://www.w3.org/2000/svg">
<path d="M46.8299 48.4039C55.2457 48.4039 62.068 41.5816 62.068 33.1658C62.068 24.7501 55.2457 17.9277 46.8299 17.9277C38.4141 17.9277 31.5918 24.7501 31.5918 33.1658C31.5918 41.5816 38.4141 48.4039 46.8299 48.4039Z" stroke="white" stroke-opacity="0.7" stroke-width="2" stroke-linecap="round" stroke-linejoin="round"/>
<path d="M68.2591 43.8214C60.2234 62.5714 46.8305 84 46.8305 84C46.8305 84 33.4377 62.5714 25.402 43.8214C17.3662 25.0714 30.7591 9 46.8305 9C62.902 9 76.2948 25.0714 68.2591 43.8214Z" stroke="white" stroke-opacity="0.7" stroke-width="2" stroke-linecap="round" stroke-linejoin="round"/>
<rect x="36.0656" y="30.2902" width="2.29229" height="4.92164" stroke="white" stroke-opacity="0.7" stroke-width="0.6"/>
<rect x="56.3117" y="30.5539" width="2.29229" height="4.92164" stroke="white" stroke-opacity="0.7" stroke-width="0.6"/>
<rect x="38.6945" y="28.4504" width="2.29229" height="8.60273" stroke="white" stroke-opacity="0.7" stroke-width="0.6"/>
<rect x="53.6828" y="28.4504" width="2.29229" height="8.60273" stroke="white" stroke-opacity="0.7" stroke-width="0.6"/>
<rect x="53.3445" y="32.132" width="1.24055" height="12.0209" transform="rotate(90 53.3445 32.132)" stroke="white" stroke-opacity="0.7" stroke-width="0.6"/>
<rect x="0.5" y="0.5" width="93" height="91" rx="11.5" stroke="#FFB905"/>
</svg>
