<svg width="94" height="92" viewBox="0 0 94 92" fill="none" xmlns="http://www.w3.org/2000/svg">
<path d="M20.107 36.3693H74.893M18.4502 37.9308L45.8103 72.3907C46.0092 72.6424 46.265 72.8463 46.558 72.9867C46.851 73.127 47.1733 73.2 47.5 73.2C47.8267 73.2 48.149 73.127 48.442 72.9867C48.735 72.8463 48.9908 72.6424 49.1897 72.3907L76.5498 37.9308C76.8188 37.5907 76.9749 37.1791 76.9972 36.7508C77.0196 36.3225 76.9071 35.8977 76.6749 35.5329L67.3942 20.986C67.2031 20.685 66.936 20.4363 66.6181 20.2638C66.3003 20.0912 65.9422 20.0004 65.5781 20H29.4219C29.0577 20.0004 28.6997 20.0912 28.3819 20.2638C28.064 20.4363 27.7969 20.685 27.6058 20.986L18.3251 35.5329C18.0929 35.8977 17.9804 36.3225 18.0028 36.7508C18.0251 37.1791 18.1812 37.5907 18.4502 37.9308Z" stroke="white" stroke-opacity="0.7" stroke-width="2" stroke-linecap="round" stroke-linejoin="round"/>
<path d="M66.464 22.0462L60.1425 36.3693M60.1425 36.3693L47.4996 20L34.8566 36.3693M60.1425 36.3693L47.4996 71.1541L34.8566 36.3693M28.5352 22.0462L34.8566 36.3693" stroke="white" stroke-opacity="0.7" stroke-width="2" stroke-linecap="round" stroke-linejoin="round"/>
<rect x="0.5" y="0.5" width="93" height="91" rx="11.5" stroke="#FFB905"/>
</svg>
