<svg width="40" height="32" viewBox="0 0 40 32" fill="none" xmlns="http://www.w3.org/2000/svg">
<path d="M6.31579 0H33.6842C35.3593 0 36.9657 0.674284 38.1502 1.87452C39.3346 3.07475 40 4.70261 40 6.4V25.6C40 27.2974 39.3346 28.9253 38.1502 30.1255C36.9657 31.3257 35.3593 32 33.6842 32H6.31579C4.64074 32 3.03429 31.3257 1.84985 30.1255C0.665412 28.9253 0 27.2974 0 25.6V6.4C0 4.70261 0.665412 3.07475 1.84985 1.87452C3.03429 0.674284 4.64074 0 6.31579 0ZM6.31579 2.13333C5.26316 2.13333 4.33684 2.496 3.62105 3.136L20 13.8667L36.3789 3.136C35.6632 2.496 34.7368 2.13333 33.6842 2.13333H6.31579ZM20 16.448L2.37895 4.864C2.21053 5.33333 2.10526 5.86667 2.10526 6.4V25.6C2.10526 26.7316 2.54887 27.8168 3.3385 28.617C4.12812 29.4171 5.19909 29.8667 6.31579 29.8667H33.6842C34.8009 29.8667 35.8719 29.4171 36.6615 28.617C37.4511 27.8168 37.8947 26.7316 37.8947 25.6V6.4C37.8947 5.86667 37.7895 5.33333 37.6211 4.864L20 16.448Z" fill="white" fill-opacity="0.5"/>
</svg>
