<svg width="30" height="30" viewBox="0 0 30 30" fill="none" xmlns="http://www.w3.org/2000/svg">
<path fill-rule="evenodd" clip-rule="evenodd" d="M24.1663 28.334C25.2714 28.334 26.3312 27.895 27.1126 27.1136C27.894 26.3322 28.333 25.2724 28.333 24.1673C28.333 23.0622 27.894 22.0024 27.1126 21.221C26.3312 20.4396 25.2714 20.0007 24.1663 20.0007C23.0613 20.0007 22.0015 20.4396 21.2201 21.221C20.4387 22.0024 19.9997 23.0622 19.9997 24.1673C19.9997 25.2724 20.4387 26.3322 21.2201 27.1136C22.0015 27.895 23.0613 28.334 24.1663 28.334ZM24.1663 30.0007C25.7134 30.0007 27.1972 29.3861 28.2911 28.2921C29.3851 27.1981 29.9997 25.7144 29.9997 24.1673C29.9997 22.6202 29.3851 21.1365 28.2911 20.0425C27.1972 18.9486 25.7134 18.334 24.1663 18.334C22.6192 18.334 21.1355 18.9486 20.0416 20.0425C18.9476 21.1365 18.333 22.6202 18.333 24.1673C18.333 25.7144 18.9476 27.1981 20.0416 28.2921C21.1355 29.3861 22.6192 30.0007 24.1663 30.0007Z" fill="white" fill-opacity="0.5"/>
<path fill-rule="evenodd" clip-rule="evenodd" d="M24.1663 21.25C24.3874 21.25 24.5993 21.3378 24.7556 21.4941C24.9119 21.6504 24.9997 21.8623 24.9997 22.0833V23.8217L25.5888 24.4108C25.7406 24.568 25.8246 24.7785 25.8227 24.997C25.8208 25.2155 25.7332 25.4245 25.5787 25.579C25.4242 25.7335 25.2152 25.8212 24.9967 25.8231C24.7782 25.825 24.5677 25.741 24.4105 25.5892L23.333 24.5117V22.0833C23.333 21.8623 23.4208 21.6504 23.5771 21.4941C23.7334 21.3378 23.9453 21.25 24.1663 21.25ZM6.66634 14.1667H4.99967V15.8333H6.66634V14.1667ZM4.99967 12.5C4.55765 12.5 4.13372 12.6756 3.82116 12.9882C3.5086 13.3007 3.33301 13.7246 3.33301 14.1667V15.8333C3.33301 16.2754 3.5086 16.6993 3.82116 17.0118C4.13372 17.3244 4.55765 17.5 4.99967 17.5H6.66634C7.10837 17.5 7.53229 17.3244 7.84485 17.0118C8.15741 16.6993 8.33301 16.2754 8.33301 15.8333V14.1667C8.33301 13.7246 8.15741 13.3007 7.84485 12.9882C7.53229 12.6756 7.10837 12.5 6.66634 12.5H4.99967ZM13.333 14.1667H11.6663V15.8333H13.333V14.1667ZM11.6663 12.5C11.2243 12.5 10.8004 12.6756 10.4878 12.9882C10.1753 13.3007 9.99967 13.7246 9.99967 14.1667V15.8333C9.99967 16.2754 10.1753 16.6993 10.4878 17.0118C10.8004 17.3244 11.2243 17.5 11.6663 17.5H13.333C13.775 17.5 14.199 17.3244 14.5115 17.0118C14.8241 16.6993 14.9997 16.2754 14.9997 15.8333V14.1667C14.9997 13.7246 14.8241 13.3007 14.5115 12.9882C14.199 12.6756 13.775 12.5 13.333 12.5H11.6663ZM19.9997 14.1667H18.333V15.8333H19.9997V14.1667ZM18.333 12.5C17.891 12.5 17.4671 12.6756 17.1545 12.9882C16.8419 13.3007 16.6663 13.7246 16.6663 14.1667V15.8333C16.6663 16.2754 16.8419 16.6993 17.1545 17.0118C17.4671 17.3244 17.891 17.5 18.333 17.5H19.9997C20.4417 17.5 20.8656 17.3244 21.1782 17.0118C21.4907 16.6993 21.6663 16.2754 21.6663 15.8333V14.1667C21.6663 13.7246 21.4907 13.3007 21.1782 12.9882C20.8656 12.6756 20.4417 12.5 19.9997 12.5H18.333ZM6.66634 20.8333H4.99967V22.5H6.66634V20.8333ZM4.99967 19.1667C4.55765 19.1667 4.13372 19.3423 3.82116 19.6548C3.5086 19.9674 3.33301 20.3913 3.33301 20.8333V22.5C3.33301 22.942 3.5086 23.366 3.82116 23.6785C4.13372 23.9911 4.55765 24.1667 4.99967 24.1667H6.66634C7.10837 24.1667 7.53229 23.9911 7.84485 23.6785C8.15741 23.366 8.33301 22.942 8.33301 22.5V20.8333C8.33301 20.3913 8.15741 19.9674 7.84485 19.6548C7.53229 19.3423 7.10837 19.1667 6.66634 19.1667H4.99967ZM13.333 20.8333H11.6663V22.5H13.333V20.8333ZM11.6663 19.1667C11.2243 19.1667 10.8004 19.3423 10.4878 19.6548C10.1753 19.9674 9.99967 20.3913 9.99967 20.8333V22.5C9.99967 22.942 10.1753 23.366 10.4878 23.6785C10.8004 23.9911 11.2243 24.1667 11.6663 24.1667H13.333C13.775 24.1667 14.199 23.9911 14.5115 23.6785C14.8241 23.366 14.9997 22.942 14.9997 22.5V20.8333C14.9997 20.3913 14.8241 19.9674 14.5115 19.6548C14.199 19.3423 13.775 19.1667 13.333 19.1667H11.6663Z" fill="white" fill-opacity="0.5"/>
<path fill-rule="evenodd" clip-rule="evenodd" d="M1.66667 5C1.66667 4.77899 1.75446 4.56702 1.91074 4.41074C2.06702 4.25446 2.27899 4.16667 2.5 4.16667H6.66667V2.5H2.5C1.83696 2.5 1.20107 2.76339 0.732233 3.23223C0.263392 3.70107 0 4.33696 0 5V25C0 25.663 0.263392 26.2989 0.732233 26.7678C1.20107 27.2366 1.83696 27.5 2.5 27.5H19.3792C19.0238 26.991 18.7523 26.4283 18.575 25.8333H2.5C2.27899 25.8333 2.06702 25.7455 1.91074 25.5893C1.75446 25.433 1.66667 25.221 1.66667 25V5ZM23.3333 18.3917C23.8861 18.3126 24.4473 18.3126 25 18.3917V5C25 4.33696 24.7366 3.70107 24.2678 3.23223C23.7989 2.76339 23.163 2.5 22.5 2.5H20V4.16667H22.5C22.721 4.16667 22.933 4.25446 23.0893 4.41074C23.2455 4.56702 23.3333 4.77899 23.3333 5V18.3917ZM8.33333 4.16667H17.1358V2.5H8.33333V4.16667Z" fill="white" fill-opacity="0.5"/>
<path fill-rule="evenodd" clip-rule="evenodd" d="M18.333 2.5H8.33301V5C8.33301 5.22101 8.24521 5.43298 8.08893 5.58926C7.93265 5.74554 7.72069 5.83333 7.49967 5.83333C7.27866 5.83333 7.0667 5.74554 6.91042 5.58926C6.75414 5.43298 6.66634 5.22101 6.66634 5V2.5H2.49967C2.05765 2.5 1.63372 2.6756 1.32116 2.98816C1.0086 3.30072 0.833008 3.72464 0.833008 4.16667V8.33333C0.833008 8.77536 1.0086 9.19928 1.32116 9.51184C1.63372 9.8244 2.05765 10 2.49967 10H22.4997C22.9417 10 23.3656 9.8244 23.6782 9.51184C23.9907 9.19928 24.1663 8.77536 24.1663 8.33333V4.16667C24.1663 3.72464 23.9907 3.30072 23.6782 2.98816C23.3656 2.6756 22.9417 2.5 22.4997 2.5H19.9997V5C19.9997 5.22101 19.9119 5.43298 19.7556 5.58926C19.5993 5.74554 19.3874 5.83333 19.1663 5.83333C18.9453 5.83333 18.7334 5.74554 18.5771 5.58926C18.4208 5.43298 18.333 5.22101 18.333 5V2.5Z" fill="white" fill-opacity="0.5"/>
<path fill-rule="evenodd" clip-rule="evenodd" d="M25.0003 10.0007H1.66699V8.33398H25.0003V10.0007Z" fill="white" fill-opacity="0.5"/>
<path d="M5 0.833333C5 0.61232 5.0878 0.400358 5.24408 0.244078C5.40036 0.0877975 5.61232 0 5.83333 0C6.05435 0 6.26631 0.0877975 6.42259 0.244078C6.57887 0.400358 6.66667 0.61232 6.66667 0.833333V4.16667C6.66667 4.38768 6.57887 4.59964 6.42259 4.75592C6.26631 4.9122 6.05435 5 5.83333 5C5.61232 5 5.40036 4.9122 5.24408 4.75592C5.0878 4.59964 5 4.38768 5 4.16667V0.833333ZM16.6667 0.833333C16.6667 0.61232 16.7545 0.400358 16.9107 0.244078C17.067 0.0877975 17.279 0 17.5 0C17.721 0 17.933 0.0877975 18.0893 0.244078C18.2455 0.400358 18.3333 0.61232 18.3333 0.833333V4.16667C18.3333 4.38768 18.2455 4.59964 18.0893 4.75592C17.933 4.9122 17.721 5 17.5 5C17.279 5 17.067 4.9122 16.9107 4.75592C16.7545 4.59964 16.6667 4.38768 16.6667 4.16667V0.833333Z" fill="white" fill-opacity="0.5"/>
</svg>
