<svg width="43" height="43" viewBox="0 0 43 43" fill="none" xmlns="http://www.w3.org/2000/svg">
<g clip-path="url(#clip0_359_2807)">
<path d="M29.6339 21.0312L29.6133 21.0854C29.6197 21.0691 29.6249 21.0523 29.6313 21.036L29.6339 21.0312Z" fill="white" fill-opacity="0.5"/>
<path d="M21.5005 0C14.4149 0 8.59961 5.7964 8.59961 12.8665C8.59961 15.6064 9.47681 18.1598 10.956 20.2513L10.9031 20.1687L19.1617 34.4439L19.2034 34.4985C19.5362 34.9328 19.8656 35.2828 20.2642 35.5464C20.6628 35.81 21.1732 35.9764 21.6746 35.9261C22.6765 35.8255 23.2587 35.1332 23.7967 34.4039L23.8302 34.3587L32.935 18.8641L32.9423 18.8512C33.1603 18.4578 33.3182 18.0609 33.4532 17.6764C34.0776 16.1497 34.399 14.516 34.3996 12.8665C34.3996 5.7964 28.586 0 21.5005 0ZM21.5005 2.15C27.4147 2.15 32.2496 6.97374 32.2496 12.8665C32.25 14.2428 31.9812 15.606 31.4584 16.8792L31.4477 16.9059L31.4382 16.9338C31.3251 17.2593 31.2021 17.5548 31.0602 17.811L22.0479 33.1474C21.6493 33.6724 21.3706 33.7967 21.46 33.7873C21.5061 33.7829 21.5486 33.8191 21.4502 33.7537C21.356 33.6914 21.1638 33.5086 20.9359 33.2179L12.7405 19.049L12.7117 19.009C11.4763 17.2632 10.7496 15.1489 10.7496 12.8665C10.7496 6.97417 15.5862 2.15 21.5005 2.15ZM21.5005 5.5255C17.4318 5.5255 14.141 8.80468 14.141 12.8665C14.141 16.9282 17.4322 20.2074 21.5005 20.2074C25.5687 20.2074 28.8582 16.9278 28.8582 12.8665C28.8582 8.80468 25.5687 5.5255 21.5005 5.5255ZM21.5005 7.6755C24.4318 7.6755 26.7082 9.94805 26.7082 12.8665C26.7082 15.7849 24.4322 18.0574 21.5005 18.0574C18.5687 18.0574 16.291 15.7844 16.291 12.8665C16.291 9.94805 18.5692 7.6755 21.5005 7.6755Z" fill="white" fill-opacity="0.5"/>
<path d="M14.6234 29.6953C8.54918 30.5536 4.30078 32.6068 4.30078 35.6293C4.30078 39.7006 11.3992 43.0008 21.5008 43.0008C31.6023 43.0008 38.7008 39.7006 38.7008 35.6293C38.7008 32.6068 34.4528 30.5536 28.3791 29.6953L27.5376 31.1281C32.1153 31.7632 35.2608 33.0979 35.2608 34.6468C35.2608 36.8183 29.1002 38.5783 21.5008 38.5783C13.9014 38.5783 7.74078 36.8183 7.74078 34.6468C7.74035 33.1031 10.8652 31.7696 15.4571 31.1319C15.1798 30.6529 14.9011 30.1748 14.6234 29.6953Z" fill="white" fill-opacity="0.5"/>
</g>
<defs>
<clipPath id="clip0_359_2807">
<rect width="43" height="43" fill="white"/>
</clipPath>
</defs>
</svg>
