<svg width="60" height="60" viewBox="0 0 60 60" fill="none" xmlns="http://www.w3.org/2000/svg">
<path d="M26.2695 19.9984L26.27 19.9989L34.9191 29.4249C34.9192 29.425 34.9193 29.4252 34.9194 29.4253C34.9787 29.4902 35.0119 29.5504 35.03 29.6063L35.0307 29.6085C35.0559 29.6848 35.0703 29.7719 35.0703 29.8729C35.0703 29.974 35.0559 30.061 35.0307 30.1374L35.03 30.1396C35.0118 30.1956 34.9786 30.256 34.9191 30.321L26.2695 39.7756C26.126 39.9324 25.9611 40.0059 25.7401 40.0059C25.53 40.0059 25.3531 39.9313 25.185 39.7475C25.0111 39.5575 24.9311 39.35 24.9311 39.1031C24.9311 38.8562 25.0111 38.6487 25.185 38.4587L32.7309 30.2104L33.0397 29.8729L32.7309 29.5354L25.185 21.2872C25.0368 21.1252 24.9567 20.9263 24.9567 20.6574C24.9567 20.3972 25.0392 20.1858 25.2106 19.9984C25.3843 19.8086 25.5546 19.74 25.7401 19.74C25.9255 19.74 26.0958 19.8086 26.2695 19.9984Z" fill="black" stroke="#FFB905"/>
<circle cx="30.0004" cy="29.8734" r="29.3734" stroke="#FFB905"/>
</svg>
