<svg width="60" height="60" viewBox="0 0 60 60" fill="none" xmlns="http://www.w3.org/2000/svg">
<path d="M33.7305 39.7477L33.73 39.7472L25.0809 30.3212C25.0808 30.3211 25.0807 30.3209 25.0806 30.3208C25.0213 30.2559 24.9881 30.1957 24.97 30.1398L24.9693 30.1376C24.9441 30.0612 24.9297 29.9742 24.9297 29.8731C24.9297 29.7721 24.9441 29.685 24.9693 29.6087L24.97 29.6065C24.9882 29.5505 25.0214 29.4901 25.0809 29.4251L33.7305 19.9705C33.874 19.8137 34.0389 19.7402 34.2599 19.7402C34.47 19.7402 34.6469 19.8148 34.815 19.9986C34.9889 20.1886 35.0689 20.3961 35.0689 20.643C35.0689 20.8899 34.9889 21.0974 34.815 21.2874L27.2691 29.5356L26.9603 29.8731L27.2691 30.2106L34.815 38.4589C34.9632 38.6209 35.0433 38.8198 35.0433 39.0887C35.0433 39.3489 34.9608 39.5603 34.7894 39.7477C34.6157 39.9375 34.4454 40.0061 34.2599 40.0061C34.0745 40.0061 33.9042 39.9375 33.7305 39.7477Z" fill="black" stroke="#FFB905"/>
<circle cx="30.0004" cy="29.8734" r="29.3734" stroke="#FFB905"/>
</svg>
